<svg width="78" height="78" viewBox="0 0 78 78" fill="none" xmlns="http://www.w3.org/2000/svg">
<path d="M12.2267 63.4966C12.1852 63.2947 12.1034 63.1033 11.9862 62.9339C11.869 62.7644 11.7188 62.6203 11.5446 62.5103C11.5236 62.4955 11.4986 62.4875 11.473 62.4875C11.4474 62.4875 11.4224 62.4955 11.4014 62.5103H11.3987L10.1273 63.2536L9.94594 63.3597C9.91319 63.3794 9.88942 63.411 9.87973 63.448C9.87003 63.485 9.87518 63.5242 9.89407 63.5574C10.1708 64.0341 10.6121 64.3932 11.1351 64.5671C11.29 64.6223 11.4572 64.633 11.6179 64.5978C11.7785 64.5626 11.9261 64.4831 12.0438 64.3682C12.1376 64.246 12.2028 64.1041 12.2345 63.9533C12.2662 63.8024 12.2635 63.6463 12.2267 63.4966Z" fill="#FF8684"/>
<path d="M72.6953 52.6056C72.7023 52.6054 72.7091 52.6034 72.7151 52.5997H72.7048C72.7018 52.6019 72.6986 52.6038 72.6953 52.6056Z" fill="#6D458F"/>
<path d="M75.9087 63.4069L74.7726 63.3227L72.0692 63.1222L68.7764 62.8781L65.9493 62.6687L65.0098 62.5989C64.9458 62.5942 64.8795 62.586 64.8148 62.5786C65.1101 62.1581 65.4076 61.7394 65.7071 61.3224C66.498 60.2184 67.3 59.122 68.113 58.0331C68.9897 56.8631 69.8793 55.6994 70.8165 54.5758C71.1885 54.1292 71.5676 53.6877 71.9709 53.2689C72.123 53.1105 72.279 52.9569 72.4432 52.8095C72.5044 52.7553 72.5668 52.7022 72.6315 52.6535L72.6612 52.6308C72.6721 52.623 72.6842 52.6152 72.6951 52.6067C72.6842 52.6074 72.6733 52.604 72.6647 52.5973H72.6787C72.6872 52.5987 72.6958 52.5995 72.7045 52.5996C72.7286 52.5766 72.7279 52.5915 72.7134 52.5996C72.7598 52.5996 72.8098 52.5961 72.8542 52.5961H75.9095C75.9465 52.5942 75.9814 52.5781 76.0069 52.5513C76.0324 52.5244 76.0467 52.4887 76.0467 52.4516C76.0467 52.4146 76.0324 52.3789 76.0069 52.352C75.9814 52.3251 75.9465 52.3091 75.9095 52.3071H72.8308C72.7782 52.3071 72.7236 52.3029 72.6709 52.3071C72.5974 52.3212 72.5296 52.3565 72.4759 52.4085C72.321 52.5282 72.1733 52.657 72.0337 52.7943C71.6515 53.1636 71.2985 53.5629 70.9526 53.9643C70.0037 55.0707 69.113 56.2263 68.2347 57.3896C67.3793 58.5219 66.5384 59.6646 65.7122 60.8177C65.4238 61.2179 65.1372 61.6192 64.8522 62.0217C64.7145 62.2167 64.5667 62.407 64.4384 62.6067L64.4333 62.6137C64.4233 62.6252 64.4154 62.6384 64.4099 62.6527C64.3991 62.6749 64.3958 62.7001 64.4006 62.7244V65.2142C64.4016 65.2522 64.4171 65.2883 64.4439 65.3151C64.4708 65.342 64.5069 65.3575 64.5449 65.3585L65.6416 65.4615L68.2616 65.7079L71.4432 66.0067L74.1837 66.2641L75.0885 66.3491C75.2317 66.3627 75.3775 66.3861 75.5214 66.39H75.5402C75.7254 66.4076 75.7242 66.117 75.5402 66.1011L74.4439 65.9981L71.8235 65.752L68.6422 65.4529L65.9013 65.1955L64.9969 65.1105C64.8971 65.1011 64.7925 65.0832 64.6896 65.0746V62.8641L65.6813 62.9378L68.3844 63.1382L71.6772 63.3824L74.5043 63.5918L75.4442 63.6616C75.5916 63.6725 75.7418 63.6928 75.89 63.6944H75.9091C76.0943 63.7096 76.0936 63.4206 75.9087 63.4069Z" fill="#6D458F"/>
<path d="M74.1129 65.1327L71.7577 64.9217L68.897 64.6655L66.4326 64.4452L65.616 64.3718C65.4877 64.3605 65.3566 64.3395 65.226 64.3371H65.2088C65.0236 64.3204 65.0247 64.6101 65.2088 64.6261L66.1947 64.7143L68.5499 64.9253L71.4106 65.1815L73.875 65.4022L74.6916 65.4752C74.82 65.4869 74.951 65.5075 75.0816 65.5103C75.0874 65.5099 75.0931 65.5099 75.0988 65.5103C75.2841 65.5266 75.2829 65.2373 75.0988 65.2209L74.1129 65.1327ZM75.8367 64.3344L74.8227 64.2463L72.3864 64.0345L69.452 63.7794L66.9139 63.5587L66.0699 63.4854C65.9385 63.4737 65.8043 63.453 65.6721 63.4507H65.6546C65.4693 63.4347 65.4701 63.7237 65.6546 63.7396L66.6686 63.8278L69.1053 64.0399L72.0397 64.295L74.5774 64.5158L75.4213 64.5891C75.5528 64.6004 75.6873 64.6214 75.8191 64.6238C75.8251 64.6234 75.8311 64.6234 75.8371 64.6238C76.0219 64.6398 76.0208 64.35 75.8367 64.3344Z" fill="#6D458F"/>
<path d="M52.5139 22.8825L55.4113 22.8677L58.2349 22.8532L60.1907 22.8431C60.3225 22.8431 60.4543 22.8431 60.5862 22.8411C60.8156 22.8463 61.0377 22.7606 61.2042 22.6028C61.3708 22.4449 61.4682 22.2277 61.4754 21.9984C61.482 21.574 61.4711 21.1489 61.4687 20.7246L61.4547 17.9989L61.4403 15.1808C61.4379 14.6761 61.4375 14.1718 61.4325 13.6672C61.4317 13.5515 61.4078 13.4371 61.3622 13.3307C61.3166 13.2244 61.2502 13.1282 61.167 13.0478C61.0837 12.9675 60.9852 12.9046 60.8773 12.8628C60.7694 12.821 60.6543 12.8012 60.5386 12.8045L59.5702 12.8314L57.2162 12.8969L54.2744 12.9784L51.5354 13.0564L49.8194 13.104C49.6974 13.1026 49.5754 13.1097 49.4544 13.1255C49.2486 13.1631 49.0633 13.2739 48.9329 13.4375C48.8025 13.6011 48.7357 13.8064 48.745 14.0154L48.7536 15.6882L48.7684 18.5609L48.7816 21.1556L48.7855 21.9012C48.7734 22.0333 48.7882 22.1664 48.8289 22.2925C48.8697 22.4187 48.9356 22.5353 49.0227 22.6352C49.3577 22.98 49.899 22.8977 50.3366 22.8957L52.5139 22.8825Z" fill="#CFF0FA"/>
<path d="M49.6315 30.2752C49.6354 29.8666 49.5346 29.4638 49.3386 29.1052C48.7628 29.1299 48.2137 29.355 47.7864 29.7418C47.3591 30.1285 47.0804 30.6524 46.9986 31.2229C46.9271 31.7841 47.0477 32.3529 47.3406 32.8367C47.3664 32.8344 47.3921 32.8328 47.4186 32.8301C48.0331 32.7416 48.595 32.4345 49.0014 31.9653C49.4079 31.496 49.6316 30.896 49.6315 30.2752Z" fill="#FE744F"/>
<path d="M46.9986 31.223C47.0804 30.6525 47.3591 30.1285 47.7864 29.7418C48.2138 29.3551 48.7628 29.1299 49.3386 29.1053C49.3046 29.0421 49.2676 28.9805 49.2279 28.9208C47.9654 27.034 44.8716 27.663 44.5666 29.9348C44.5267 30.2966 44.5625 30.6628 44.6716 31.01C44.7807 31.3573 44.9608 31.6781 45.2005 31.9521C45.4402 32.226 45.7342 32.4472 46.0639 32.6015C46.3936 32.7558 46.7517 32.8399 47.1156 32.8485C47.1909 32.8485 47.2658 32.8442 47.3407 32.838C47.0474 32.3537 46.9269 31.7845 46.9986 31.223Z" fill="#FFD35C"/>
<path d="M51.6599 30.2102C51.4077 29.8347 51.0591 29.534 50.6507 29.3396C50.2422 29.1452 49.789 29.0643 49.3386 29.1053C49.5346 29.4639 49.6354 29.8667 49.6315 30.2753C49.6315 30.8962 49.4077 31.4963 49.0011 31.9656C48.5946 32.4348 48.0324 32.7418 47.4178 32.8302C47.3921 32.8329 47.3664 32.8345 47.3398 32.8368C47.584 33.2752 47.9529 33.6311 48.3998 33.8594C48.8466 34.0878 49.3512 34.1781 49.8495 34.1191C50.464 34.0309 51.0262 33.724 51.4327 33.2548C51.8392 32.7856 52.0629 32.1855 52.0627 31.5646C52.0683 31.0828 51.9279 30.6106 51.6599 30.2102Z" fill="#FFD35C"/>
<path d="M57.3386 16.4163L54.4849 19.2753L52.6157 17.8542L50.4512 20.6965H59.5522L57.3386 16.4163Z" fill="#4FB3AA"/>
<path d="M53.0425 14.7283C52.8935 14.7283 52.7478 14.7725 52.6239 14.8553C52.5 14.938 52.4034 15.0557 52.3464 15.1934C52.2894 15.3311 52.2745 15.4826 52.3035 15.6287C52.3326 15.7749 52.4044 15.9092 52.5098 16.0145C52.6151 16.1199 52.7494 16.1917 52.8955 16.2208C53.0417 16.2498 53.1932 16.2349 53.3309 16.1779C53.4686 16.1208 53.5863 16.0243 53.669 15.9004C53.7518 15.7765 53.796 15.6308 53.796 15.4818C53.7958 15.282 53.7164 15.0904 53.5751 14.9492C53.4339 14.8079 53.2423 14.7285 53.0425 14.7283Z" fill="#F08385"/>
<path d="M42.5888 14.9394C42.8189 15.4608 42.4032 16.1273 42.6972 16.6164C43.0447 17.1939 44.0622 17.0064 44.4132 17.5808C44.7252 18.0945 44.2783 18.8745 44.6823 19.3202C44.7817 19.4128 44.89 19.4952 45.0057 19.5663C45.1837 19.6985 45.3263 19.8727 45.4206 20.0733C45.7615 19.7582 46.032 19.3747 46.2147 18.9479C46.3973 18.5211 46.488 18.0606 46.4806 17.5964C46.478 17.479 46.4688 17.3618 46.4529 17.2454C46.3511 16.4742 45.9942 15.7591 45.4391 15.2141C44.884 14.6691 44.1625 14.3254 43.3895 14.2378C42.8991 14.1983 42.4063 14.2751 41.9512 14.462C42.0875 14.4857 42.2164 14.5414 42.3272 14.6243C42.438 14.7073 42.5276 14.8152 42.5888 14.9394Z" fill="#59679C"/>
<path d="M45.4219 20.0748C45.3275 19.8742 45.1849 19.7 45.0069 19.5678C44.8912 19.4967 44.7829 19.4143 44.6836 19.3217C44.2796 18.876 44.7284 18.096 44.4145 17.5823C44.0635 17.0071 43.0444 17.1954 42.6985 16.6179C42.4044 16.1292 42.8202 15.4627 42.5901 14.9409C42.5286 14.8175 42.4391 14.7103 42.3286 14.6279C42.2181 14.5455 42.0898 14.4903 41.954 14.4666C41.3946 14.6901 40.9028 15.055 40.5268 15.5256C40.1508 15.9963 39.9035 16.5565 39.809 17.1514C39.809 17.1596 39.809 17.1674 39.8066 17.1756C39.9513 17.2902 40.1204 17.37 40.3008 17.4088C40.4812 17.4477 40.6682 17.4444 40.8472 17.3994C41.0052 17.3367 41.1741 17.3061 41.344 17.3093C41.6627 17.3589 41.8081 17.7196 41.9626 18.0027C41.9885 18.0586 42.0277 18.1072 42.0768 18.1443C42.1558 18.1836 42.2451 18.1972 42.3323 18.1833C42.7901 18.1584 43.3599 18.2613 43.4968 18.6966C43.5354 18.8736 43.5354 19.0569 43.4968 19.234C43.4229 19.7974 43.4335 20.3687 43.5284 20.9289C43.5284 20.9379 43.5319 20.9469 43.5335 20.9562L43.5534 20.9543C44.2543 20.8687 44.9092 20.5604 45.4219 20.0748Z" fill="#4FB3AA"/>
<path d="M43.4944 19.2317C43.533 19.0546 43.533 18.8713 43.4944 18.6943C43.3575 18.2571 42.7877 18.1561 42.3299 18.181C42.2427 18.195 42.1534 18.1813 42.0744 18.142C42.0253 18.1049 41.9861 18.0563 41.9601 18.0005C41.8041 17.7173 41.6602 17.3566 41.3416 17.307C41.1716 17.3038 41.0027 17.3345 40.8447 17.3971C40.6658 17.4422 40.4788 17.4454 40.2984 17.4066C40.1179 17.3677 39.9489 17.2879 39.8042 17.1733C39.7399 17.6803 39.7915 18.1952 39.9551 18.6794C40.1187 19.1635 40.3902 19.6042 40.7489 19.9682C41.1077 20.3321 41.5444 20.6099 42.0261 20.7805C42.5078 20.9512 43.022 21.0102 43.5299 20.9532C43.5299 20.9438 43.526 20.9348 43.5248 20.9259C43.4304 20.3658 43.4201 19.7948 43.4944 19.2317Z" fill="#59679C"/>
<path d="M55.0211 64.8179C54.6822 64.0719 54.3683 63.3137 54.05 62.5587C53.6962 61.7202 53.3444 60.8808 52.9947 60.0404L52.7724 59.5065C52.763 59.4766 52.7446 59.4503 52.7197 59.4313C52.6947 59.4123 52.6645 59.4015 52.6332 59.4005C51.5603 59.3665 50.4882 59.3576 49.4125 59.3505C48.014 59.3412 46.6156 59.3387 45.2173 59.3431C43.8084 59.346 42.3993 59.3518 40.9901 59.3607C39.8721 59.3677 38.7551 59.376 37.6392 59.3856C37.1221 59.3899 36.6014 59.3771 36.0847 59.4001H36.0624C36.031 59.4009 36.0007 59.4115 35.9757 59.4306C35.9507 59.4496 35.9323 59.4761 35.9232 59.5061L35.5441 60.5467C34.2057 60.5295 32.8667 60.5165 31.5271 60.5077C30.3551 60.5006 29.1832 60.4967 28.0117 60.496C27.4977 60.496 26.9786 60.4765 26.4649 60.496H26.4443C26.419 60.4959 26.3942 60.5024 26.3723 60.515C26.3504 60.5275 26.3322 60.5455 26.3195 60.5673C25.8515 61.4413 25.4591 62.3613 25.0559 63.2677C24.6107 64.2664 24.1725 65.2681 23.7412 66.273C23.6491 66.4862 23.5581 66.6998 23.4682 66.9138C23.3956 67.0827 23.6448 67.2301 23.7178 67.0597C23.9723 66.4617 24.2296 65.8659 24.4896 65.2723C24.9646 64.1803 25.4427 63.0922 25.9412 62.0123C26.1315 61.6001 26.3218 61.1863 26.534 60.785C26.926 60.7834 27.3183 60.7834 27.7106 60.785C28.8114 60.785 29.9124 60.7878 31.0135 60.7935C32.5589 60.8016 34.1044 60.8154 35.6498 60.8349C37.4103 60.8575 39.1709 60.8896 40.9316 60.9312C42.6593 60.9733 44.3874 61.0268 46.1139 61.1036L46.6084 61.1262C47.1061 62.6039 47.5544 64.0978 47.9528 65.6054C48.1176 66.2225 48.2652 66.8442 48.3954 67.4695C48.4325 67.6517 48.7113 67.5749 48.6743 67.3916C48.2343 65.3796 47.6813 63.3941 47.0179 61.4444C46.9644 61.2783 46.9096 61.1126 46.8537 60.9472C46.8446 60.9171 46.8263 60.8907 46.8013 60.8716C46.7763 60.8526 46.7459 60.8419 46.7145 60.8411C45.0012 60.7592 43.2868 60.7023 41.5724 60.6574C39.8088 60.6111 38.0449 60.5764 36.2808 60.5533L35.8518 60.5482L36.1662 59.6859L37.3362 59.675C38.4006 59.6651 39.4651 59.6569 40.5295 59.6504C41.9197 59.6416 43.3101 59.6351 44.7006 59.6309C46.1124 59.6276 47.5244 59.6287 48.9367 59.6345C50.0634 59.6403 51.1905 59.6485 52.3173 59.6778L52.5396 59.6844C52.7361 60.1568 52.9331 60.6288 53.1304 61.1005C53.5157 62.0216 53.9039 62.9419 54.2949 63.8613C54.4509 64.229 54.6069 64.5972 54.7743 64.9615C54.8484 65.1319 55.0972 64.9853 55.0211 64.8179Z" fill="#4FB3AA"/>
<path d="M32.6027 64.0158C33.1447 64.1514 33.7031 64.2098 34.2614 64.1893C35.4236 64.1698 36.5893 64.1133 37.7507 64.0587C38.313 64.0424 38.8729 63.9778 39.4242 63.8656C39.9597 63.7463 40.4577 63.5127 40.9873 63.3742C42.1963 63.0583 43.3909 63.6258 44.6014 63.6421C44.6385 63.6402 44.6733 63.6241 44.6989 63.5973C44.7244 63.5704 44.7386 63.5347 44.7386 63.4976C44.7386 63.4606 44.7244 63.4249 44.6989 63.398C44.6733 63.3711 44.6385 63.3551 44.6014 63.3531C43.5738 63.3391 42.5848 62.93 41.5524 62.9924C41.0524 63.0476 40.5627 63.173 40.0977 63.3648C39.598 63.542 39.0788 63.6589 38.5514 63.7131C38.0221 63.7677 37.4898 63.781 36.9586 63.8013L35.289 63.8652C34.7485 63.8859 34.2056 63.9206 33.6647 63.8925C33.1501 63.8486 32.6423 63.7452 32.1515 63.5844C31.8826 63.5015 31.6064 63.4444 31.3266 63.414C31.0439 63.3963 30.7601 63.4193 30.4838 63.4822C30.2053 63.552 29.9216 63.5999 29.6356 63.6254C29.5246 63.6466 29.4098 63.6307 29.3088 63.5801C29.284 63.5601 29.2628 63.5361 29.246 63.5091C29.3801 63.4487 29.3017 63.2128 29.1329 63.2416C29.0923 63.2503 29.0546 63.269 29.0231 63.296C28.9916 63.3229 28.9673 63.3573 28.9523 63.396C28.9374 63.4347 28.9323 63.4764 28.9376 63.5176C28.9428 63.5587 28.9582 63.5979 28.9823 63.6316C29.0252 63.7112 29.0877 63.7786 29.164 63.8272C29.2403 63.8758 29.3277 63.904 29.418 63.9093C29.964 63.9557 30.4823 63.7209 31.0228 63.6952C31.5629 63.7193 32.0959 63.8275 32.6027 64.0158ZM44.8787 65.1394C42.9022 65.0465 40.9245 64.9241 38.9464 64.8788C37.9627 64.8492 36.9782 64.8718 35.9969 64.9467C35.0262 65.0278 34.0636 65.1807 33.1011 65.3254C32.0213 65.5076 30.9315 65.6248 29.8376 65.6764C29.652 65.6818 29.6512 65.9712 29.8376 65.9654C31.7845 65.9073 33.69 65.4677 35.6233 65.272C37.5936 65.1261 39.572 65.1261 41.5423 65.272L44.8787 65.428C45.0648 65.4373 45.0644 65.1483 44.8787 65.1394ZM49.0857 62.166C49.6579 61.9264 50.2784 61.8245 50.8972 61.8684C51.0829 61.8817 51.0821 61.5927 50.8972 61.5794C50.2524 61.5337 49.6058 61.6391 49.0088 61.8871C48.9725 61.8984 48.9419 61.923 48.9231 61.9561C48.9044 61.9891 48.8989 62.0281 48.9078 62.065C48.9181 62.1019 48.9426 62.1332 48.9759 62.1522C49.0092 62.1711 49.0487 62.176 49.0857 62.166ZM52.6608 63.0575L49.1235 63.3184C48.939 63.3321 48.9375 63.6215 49.1235 63.6078L52.6608 63.3465C52.8437 63.3329 52.8468 63.0439 52.6608 63.0575ZM51.3855 65.0734H50.1063C50.0693 65.0754 50.0344 65.0914 50.0089 65.1183C49.9834 65.1452 49.9691 65.1809 49.9691 65.2179C49.9691 65.255 49.9834 65.2907 50.0089 65.3176C50.0344 65.3444 50.0693 65.3605 50.1063 65.3624H51.3855C51.4225 65.3605 51.4574 65.3444 51.4829 65.3176C51.5085 65.2907 51.5227 65.255 51.5227 65.2179C51.5227 65.1809 51.5085 65.1452 51.4829 65.1183C51.4574 65.0914 51.4225 65.0754 51.3855 65.0734Z" fill="#4FB3AA"/>
<path d="M30.3848 34.5895L30.0174 33.6445L29.8427 33.196L29.7187 33.274L29.5947 33.352L29.0183 33.7123C28.9991 33.7232 28.9777 33.7296 28.9557 33.731C28.9336 33.7325 28.9116 33.7289 28.8912 33.7205C28.8707 33.7122 28.8525 33.6993 28.8377 33.6829C28.823 33.6665 28.8122 33.647 28.8061 33.6258C28.801 33.6094 28.7971 33.593 28.7928 33.5766L28.787 33.5544C28.7741 33.5084 28.762 33.462 28.7499 33.4156L28.7332 33.3535C28.6981 33.4003 28.663 33.4475 28.6267 33.4936C28.2621 33.9575 27.8453 34.378 27.3845 34.7466C27.3872 34.7603 27.392 34.7734 27.3986 34.7856L27.6852 35.2848C27.7905 35.4673 27.8834 35.6698 28.0054 35.8414C28.0803 35.947 28.2675 35.9868 28.3806 36.0364L29.1454 36.3636L29.6707 36.5878C29.69 36.5983 29.7113 36.6044 29.7332 36.6057C29.7551 36.6069 29.7769 36.6033 29.7973 36.5951C29.8176 36.5868 29.8358 36.5741 29.8506 36.558C29.8654 36.5418 29.8764 36.5226 29.8829 36.5016L30.4862 35.029C30.5443 34.8847 30.4363 34.7217 30.3848 34.5895ZM28.287 29.89C28.2901 29.8634 28.2936 29.8369 28.2975 29.812L28.3104 29.7363L26.8085 27.0527C26.9003 26.9027 26.9645 26.7375 26.9981 26.5648C27.0439 26.3795 27.0791 26.1918 27.1034 26.0024C27.01 25.9676 26.918 25.9292 26.8276 25.8874C26.5052 25.738 26.1889 25.5757 25.8795 25.4011L25.8043 25.3582L25.6822 25.5493L25.2173 26.2743L25.135 26.403L25.0527 26.5317L25.1307 26.6331L25.3546 26.9275C25.3994 26.9887 25.4623 27.0343 25.5344 27.0578C25.6627 27.1042 25.8023 27.1529 25.9454 27.19L26.4021 30.7132L26.4489 30.7004L26.4961 30.6879C27.0751 30.5355 27.6638 30.4225 28.2581 30.3498C28.259 30.1961 28.2686 30.0425 28.287 29.89Z" fill="#6E458F"/>
<path d="M32.5131 32.932C32.5079 32.9073 32.4955 32.8847 32.4775 32.867C32.4594 32.8494 32.4365 32.8375 32.4117 32.8329L32.2947 32.8505C32.2702 32.868 32.2513 32.8923 32.2403 32.9204C32.2293 32.9485 32.2266 32.9792 32.2327 33.0088C32.3984 34.2407 32.5572 35.4736 32.7093 36.7076C32.7315 36.8897 33.0213 36.892 32.9983 36.7076C32.8444 35.4479 32.6827 34.1893 32.5131 32.932ZM29.9103 24.4834C29.9122 24.5204 29.9283 24.5553 29.9552 24.5808C29.982 24.6063 30.0177 24.6206 30.0548 24.6206C30.0919 24.6206 30.1275 24.6063 30.1544 24.5808C30.1813 24.5553 30.1973 24.5204 30.1993 24.4834C30.1322 21.4125 30.113 18.3412 30.1416 15.2693C30.1494 14.4053 30.1612 13.5414 30.177 12.6777C30.1751 12.6407 30.1591 12.6058 30.1322 12.5803C30.1053 12.5548 30.0696 12.5405 30.0325 12.5405C29.9955 12.5405 29.9598 12.5548 29.9329 12.5803C29.906 12.6058 29.89 12.6407 29.8881 12.6777C29.8327 15.7491 29.825 18.8206 29.865 21.8922C29.8765 22.756 29.8916 23.6197 29.9103 24.4834Z" fill="#4EB3AA"/>
<path d="M37.3838 21.489L37.358 21.471L37.1681 21.3384L34.7922 19.6794L34.6385 19.5725L34.4529 19.4426L34.4213 19.4208C34.3976 19.4019 34.3676 19.3928 34.3374 19.3953C34.3072 19.3978 34.279 19.4116 34.2587 19.4341C34.2345 19.4495 34.2163 19.4729 34.2073 19.5001C34.1982 19.5274 34.1987 19.5569 34.2088 19.5838C34.2365 19.672 34.2696 19.7585 34.3047 19.8439C33.619 20.6574 32.9934 21.5196 32.4327 22.4238C31.7986 23.4035 31.1939 24.4016 30.6188 25.4182C30.3112 25.9621 30.0122 26.5111 29.7218 27.0652C29.2264 26.0355 28.4626 25.1583 27.5109 24.5259C27.501 24.5193 27.4904 24.514 27.4793 24.5099C27.4101 24.3266 27.2836 24.1706 27.1186 24.0649C26.8758 23.9132 26.598 23.8266 26.312 23.8134V23.8219C26.3617 24.1043 26.3557 24.3936 26.2945 24.6737C26.244 24.841 26.1344 24.9842 25.986 25.0766C25.9352 25.11 25.8822 25.1398 25.8273 25.1659C25.744 25.2042 25.6589 25.2383 25.5722 25.2681C25.0722 25.4232 24.5514 25.5009 24.0278 25.4986C23.8344 25.5287 23.6365 25.5094 23.4526 25.4424C23.2665 25.3293 23.2096 25.0454 23.1686 24.8504C23.1659 24.8375 23.1644 24.8242 23.1616 24.8114C22.7559 25.0762 22.4611 25.4803 22.3329 25.9474C22.3205 25.9947 22.3179 26.0439 22.3252 26.0922C22.3325 26.1405 22.3496 26.1868 22.3754 26.2282C22.0719 26.4928 21.8054 26.7972 21.5833 27.133C21.2312 27.6968 20.9658 28.3102 20.7959 28.9528C20.4309 30.2291 20.3497 31.5698 20.558 32.8809C20.7159 33.8789 21.026 35.0965 21.9179 35.6811V36.6104C21.9169 36.63 21.9199 36.6497 21.9267 36.6681C21.9335 36.6865 21.944 36.7033 21.9575 36.7176C21.971 36.7318 21.9873 36.7431 22.0053 36.7509C22.0233 36.7586 22.0428 36.7626 22.0624 36.7626C22.082 36.7626 22.1015 36.7586 22.1195 36.7509C22.1375 36.7431 22.1538 36.7318 22.1673 36.7176C22.1809 36.7033 22.1913 36.6865 22.1981 36.6681C22.2049 36.6497 22.2079 36.63 22.2069 36.6104V35.841H22.2092C22.7784 36.0529 23.3896 36.1276 23.9931 36.059C24.6844 36.0428 25.3659 35.8918 25.9993 35.6144C26.492 35.3786 26.9558 35.0866 27.3814 34.7443C27.8428 34.3762 28.2602 33.9563 28.6255 33.4928C28.6618 33.4468 28.6969 33.3996 28.732 33.3528L28.7488 33.4148C28.7609 33.4612 28.7729 33.5076 28.7858 33.5536L28.7917 33.5758C28.796 33.5922 28.7999 33.6086 28.8049 33.625C28.811 33.6462 28.8218 33.6657 28.8366 33.6821C28.8513 33.6986 28.8696 33.7114 28.89 33.7197C28.9104 33.7281 28.9325 33.7317 28.9545 33.7303C28.9765 33.7288 28.9979 33.7225 29.0171 33.7116L29.5935 33.3512L29.7175 33.2732L29.8415 33.1952L30.1106 33.0271C30.1429 33.007 30.1662 32.9753 30.1758 32.9386C30.1855 32.9018 30.1807 32.8627 30.1625 32.8294L28.7909 29.9824L28.5959 29.5748C28.5851 29.5472 28.5642 29.5246 28.5374 29.5118C28.5106 29.499 28.4799 29.4968 28.4516 29.5058C28.4226 29.5059 28.3946 29.5164 28.3726 29.5354C28.3507 29.5543 28.3362 29.5805 28.3319 29.6092C28.3229 29.6509 28.3174 29.6926 28.3104 29.7343C28.3061 29.7597 28.301 29.7847 28.2975 29.81L28.287 29.888C28.269 30.0406 28.2597 30.1941 28.2593 30.3478C27.665 30.4206 27.0763 30.5335 26.4973 30.6859L26.4501 30.6984L26.4033 30.7113C25.6465 30.9137 24.9223 31.2227 24.2525 31.629C24.2088 31.6559 24.1667 31.6851 24.1238 31.7132C23.8696 30.5226 23.5098 29.3571 23.0485 28.2305C22.9791 28.0609 22.6975 28.135 22.7701 28.3085C23.2437 29.4673 23.6102 30.667 23.8648 31.8926C23.6461 32.0498 23.4377 32.2209 23.2408 32.4047C23.1047 32.5322 23.3094 32.7362 23.4452 32.609C23.5987 32.4654 23.76 32.3304 23.9284 32.2046C23.9627 32.3822 23.9947 32.56 24.0243 32.7381C24.0543 32.921 24.3328 32.8434 24.3028 32.6601C24.2677 32.446 24.2279 32.2311 24.1858 32.0197C25.1467 31.4036 26.2205 30.9846 27.3448 30.787C27.6506 30.7268 27.9583 30.677 28.2675 30.6376C28.2827 30.9441 28.3209 31.2503 28.3638 31.5482C28.4333 32.0314 28.5296 32.5111 28.6431 32.9862C28.0397 33.8432 27.2613 34.5623 26.3592 35.0961C25.7989 35.439 25.1704 35.6551 24.5177 35.7294C23.9248 35.8206 23.3209 35.8138 22.7303 35.7091C22.468 35.6517 22.2206 35.5405 22.0034 35.3826C21.7863 35.2247 21.6042 35.0236 21.4686 34.7919C21.1924 34.2933 21.0034 33.7512 20.9098 33.189C20.6622 31.9672 20.6789 30.7065 20.9589 29.4918C21.1069 28.7977 21.3556 28.1291 21.6972 27.5071C21.9295 27.1025 22.2281 26.7399 22.5805 26.4342C23.0622 26.77 24.0933 26.9201 24.5414 26.9716C24.6055 26.979 24.6703 26.9683 24.7285 26.9407C24.7868 26.9131 24.8361 26.8698 24.871 26.8156L25.052 26.5321L25.1342 26.4034L25.2165 26.2747L25.6814 25.5477L25.8035 25.3566L25.8788 25.3995C26.0437 25.4919 26.4521 25.717 26.8268 25.8858C26.8733 25.9069 26.9193 25.9248 26.9641 25.9459C27.009 25.9669 27.0577 25.9849 27.1026 26.0009C27.3167 26.0816 27.4895 26.1214 27.5499 26.0711C27.6689 25.9732 27.7118 25.449 27.6139 24.9522C28.4737 25.5921 29.1497 26.4474 29.5736 27.4318C29.6337 27.5706 29.81 27.4989 29.8337 27.3756C29.8529 27.3716 29.8709 27.3631 29.8863 27.3509C29.9016 27.3388 29.914 27.3232 29.9223 27.3054C30.9788 25.2596 32.1642 23.2828 33.4713 21.3872C33.7715 20.9523 34.0936 20.533 34.4365 20.131C34.6506 20.5258 34.8998 20.9005 35.181 21.2507C35.5416 21.7157 35.9261 22.1615 36.3331 22.5864C36.2009 22.9803 36.0784 23.3777 35.9326 23.767C35.76 24.2237 35.5688 24.6731 35.3593 25.114C34.9427 25.995 34.4658 26.8456 33.9689 27.6833C33.6901 28.1537 33.4046 28.6193 33.1187 29.0873C33.0216 29.2465 33.2712 29.3919 33.3683 29.2332C34.4413 27.5911 35.3662 25.857 36.1322 24.0513C36.2906 23.6457 36.422 23.2323 36.5589 22.8193L36.5889 22.8497C36.6047 22.8651 36.6237 22.8767 36.6446 22.8837C36.6655 22.8907 36.6877 22.8928 36.7095 22.89C36.7313 22.8872 36.7523 22.8795 36.7707 22.8674C36.7891 22.8554 36.8046 22.8393 36.8159 22.8204L37.4337 21.6894C37.4531 21.6561 37.4587 21.6165 37.4494 21.5791C37.4401 21.5416 37.4165 21.5093 37.3838 21.489Z" fill="#4EB3AA"/>
<path d="M29.5645 29.6431C29.6394 29.6513 29.7139 29.6571 29.7888 29.6587C30.0113 29.6628 30.2336 29.6428 30.4518 29.599C30.67 29.5549 30.8847 29.4953 31.0945 29.4208C31.2771 29.3342 31.4721 29.2765 31.6725 29.25C31.7633 29.2461 31.853 29.2713 31.9287 29.3217C32.0043 29.3722 32.0619 29.4454 32.0933 29.5308C32.1203 29.6177 32.1276 29.7096 32.1146 29.7997C32.1016 29.8898 32.0688 29.976 32.0184 30.0518C31.9475 30.1715 31.8615 30.2816 31.7626 30.3794L31.8838 30.3544C31.9979 30.3171 32.1219 30.3238 32.2313 30.3732C32.2759 30.4007 32.3143 30.4371 32.3442 30.4801C32.3741 30.5231 32.3949 30.5718 32.4053 30.6232C32.4223 30.7526 32.4004 30.8842 32.3422 31.0012C32.2841 31.1181 32.1924 31.215 32.0788 31.2795C32.1349 31.2824 32.1894 31.2987 32.2379 31.327C32.2863 31.3553 32.3273 31.3948 32.3573 31.4422C32.5215 31.7249 32.1015 31.9764 31.9069 32.1051C31.4302 32.4171 30.8682 32.5729 30.2989 32.5509L30.4549 33.1312L32.298 32.8512L32.415 32.8337L32.9661 32.7498L32.8549 27.3585C31.7766 27.8717 29.5645 28.1985 29.5645 28.1985V29.6431ZM66.494 55.3074L62.9345 40.5826C62.9208 40.5917 62.9056 40.5983 62.8896 40.6021C62.8786 40.6051 62.8672 40.6065 62.8557 40.6064H62.8409C62.578 40.6001 62.3149 40.5944 62.0515 40.5892C60.6557 40.5619 59.2595 40.5467 57.8633 40.5346C56.0857 40.519 54.3078 40.5087 52.5297 40.5038C50.4946 40.4968 48.4596 40.4931 46.4246 40.4929C44.257 40.4929 42.0892 40.4943 39.9214 40.4972C37.7454 40.5005 35.5696 40.5057 33.3939 40.5128C31.3345 40.519 29.2749 40.5264 27.2152 40.535C25.3965 40.5428 23.5779 40.5511 21.7594 40.56L17.3996 40.583L14.507 40.599L13.4657 40.6056H13.4606C13.4458 40.6055 13.4311 40.6033 13.417 40.599C13.4011 40.5947 13.3863 40.5874 13.3733 40.5775L8.64296 55.5496L8.64062 57.3339H8.68859C9.0548 57.3362 33.2937 57.486 50.2794 57.486C58.8461 57.486 65.5674 57.447 66.4503 57.3335L66.487 57.3288L66.4917 57.2921C66.5014 57.2321 66.689 55.7988 66.494 55.3074Z" fill="#FF8684"/>
<path d="M29.3406 29.2801C29.3107 28.8929 29.3012 28.5044 29.3122 28.1163C29.3122 28.0699 29.3149 28.0231 29.3168 27.9767C29.3168 27.9576 29.3168 27.9377 29.3196 27.9197C29.3859 27.9076 29.5173 27.8698 29.5407 27.8647C29.7341 27.8226 29.9271 27.7792 30.1195 27.7345C30.8828 27.5585 31.6418 27.3661 32.3963 27.1573C32.4333 27.1469 32.4646 27.1223 32.4835 27.0889C32.5023 27.0554 32.5071 27.0158 32.4967 26.9789C32.4864 26.9419 32.4618 26.9105 32.4283 26.8917C32.3948 26.8729 32.3553 26.8681 32.3183 26.8784C31.4949 27.1062 30.6665 27.3142 29.8332 27.5024C29.6339 27.5477 29.4276 27.5804 29.231 27.635C29.0345 27.6896 29.0318 27.8437 29.0251 28.0219C29.0096 28.441 29.018 28.8607 29.0505 29.2789C29.0657 29.4645 29.3547 29.4661 29.3406 29.2801ZM36.1083 14.1048C35.9749 13.9753 35.7706 14.1793 35.9039 14.3091L37.0642 15.4374C37.1976 15.5673 37.4023 15.3629 37.2686 15.233L36.1083 14.1048ZM38.6211 12.973C38.6009 12.9417 38.5694 12.9194 38.5331 12.9107C38.4969 12.9021 38.4587 12.9077 38.4265 12.9265C38.3943 12.9453 38.3707 12.9758 38.3604 13.0117C38.3502 13.0475 38.3541 13.0859 38.3715 13.1188C38.5759 13.4413 38.8064 13.7465 39.0606 14.0314C39.0878 14.0583 39.1245 14.0734 39.1628 14.0734C39.201 14.0734 39.2377 14.0583 39.265 14.0314C39.2913 14.0039 39.306 13.9673 39.306 13.9293C39.306 13.8912 39.2913 13.8546 39.265 13.8271C39.0268 13.5609 38.8114 13.2752 38.6211 12.973ZM42.5394 12.1727C42.5025 12.1629 42.4632 12.168 42.43 12.1868C42.3968 12.2056 42.3722 12.2367 42.3616 12.2733L42.2056 13.2316C42.1963 13.2685 42.2017 13.3076 42.2205 13.3407C42.2393 13.3738 42.2701 13.3984 42.3066 13.4094C42.3435 13.4191 42.3828 13.414 42.4161 13.3951C42.4493 13.3763 42.4739 13.3451 42.4844 13.3084L42.6404 12.3502C42.6496 12.3133 42.6443 12.2742 42.6255 12.2412C42.6067 12.2081 42.5758 12.1836 42.5394 12.1727Z" fill="#FF8684"/>
<path d="M44.5711 50.4894C44.4885 50.191 44.3873 49.8981 44.2681 49.6123C44.2084 49.4754 44.1211 49.2496 43.9507 49.2325C43.7295 49.2102 43.4959 49.229 43.274 49.227C42.026 49.2171 40.7787 49.2089 39.532 49.2024C37.9436 49.1939 36.3551 49.1894 34.7665 49.1892C33.7026 49.1892 32.6344 49.1751 31.5713 49.2231C31.5178 49.2258 31.4648 49.2286 31.4114 49.2325C31.3863 49.2339 31.3621 49.2418 31.3411 49.2555C31.3201 49.2692 31.303 49.2881 31.2916 49.3105C31.2782 49.3302 31.2698 49.353 31.2671 49.3768L31.0682 50.9512L30.7492 53.4741L30.6766 54.0501C30.6665 54.1281 30.7507 54.194 30.8209 54.1948C31.2416 54.1998 31.6624 54.2043 32.0833 54.2085C33.1158 54.2189 34.148 54.2281 35.1799 54.2362C36.4745 54.2458 37.7688 54.2529 39.0628 54.2576C40.2796 54.2615 41.4968 54.2627 42.714 54.2541C43.5115 54.2483 44.313 54.249 45.1086 54.205C45.1616 54.2022 45.215 54.1987 45.2685 54.1948C45.2905 54.1943 45.3122 54.1889 45.3319 54.1788C45.3516 54.1688 45.3687 54.1545 45.3821 54.1369C45.3955 54.1193 45.4047 54.099 45.4092 54.0773C45.4136 54.0557 45.4131 54.0333 45.4077 54.0119C45.1702 52.8306 44.9108 51.6462 44.5711 50.4894Z" fill="#F9D0D2"/>
<path d="M59.6273 46.5215L60.2903 46.5309C60.3273 46.529 60.3622 46.5129 60.3877 46.486C60.4132 46.4591 60.4275 46.4235 60.4275 46.3864C60.4275 46.3493 60.4132 46.3137 60.3877 46.2868C60.3622 46.2599 60.3273 46.2438 60.2903 46.2419C59.2076 46.2255 58.1247 46.2134 57.0416 46.2056C55.5596 46.1929 54.0776 46.1825 52.5956 46.1744C51.5915 46.1682 50.5873 46.1631 49.5832 46.1592C49.6074 45.8363 49.6386 45.5142 49.6671 45.1936C49.6834 45.0083 49.3941 45.0095 49.3781 45.1936C49.3496 45.5134 49.3184 45.8355 49.2942 46.1577L47.2662 46.1475C45.3201 46.139 43.3739 46.1313 41.4275 46.1245C39.4393 46.118 37.4503 46.1119 35.4605 46.1062C33.5311 46.1007 31.6017 46.0958 29.6725 46.0914L27.1539 46.0859C27.2428 45.6699 27.3329 45.2539 27.4242 44.8379L27.5205 44.4011L28.6812 44.4038C30.5079 44.4077 32.3348 44.4123 34.1618 44.4175L39.9451 44.435C41.8431 44.4415 43.7411 44.4488 45.6391 44.4569C47.4097 44.4644 49.1805 44.473 50.9513 44.4826C52.4708 44.4912 53.9903 44.5013 55.51 44.513C56.6598 44.5224 57.8094 44.5341 58.9588 44.5481C59.1731 44.5507 59.387 44.5539 59.6008 44.5575C59.6391 44.5575 59.6759 44.5423 59.7031 44.5151C59.7302 44.488 59.7454 44.4512 59.7454 44.4128C59.7454 44.3744 59.7302 44.3376 59.7031 44.3105C59.6759 44.2834 59.6391 44.2681 59.6008 44.2681C58.5524 44.2517 57.5041 44.2397 56.4558 44.2319C55.0206 44.2189 53.5853 44.2085 52.1498 44.2007C50.4299 44.19 48.71 44.181 46.9901 44.1737C45.1059 44.1652 43.2218 44.1576 41.3378 44.1511C39.4138 44.1441 37.4888 44.1379 35.5627 44.1324C33.6949 44.1269 31.8272 44.122 29.9596 44.1176L24.9173 44.1067L22.8362 44.1028L22.8639 44.0213C22.9224 43.8515 22.9813 43.6825 23.0406 43.5143C23.1022 43.338 22.823 43.2627 22.7617 43.4363C22.6837 43.6578 22.6089 43.8801 22.532 44.102L20.738 44.0985L17.7881 44.0938C17.3314 44.0938 16.8727 44.0813 16.4157 44.0938H16.3564C16.3194 44.0957 16.2845 44.1118 16.259 44.1387C16.2334 44.1656 16.2192 44.2012 16.2192 44.2383C16.2192 44.2754 16.2334 44.311 16.259 44.3379C16.2845 44.3648 16.3194 44.3809 16.3564 44.3828H17.3006L19.889 44.3871C20.7371 44.3871 21.5852 44.3886 22.4334 44.3918C22.3803 44.5478 22.3261 44.701 22.2735 44.8559C22.1346 45.2622 21.9971 45.6693 21.8608 46.0769L20.1448 46.0738L17.0978 46.0691C16.6259 46.0691 16.152 46.0563 15.6801 46.0691H15.6189C15.5819 46.0711 15.547 46.0871 15.5215 46.114C15.4959 46.1409 15.4817 46.1766 15.4817 46.2136C15.4817 46.2507 15.4959 46.2864 15.5215 46.3133C15.547 46.3401 15.5819 46.3562 15.6189 46.3581H16.5939L19.2677 46.3624L21.7637 46.3667C21.6304 46.7697 21.4992 47.1735 21.3702 47.5781L21.3055 47.7844L19.4795 47.7754L17.3778 47.7668L15.9005 47.7613C15.6692 47.7613 15.4375 47.7532 15.2067 47.759H15.1782C15.1412 47.7609 15.1063 47.777 15.0808 47.8039C15.0552 47.8308 15.041 47.8664 15.041 47.9035C15.041 47.9406 15.0552 47.9762 15.0808 48.0031C15.1063 48.03 15.1412 48.0461 15.1782 48.048H15.6536L16.955 48.0527L18.9222 48.0605C19.6874 48.0636 20.4523 48.0672 21.217 48.0714C21.139 48.3288 21.061 48.5874 20.9915 48.8475C20.9812 48.8845 20.986 48.9241 21.0048 48.9575C21.0236 48.991 21.055 49.0156 21.092 49.0259C21.1289 49.0363 21.1685 49.0315 21.202 49.0127C21.2354 48.9938 21.26 48.9625 21.2704 48.9255C21.3484 48.64 21.4307 48.3569 21.5173 48.0741C22.3888 48.0783 23.2607 48.0831 24.133 48.0886C24.9034 48.0932 25.6736 48.0984 26.4437 48.1042C26.4227 48.2114 26.4008 48.3183 26.3802 48.4255C26.2963 48.8469 26.2222 49.2702 26.1579 49.695C26.1313 49.8771 26.4098 49.9555 26.4363 49.773C26.5174 49.2153 26.6231 48.6607 26.7347 48.1073L27.042 48.1096C27.9967 48.1166 28.9512 48.1246 29.9054 48.1334C30.7961 48.142 31.6866 48.1516 32.5769 48.1623C33.3382 48.1721 34.0992 48.1835 34.8599 48.1962C35.4406 48.2063 36.0214 48.218 36.6021 48.2352C36.7089 48.2383 36.8158 48.2418 36.9226 48.2457C37.1087 48.2524 37.1083 47.9634 36.9226 47.9567C36.3954 47.938 35.8696 47.9267 35.3404 47.9177C34.6189 47.9032 33.8973 47.8915 33.1755 47.8826C32.3105 47.8709 31.4454 47.8609 30.5801 47.8526C29.6371 47.8432 28.6939 47.8349 27.7506 47.8277L26.7928 47.8206L26.9 47.2969C26.9632 46.9911 27.0274 46.6853 27.0927 46.3796L28.3493 46.3819C30.2366 46.3863 32.1238 46.391 34.0109 46.396C36.0022 46.4014 37.9936 46.4073 39.9849 46.4135C40.9308 46.4166 41.8763 46.4201 42.8214 46.424C42.766 47.0383 42.7044 47.6584 42.7044 48.275C42.7063 48.312 42.7224 48.3469 42.7493 48.3724C42.7762 48.3979 42.8118 48.4122 42.8489 48.4122C42.886 48.4122 42.9216 48.3979 42.9485 48.3724C42.9754 48.3469 42.9915 48.312 42.9934 48.275C42.9934 47.6588 43.0534 47.0391 43.1104 46.4248L45.8685 46.435C47.0031 46.4396 48.1379 46.4451 49.2728 46.4513C49.2583 46.6912 49.2494 46.931 49.2498 47.1701C49.2517 47.2071 49.2677 47.242 49.2946 47.2675C49.3215 47.2931 49.3572 47.3073 49.3943 47.3073C49.4313 47.3073 49.467 47.2931 49.4939 47.2675C49.5208 47.242 49.5368 47.2071 49.5388 47.1701C49.5388 46.9314 49.5473 46.692 49.5618 46.4525L51.3558 46.4611C52.9256 46.4697 54.4953 46.4798 56.0646 46.4915C57.2523 46.4975 58.4399 46.5075 59.6273 46.5215ZM26.5007 47.814L24.8334 47.8019C23.8943 47.7962 22.9549 47.7907 22.0153 47.7855H21.6062C21.7466 47.3398 21.894 46.8959 22.0406 46.4529L22.0695 46.3667L23.3081 46.369C24.4703 46.3709 25.6325 46.3732 26.7947 46.3761C26.6939 46.8542 26.5958 47.3335 26.5007 47.814ZM26.8567 46.0855L24.4629 46.0801L22.1662 46.0762C22.3542 45.5133 22.5448 44.9514 22.738 44.3906H23.7999L27.2241 44.398C27.0993 44.9593 26.9769 45.5218 26.8567 46.0855Z" fill="#F9D0D2"/>
<path d="M46.4402 47.8343C45.7838 47.8319 45.1192 47.8191 44.4648 47.876C44.2807 47.892 44.2792 48.1814 44.4648 48.165C45.1192 48.1081 45.7838 48.1213 46.4402 48.1233C46.4772 48.1214 46.5121 48.1053 46.5376 48.0784C46.5631 48.0515 46.5773 48.0159 46.5773 47.9788C46.5773 47.9417 46.5631 47.906 46.5376 47.8792C46.5121 47.8523 46.4772 47.8362 46.4402 47.8343ZM51.0667 47.8343C50.2309 47.8216 49.3948 47.8243 48.559 47.8425C48.309 47.8487 48.0587 47.8561 47.8095 47.876C47.6254 47.8908 47.6238 48.1802 47.8095 48.165C48.7876 48.087 49.7801 48.1128 50.7606 48.1206L51.0667 48.1233C51.1038 48.1214 51.1386 48.1053 51.1642 48.0784C51.1897 48.0515 51.2039 48.0159 51.2039 47.9788C51.2039 47.9417 51.1897 47.906 51.1642 47.8792C51.1386 47.8523 51.1038 47.8362 51.0667 47.8343ZM60.9302 47.8284C60.1771 47.8139 59.4238 47.8032 58.6706 47.7965C57.2276 47.782 55.7846 47.7758 54.3443 47.8011C53.691 47.8124 53.0366 47.8269 52.3849 47.876C52.2005 47.8901 52.1989 48.1791 52.3849 48.165C53.6719 48.0679 54.9683 48.0757 56.2572 48.0741C57.5462 48.0726 58.8402 48.0843 60.1315 48.1038C60.3977 48.1077 60.664 48.1122 60.9302 48.1174C60.9672 48.1155 61.0021 48.0994 61.0276 48.0726C61.0532 48.0457 61.0674 48.01 61.0674 47.9729C61.0674 47.9359 61.0532 47.9002 61.0276 47.8733C61.0021 47.8464 60.9672 47.8304 60.9302 47.8284Z" fill="#F9D0D2"/>
<path d="M10.8029 61.6723L9.85915 60.6454L7.73404 58.3327L5.49232 55.8929L4.17295 54.4553C4.02739 54.3348 3.85791 54.2465 3.6757 54.1964L2.80795 53.8317L2.87035 53.8707L2.74789 53.9624L2.61529 54.0622L2.44564 54.1894L2.32318 54.281L2.21437 54.3625C2.21437 54.3625 2.19292 54.3188 2.16211 54.2514L2.36842 54.9007L2.56693 55.5247C2.58124 55.583 2.60783 55.6375 2.64493 55.6846C3.00919 56.0984 3.39061 56.4978 3.76306 56.9041L5.91079 59.2469L8.04799 61.5787C8.41771 61.9816 8.77339 62.4063 9.16105 62.7924L9.17704 62.8099C9.19329 62.8281 9.21418 62.8416 9.23749 62.8489L9.24958 62.8524H9.25582C9.27249 62.8555 9.28961 62.8551 9.30616 62.8515C9.3227 62.8478 9.33834 62.8408 9.35215 62.831L10.7729 61.895C10.791 61.8835 10.8063 61.8682 10.8178 61.8502C10.8293 61.8321 10.8368 61.8118 10.8397 61.7906C10.8425 61.7694 10.8407 61.7478 10.8344 61.7274C10.828 61.707 10.8173 61.6881 10.8029 61.6723Z" fill="#FFD35E"/>
<path d="M23.8791 17.4658H23.8682C23.8245 17.472 23.7757 17.4791 23.7246 17.4872C23.6735 17.4954 23.6248 17.5032 23.5686 17.5134C22.4454 17.7177 20.2252 18.4439 21.0457 21.5327C21.0457 21.5327 20.1604 21.2866 20.0617 21.8447C19.9631 22.4028 20.3406 23.1894 21.6362 22.7628C21.9108 23.022 22.2177 23.2449 22.5492 23.4258C22.5952 23.45 22.642 23.4734 22.6896 23.4956C22.7371 23.5178 22.7898 23.5408 22.8409 23.5607C22.9052 23.5857 22.97 23.6079 23.0359 23.6266C23.046 24.0246 23.0889 24.421 23.1642 24.8118C23.1669 24.8247 23.1685 24.838 23.1712 24.8508C23.2102 25.0458 23.2691 25.3298 23.4551 25.4429C23.6391 25.5098 23.837 25.5291 24.0304 25.499C24.5539 25.5014 25.0748 25.4236 25.5748 25.2685C25.6615 25.2388 25.7466 25.2047 25.8299 25.1663C25.8848 25.1403 25.9378 25.1105 25.9886 25.077C26.1369 24.9847 26.2466 24.8415 26.2971 24.6742C26.3583 24.3941 26.3642 24.1048 26.3146 23.8224V23.8138C26.2667 23.4317 26.1932 23.0532 26.0947 22.6809C26.3883 22.4796 26.5952 22.1751 26.6742 21.8279C26.8193 20.8151 24.8346 17.3617 23.8791 17.4658ZM32.4045 30.6228C32.3941 30.5715 32.3733 30.5228 32.3434 30.4798C32.3135 30.4368 32.2751 30.4004 32.2305 30.3728C32.1211 30.3234 31.9971 30.3168 31.883 30.3541L31.7618 30.3791C31.8607 30.2813 31.9467 30.1712 32.0176 30.0515C32.068 29.9756 32.1008 29.8895 32.1138 29.7994C32.1267 29.7093 32.1195 29.6174 32.0925 29.5304C32.0611 29.4452 32.0034 29.372 31.9278 29.3216C31.8521 29.2713 31.7625 29.2462 31.6717 29.25C31.4713 29.2767 31.2763 29.3345 31.0937 29.4212C30.8839 29.4958 30.6692 29.5554 30.451 29.5995C30.2328 29.6433 30.0105 29.6633 29.788 29.6591C29.713 29.658 29.6381 29.6528 29.5637 29.6435C29.5271 29.6396 29.4904 29.6361 29.4537 29.6299C29.3661 29.627 29.2827 29.5915 29.2197 29.5304C29.1133 29.3799 28.8625 29.5242 28.9701 29.6767C29.0266 29.7542 29.1027 29.8153 29.1905 29.8538C29.3224 29.9101 29.4636 29.9414 29.607 29.9462C29.724 29.9532 29.841 29.9505 29.9436 29.9462C30.3484 29.9275 30.7483 29.8486 31.13 29.7122C31.2972 29.6329 31.4735 29.5741 31.6549 29.5371C31.8464 29.5226 31.8628 29.7137 31.798 29.8518C31.6241 30.1633 31.3488 30.4059 31.018 30.5394C30.862 30.6096 30.979 30.835 31.1296 30.8034L31.6919 30.6864C31.7891 30.6661 31.8869 30.6419 31.9841 30.626C32.0749 30.6107 32.133 30.626 32.1284 30.7316C32.1217 30.8826 31.9786 30.989 31.8659 31.067C31.7151 31.1698 31.5569 31.261 31.3924 31.34C31.2337 31.418 31.3534 31.6279 31.5036 31.6041C31.6328 31.5835 31.7629 31.5697 31.8936 31.5627C31.9569 31.5522 32.0216 31.5538 32.0843 31.5674C32.0911 31.5703 32.0972 31.5745 32.1022 31.5799C32.0822 31.6003 32.061 31.6194 32.0387 31.6372C31.8702 31.7889 31.6813 31.9161 31.4774 32.0151C31.0875 32.2038 30.6548 32.2866 30.2228 32.255C30.2018 32.255 30.1807 32.255 30.16 32.2511C30.1422 32.2493 30.1242 32.251 30.107 32.2562C29.9775 32.2952 29.9958 32.5249 30.16 32.5401C30.2068 32.5444 30.2536 32.5451 30.3004 32.5471C30.8697 32.5691 31.4317 32.4133 31.9084 32.1013C32.1034 31.973 32.523 31.7215 32.3588 31.4383C32.3288 31.3909 32.2878 31.3514 32.2394 31.3231C32.1909 31.2948 32.1364 31.2786 32.0804 31.2757C32.1929 31.2111 32.2837 31.1146 32.3414 30.9984C32.3991 30.8822 32.421 30.7515 32.4045 30.6228ZM38.1726 19.344C38.1385 19.1577 38.0873 18.975 38.0197 18.798C37.9127 18.5016 37.6943 18.2587 37.4109 18.121C37.4422 17.7795 37.4381 17.4356 37.3984 17.0949C37.3956 16.9677 37.3425 16.8468 37.2506 16.7587C37.1884 16.716 37.1157 16.6912 37.0403 16.6872C36.965 16.6831 36.89 16.6999 36.8236 16.7357C36.5596 16.8689 36.3335 17.0667 36.1664 17.3106C35.979 17.5544 35.8007 17.8051 35.6317 18.0621C35.5918 18.0135 35.5383 17.9778 35.4781 17.9595C35.4153 17.9471 35.3504 17.9514 35.2898 17.9719C35.2293 17.9924 35.1751 18.0285 35.1329 18.0765C34.9659 18.2419 34.8312 18.437 34.7359 18.6518C34.6815 18.7692 34.6378 18.8912 34.6052 19.0164C34.5907 19.1293 34.552 19.2377 34.4918 19.3343C34.4658 19.3653 34.4519 19.4046 34.4528 19.445L34.6384 19.5749C34.6613 19.5692 34.6819 19.5565 34.6973 19.5386C34.8234 19.3172 34.9161 19.0782 34.9722 18.8296C35.0637 18.6059 35.2048 18.4059 35.3849 18.2446C35.3893 18.241 35.3947 18.2387 35.4005 18.238C35.4131 18.247 35.4238 18.2584 35.432 18.2715C35.4684 18.3229 35.499 18.3781 35.5233 18.4361C35.5721 18.5484 35.6067 18.6663 35.6263 18.7871C35.6627 19.0394 35.6745 19.2946 35.6614 19.5492C35.6633 19.5862 35.6793 19.6211 35.7062 19.6466C35.7331 19.6721 35.7688 19.6864 35.8059 19.6864C35.8429 19.6864 35.8786 19.6721 35.9055 19.6466C35.9324 19.6211 35.9484 19.5862 35.9504 19.5492C35.9838 19.1389 35.9306 18.7262 35.7944 18.3378C35.7993 18.3324 35.804 18.3266 35.8084 18.3207C35.961 18.0867 36.1197 17.8574 36.2846 17.6327C36.4184 17.4303 36.5828 17.2499 36.7721 17.098C36.8318 17.0551 36.9936 16.9319 37.0716 16.981C37.1371 17.0235 37.1258 17.2322 37.1305 17.293C37.1489 17.5526 37.1474 17.8133 37.1262 18.0726C36.8944 18.1604 36.6891 18.3062 36.5299 18.4962C36.3386 18.7116 36.2224 18.9832 36.1988 19.2703C36.201 19.3416 36.2215 19.4111 36.2584 19.4721C36.2952 19.5332 36.3471 19.5837 36.409 19.619C36.471 19.6542 36.541 19.6729 36.6123 19.6733C36.6836 19.6737 36.7538 19.6558 36.8162 19.6213C36.8267 19.617 36.8368 19.6116 36.8474 19.6069C36.8179 19.6674 36.7983 19.7321 36.7892 19.7988C36.7849 19.8728 36.7954 19.9469 36.8201 20.0167C36.8448 20.0866 36.8832 20.1508 36.9331 20.2056C36.983 20.2604 37.0433 20.3047 37.1106 20.3358C37.1778 20.367 37.2506 20.3843 37.3247 20.3869C37.4174 20.3922 37.5102 20.379 37.5977 20.3479C37.4828 20.6611 37.3452 20.9654 37.1859 21.2585C37.1726 21.2823 37.1664 21.3094 37.1679 21.3365L37.3579 21.4691C37.3746 21.4641 37.3902 21.4557 37.4036 21.4444C37.417 21.4331 37.428 21.4193 37.4359 21.4036C37.6401 21.0279 37.8111 20.6349 37.9468 20.2293C37.9558 20.2008 37.9546 20.1701 37.9433 20.1424C38.023 20.0711 38.0905 19.9872 38.1429 19.8939C38.2209 19.7207 38.2315 19.5246 38.1726 19.344ZM35.395 18.2357C35.3915 18.2349 35.3895 18.2345 35.395 18.2345V18.2357ZM37.891 19.7516C37.8516 19.8202 37.8003 19.8813 37.7397 19.9322C37.6858 19.9874 37.6209 20.0308 37.5492 20.0596C37.4776 20.0883 37.4007 20.1018 37.3235 20.0991C37.2639 20.0938 37.2074 20.0698 37.1623 20.0304C37.1172 19.991 37.0857 19.9383 37.0724 19.8799C37.0564 19.7262 37.2081 19.5679 37.2904 19.4509L37.6332 18.9681C37.728 18.8347 37.5162 18.6701 37.4066 18.793C37.2471 18.9758 37.0634 19.136 36.8606 19.2692C36.7779 19.323 36.668 19.4018 36.5634 19.3768C36.4464 19.3487 36.4886 19.2208 36.5112 19.1346C36.5586 18.9602 36.6457 18.7991 36.7655 18.6638C36.8854 18.5285 37.0348 18.4227 37.2022 18.3546C37.3416 18.4033 37.4669 18.4854 37.5673 18.5937C37.6676 18.702 37.7399 18.8332 37.7779 18.9759C37.8323 19.1416 37.8747 19.3111 37.905 19.4829C37.9323 19.5708 37.9276 19.6656 37.8918 19.7504L37.891 19.7516Z" fill="#FFE497"/>
<path d="M66.1519 55.419C65.5232 55.38 64.8867 55.3991 64.2573 55.3956C62.8111 55.3873 61.3648 55.3828 59.9181 55.382C57.8407 55.3781 55.7632 55.376 53.6855 55.3757H46.2517C43.5428 55.3757 40.834 55.3774 38.1253 55.3808C35.4249 55.3826 32.7247 55.3852 30.0246 55.3886L22.4485 55.398L16.1086 55.4073L11.5277 55.4147C10.8109 55.4147 10.0929 55.405 9.37608 55.4182H9.28209C9.24506 55.4202 9.21019 55.4362 9.18466 55.4631C9.15914 55.49 9.1449 55.5257 9.1449 55.5627C9.1449 55.5998 9.15914 55.6355 9.18466 55.6624C9.21019 55.6892 9.24506 55.7053 9.28209 55.7072L10.7723 55.7049L14.7967 55.6983L20.8003 55.6893L28.0933 55.6799L36.1663 55.6713C38.8776 55.669 41.5888 55.6671 44.2998 55.6655C46.8652 55.6639 49.4308 55.6639 51.9964 55.6655C54.1786 55.6655 56.3608 55.6669 58.543 55.6698C60.1685 55.6721 61.7935 55.6762 63.418 55.6819C64.2615 55.6854 65.1063 55.6819 65.9499 55.7026C66.0169 55.7026 66.084 55.7053 66.1511 55.7092C66.3395 55.7209 66.3367 55.4319 66.1519 55.419ZM10.9372 61.971L9.60345 62.7775L9.41196 62.8945C9.37987 62.9144 9.35682 62.9461 9.34774 62.9827C9.33865 63.0194 9.34425 63.0581 9.36334 63.0907C9.38243 63.1232 9.41349 63.1471 9.44989 63.1571C9.4863 63.167 9.52517 63.1624 9.55821 63.1441C10.0023 62.875 10.4468 62.6062 10.8916 62.3376L11.0831 62.2206C11.1144 62.2004 11.1367 62.1689 11.1454 62.1327C11.154 62.0964 11.1483 62.0582 11.1295 62.0261C11.1107 61.9939 11.0803 61.9702 11.0444 61.96C11.0086 61.9497 10.9702 61.9537 10.9372 61.971ZM4.25148 54.21C4.21053 54.0283 3.93207 54.1051 3.97263 54.288L4.0791 54.7607H3.40557C3.36729 54.761 3.33066 54.7764 3.30359 54.8034C3.27652 54.8305 3.26118 54.8671 3.26088 54.9054L3.31158 55.5146L2.64039 55.38C2.45865 55.3449 2.38065 55.6234 2.56239 55.6589L3.43131 55.8285C3.45276 55.8341 3.4752 55.8347 3.49693 55.8303C3.51865 55.8259 3.5391 55.8166 3.55672 55.8032C3.57434 55.7897 3.58867 55.7725 3.59863 55.7527C3.60859 55.7329 3.61392 55.7111 3.61422 55.6889L3.56079 55.0462H4.25694C4.27907 55.0458 4.30083 55.0405 4.32058 55.0305C4.34033 55.0205 4.35756 55.0061 4.37096 54.9885C4.38437 54.9709 4.3936 54.9505 4.39797 54.9288C4.40233 54.9071 4.40172 54.8847 4.39617 54.8633L4.25148 54.21ZM52.4258 25.1351C52.6784 25.0523 52.9156 24.9283 53.1278 24.7681C53.2448 24.6866 53.3618 24.6024 53.4823 24.5267C53.5738 24.4553 53.6841 24.4119 53.7998 24.4019C53.9074 24.4062 53.9141 24.5037 53.934 24.5899C53.9509 24.7012 54.0049 24.8034 54.0872 24.8801C54.1832 24.9422 54.2959 24.9736 54.4101 24.9701C54.5244 24.9665 54.6349 24.9282 54.7268 24.8602C54.8179 24.7953 54.9135 24.7371 55.0131 24.6862C55.1263 24.6457 55.2498 24.6441 55.3641 24.6816C55.586 24.7664 55.8123 24.8395 56.0419 24.9004C56.3509 24.897 56.6593 24.8741 56.9654 24.8317C57.3078 24.8422 57.6491 24.8859 57.9915 24.9019C58.6843 24.9334 59.3785 24.9219 60.0698 24.8672C60.2539 24.8528 60.2555 24.5638 60.0698 24.5782C59.5277 24.6206 58.9846 24.6371 58.4404 24.6277C58.1726 24.6223 57.9049 24.6106 57.6374 24.5926C57.3765 24.5751 57.1136 24.5373 56.8516 24.5419C56.6083 24.585 56.3624 24.611 56.1156 24.6199C55.9134 24.5749 55.7161 24.5104 55.5263 24.4273C55.3374 24.3535 55.1291 24.3463 54.9355 24.4066C54.7518 24.4741 54.597 24.6589 54.3992 24.6796C54.1777 24.7042 54.2218 24.4249 54.136 24.2896C54.0801 24.2124 54.0005 24.1555 53.9093 24.1277C53.8182 24.0999 53.7204 24.1027 53.6309 24.1356C53.4142 24.2162 53.2127 24.3328 53.0346 24.4803C52.8447 24.6281 52.6345 24.748 52.4106 24.8364C52.3085 24.8779 52.1988 24.8974 52.0886 24.8938C51.9784 24.8901 51.8702 24.8634 51.771 24.8153C51.6781 24.7619 51.599 24.6873 51.5401 24.5977C51.7513 24.4533 51.9375 24.2753 52.0912 24.0708C52.2105 23.9109 52.3416 23.6707 52.2168 23.4761C52.0764 23.2569 51.7788 23.3411 51.5975 23.4538C51.4271 23.559 51.2946 23.7156 51.2191 23.9011C51.1436 24.0865 51.129 24.2911 51.1774 24.4854C51.1359 24.5079 51.0938 24.5292 51.0511 24.5494C50.7179 24.7041 50.3501 24.7691 49.984 24.7377C49.9861 24.7286 49.9872 24.7194 49.9872 24.71C49.9871 24.6718 49.9718 24.6352 49.9448 24.6081C49.9177 24.5811 49.8811 24.5658 49.8429 24.5657C49.7765 24.5686 49.7129 24.5937 49.6625 24.637C49.6121 24.6802 49.5777 24.7392 49.5648 24.8044C49.5552 24.8414 49.5605 24.8806 49.5793 24.9138C49.5982 24.947 49.6292 24.9715 49.6658 24.9823C50.2191 25.0965 50.7949 25.0137 51.2937 24.7483C51.415 24.9267 51.591 25.0609 51.7952 25.1307C51.9993 25.2005 52.2207 25.202 52.4258 25.1351ZM51.5803 23.8481C51.6366 23.7795 51.7059 23.7228 51.7843 23.6812C51.8393 23.652 51.9824 23.5771 51.9719 23.6839C51.9457 23.7857 51.8931 23.8786 51.8194 23.9534C51.7511 24.0392 51.6759 24.1192 51.5947 24.1929C51.5435 24.2391 51.4899 24.2826 51.4341 24.3232C51.4255 24.238 51.434 24.152 51.4592 24.0701C51.4843 23.9883 51.5255 23.9123 51.5803 23.8466V23.8481ZM60.7313 26.4167L58.8312 26.4857C58.5223 26.497 58.2127 26.5017 57.9042 26.5224C57.6139 26.5475 57.3267 26.5998 57.0462 26.6784C56.7525 26.7502 56.4515 26.7879 56.1492 26.7907C55.8464 26.7897 55.5441 26.8158 55.2459 26.8687C54.9698 26.9493 54.6781 26.9618 54.3961 26.905C54.1418 26.8383 53.9008 26.7275 53.645 26.6659C53.3603 26.6021 53.0642 26.6116 52.7842 26.6936C52.5018 26.8108 52.192 26.8463 51.8904 26.7958C51.7121 26.7408 51.6361 27.0196 51.8124 27.0742C52.3584 27.2427 52.8537 26.8531 53.3954 26.9128C53.6596 26.9626 53.9183 27.0385 54.1676 27.1393C54.422 27.2285 54.694 27.2563 54.9612 27.2205C55.1051 27.1986 55.2463 27.1608 55.3902 27.1343C55.5502 27.1074 55.712 27.0921 55.8742 27.0886C56.1768 27.0883 56.479 27.0699 56.7794 27.0337C57.0684 26.9884 57.3449 26.8855 57.6343 26.8387C57.9369 26.8023 58.2413 26.7841 58.5461 26.7841L60.7301 26.7061C60.9185 26.699 60.9185 26.41 60.7313 26.4167ZM39.3632 24.7834C39.4938 24.8539 39.64 24.8905 39.7884 24.8897C39.9369 24.889 40.0827 24.8509 40.2126 24.7791C40.3475 24.7104 40.4733 24.6251 40.587 24.5252C40.7008 24.4075 40.8249 24.3002 40.9579 24.2046C41.0788 24.1375 41.186 24.2296 41.2835 24.2994C41.3956 24.39 41.5244 24.4579 41.6626 24.499C41.9434 24.5404 42.2299 24.5182 42.5011 24.4343C42.7801 24.3551 43.0778 24.3742 43.3443 24.4885C43.5984 24.6425 43.8826 24.7398 44.1777 24.774C44.477 24.7547 44.7646 24.6506 45.0069 24.4737C45.15 24.384 45.2884 24.2822 45.4398 24.2069C45.6246 24.1149 45.7561 24.1839 45.9315 24.2608C46.2604 24.4048 46.6271 24.4378 46.9764 24.3547C47.1573 24.313 47.0809 24.0342 46.8984 24.0759C46.5967 24.1444 46.2809 24.1097 46.0014 23.9772C45.8842 23.9126 45.7545 23.874 45.6211 23.8641C45.4734 23.8733 45.3308 23.9217 45.2081 24.0045C44.979 24.1647 44.7367 24.3052 44.4839 24.4246C44.354 24.4688 44.2161 24.4841 44.0797 24.4694C43.9433 24.4546 43.8119 24.4102 43.6945 24.3391C43.4659 24.2045 43.2114 24.12 42.9477 24.0911C42.6697 24.1047 42.3938 24.1468 42.1244 24.2167C42.0088 24.2402 41.8901 24.2439 41.7734 24.2276C41.6407 24.1933 41.5178 24.1288 41.4142 24.0392C41.321 23.9523 41.1993 23.9024 41.0719 23.8989C40.9445 23.8953 40.8202 23.9385 40.7223 24.0201C40.4975 24.2659 40.2205 24.4581 39.9115 24.5825C39.8401 24.6045 39.7647 24.61 39.6909 24.5986C39.617 24.5873 39.5467 24.5594 39.4852 24.517C39.4314 24.4781 39.3912 24.4233 39.3702 24.3603C39.3492 24.2973 39.3485 24.2294 39.3682 24.166C39.4275 23.9893 39.1487 23.9137 39.0898 24.088C39.0526 24.2178 39.0593 24.3563 39.1087 24.482C39.1581 24.6077 39.2475 24.7136 39.3632 24.7834ZM47.7525 26.1881C47.2482 26.0559 46.7689 26.2579 46.2705 26.3196C46.0007 26.3428 45.7291 26.3259 45.4643 26.2693C45.1909 26.2211 44.9152 26.1871 44.6383 26.1675C44.081 26.1312 43.5202 26.139 42.9613 26.1433C42.395 26.1474 41.8286 26.156 41.2621 26.169C40.9501 26.1757 40.6381 26.1862 40.328 26.2186C40.018 26.2509 39.7196 26.3254 39.4123 26.3395C39.2271 26.348 39.2263 26.6374 39.4123 26.6284C39.6818 26.616 39.9447 26.5536 40.2118 26.5204C40.479 26.4873 40.7555 26.4724 41.0281 26.4643C41.5854 26.4467 42.1439 26.4409 42.7016 26.4346C43.2593 26.4284 43.8205 26.4217 44.3786 26.4436C44.6559 26.4517 44.9325 26.4764 45.2069 26.5177C45.4724 26.5719 45.7414 26.6069 46.0119 26.6226C46.5672 26.6316 47.1218 26.3223 47.6737 26.4666C47.7106 26.477 47.7502 26.4724 47.7837 26.4537C47.8172 26.4349 47.8419 26.4037 47.8523 26.3668C47.8627 26.3298 47.8581 26.2903 47.8394 26.2568C47.8206 26.2233 47.7894 26.1986 47.7525 26.1881ZM22.8779 19.8877L22.8802 19.8811L22.8779 19.8877ZM22.8373 20.041C22.8373 20.041 22.8397 20.0355 22.8373 20.0277C22.8377 20.0321 22.8377 20.0365 22.8373 20.041ZM22.9465 19.7664C22.9531 19.7621 22.9567 19.7559 22.9539 19.7578L22.9489 19.7637L22.9465 19.7664ZM20.968 21.881C20.9077 21.8827 20.8474 21.88 20.7875 21.8728C20.7456 21.8669 20.7041 21.8588 20.6631 21.8486C20.6254 21.8391 20.5855 21.8444 20.5515 21.8634C20.5193 21.8827 20.4956 21.9135 20.4852 21.9496C20.4752 21.9866 20.4801 22.026 20.4991 22.0594C20.518 22.0927 20.5493 22.1172 20.5862 22.1275C20.7109 22.1593 20.8394 22.1736 20.968 22.17C21.0063 22.1694 21.0429 22.1542 21.0702 22.1275C21.0837 22.1141 21.0944 22.0982 21.1017 22.0806C21.109 22.0631 21.1128 22.0443 21.1128 22.0253C21.1128 22.0063 21.109 21.9875 21.1017 21.9699C21.0944 21.9524 21.0837 21.9365 21.0702 21.9231C21.043 21.8962 21.0063 21.881 20.968 21.881Z" fill="#1D1D1B"/>
<path d="M22.8935 19.422C22.7627 19.5183 22.6622 19.6499 22.6038 19.8014C22.5454 19.9528 22.5316 20.1178 22.5639 20.2769C22.5743 20.3138 22.5988 20.3451 22.6321 20.364C22.6654 20.3829 22.7048 20.3879 22.7418 20.3779C22.7782 20.3669 22.8091 20.3423 22.8279 20.3092C22.8467 20.2761 22.852 20.237 22.8428 20.2001C22.8428 20.1919 22.8393 20.1837 22.8381 20.1751V20.1385C22.8359 20.1082 22.8359 20.0779 22.8381 20.0476V20.0421C22.8374 20.0383 22.8374 20.0343 22.8381 20.0304C22.8404 20.016 22.8436 20.0016 22.8467 19.9875C22.8536 19.9578 22.8625 19.9284 22.8732 19.8998L22.8775 19.8904C22.8748 19.8959 22.8724 19.899 22.8775 19.8877V19.8811V19.8838C22.8833 19.8713 22.8892 19.8588 22.8958 19.8468C22.9101 19.8198 22.9261 19.7937 22.9438 19.7688L22.9473 19.7652L22.9524 19.7594L22.9567 19.7532C22.9766 19.7303 22.9978 19.7085 23.0202 19.688L23.0354 19.6748L23.0393 19.6713C23.071 19.6513 23.0938 19.62 23.1032 19.5838C23.1126 19.5476 23.1079 19.5091 23.09 19.4763C23.0708 19.4433 23.0395 19.4192 23.0028 19.4091C22.9661 19.399 22.9268 19.4036 22.8935 19.422ZM25.4881 20.837C25.3482 21.0018 25.1657 21.1251 24.9605 21.1934C24.7105 21.2621 24.4497 21.2824 24.1922 21.2531C24.1339 21.2417 24.0737 21.2462 24.0178 21.2659C23.9618 21.2857 23.9121 21.32 23.8739 21.3654C23.8119 21.4574 23.7799 21.5664 23.7823 21.6774C23.784 21.7839 23.8091 21.8887 23.8556 21.9846C23.9022 22.0804 23.9691 22.1648 24.0518 22.232C24.1578 22.3131 24.2791 22.372 24.4085 22.4051C24.5378 22.4383 24.6725 22.4451 24.8045 22.425C24.8424 22.4238 24.8785 22.4081 24.9054 22.3813C24.9323 22.3544 24.9479 22.3183 24.9492 22.2804C24.9489 22.2421 24.9335 22.2055 24.9064 22.1785C24.8793 22.1515 24.8427 22.1363 24.8045 22.1361C24.6902 22.1612 24.5714 22.1565 24.4595 22.1224C24.3476 22.0882 24.2464 22.0258 24.1657 21.9411C24.1075 21.8666 24.075 21.7754 24.0732 21.6809C24.0746 21.6373 24.0832 21.5942 24.0986 21.5534L24.1033 21.5378C24.1032 21.5383 24.1032 21.5387 24.1033 21.5392C24.1035 21.5396 24.1038 21.54 24.1041 21.5404C24.1045 21.5407 24.1049 21.5409 24.1054 21.541C24.1058 21.5411 24.1063 21.5411 24.1068 21.5409C24.141 21.5379 24.1755 21.5393 24.2093 21.5452C24.4932 21.5741 24.7799 21.5476 25.0537 21.4672C25.3009 21.3847 25.5215 21.2376 25.6929 21.0413C25.8142 20.9017 25.6106 20.6966 25.4881 20.837ZM24.847 18.6896L24.8817 18.7041C24.8958 18.7077 24.9104 18.7093 24.925 18.7087C24.9478 18.7066 24.9708 18.7066 24.9936 18.7087C25.0088 18.7116 25.0238 18.7154 25.0385 18.72C25.0584 18.7293 25.0775 18.7404 25.0954 18.7532C25.1228 18.778 25.1583 18.7919 25.1953 18.7922C25.2335 18.7918 25.2702 18.7766 25.2974 18.7497C25.3245 18.7226 25.3398 18.6858 25.3399 18.6475C25.3396 18.6092 25.3244 18.5726 25.2974 18.5453C25.2148 18.4684 25.1079 18.423 24.9952 18.417C24.956 18.4148 24.9168 18.4173 24.8782 18.4244C24.8419 18.4344 24.811 18.4582 24.792 18.4907C24.7824 18.5071 24.7761 18.5252 24.7734 18.544C24.7708 18.5628 24.7719 18.5819 24.7767 18.6003C24.7815 18.6186 24.7899 18.6359 24.8013 18.651C24.8128 18.6661 24.8271 18.6789 24.8435 18.6885L24.847 18.6896Z" fill="#1D1D1B"/>
<path d="M23.7187 20.5001C23.8309 20.5001 23.9218 20.4092 23.9218 20.297C23.9218 20.1849 23.8309 20.0939 23.7187 20.0939C23.6066 20.0939 23.5156 20.1849 23.5156 20.297C23.5156 20.4092 23.6066 20.5001 23.7187 20.5001Z" fill="#1D1D1B"/>
<path d="M25.3984 19.5774C25.5106 19.5774 25.6015 19.4865 25.6015 19.3743C25.6015 19.2621 25.5106 19.1712 25.3984 19.1712C25.2862 19.1712 25.1953 19.2621 25.1953 19.3743C25.1953 19.4865 25.2862 19.5774 25.3984 19.5774Z" fill="#1D1D1B"/>
<path d="M25.1229 23.1905C24.7723 23.3477 24.4006 23.4528 24.0195 23.5025C23.9828 23.5129 23.9516 23.5373 23.9328 23.5706C23.9139 23.6038 23.909 23.6431 23.9189 23.68C23.9298 23.7164 23.9544 23.7472 23.9874 23.766C24.0205 23.7848 24.0595 23.7902 24.0964 23.781C24.5018 23.727 24.897 23.6128 25.2687 23.4421C25.3015 23.4225 25.3254 23.3908 25.3351 23.3538C25.3448 23.3168 25.3396 23.2775 25.3206 23.2443C25.301 23.2115 25.2694 23.1876 25.2326 23.1776C25.1957 23.1676 25.1564 23.1722 25.1229 23.1905ZM22.1304 15.9732C21.3352 15.6682 20.1199 15.5972 19.5564 16.3721C19.4296 16.541 19.3546 16.7429 19.3402 16.9536C19.3259 17.1642 19.3729 17.3745 19.4757 17.5589C18.9601 17.8861 18.3837 18.3124 18.2343 18.922C18.1903 19.0755 18.1834 19.2372 18.2142 19.3939C18.2449 19.5505 18.3123 19.6977 18.411 19.8232C18.5135 19.9445 18.649 20.0335 18.801 20.0795C18.5954 20.3624 18.4513 20.6852 18.3777 21.0271C18.3042 21.369 18.3029 21.7225 18.3739 22.065C18.4345 22.4927 18.6177 22.8938 18.9012 23.2198C19.2192 23.5467 19.6039 23.8013 20.0291 23.9662C20.4547 24.163 20.9261 24.2396 21.3921 24.1877C21.8563 24.1186 22.2984 23.9437 22.6842 23.6764C22.7384 23.6398 22.7907 23.5984 22.8421 23.5594C22.7423 23.5203 22.6449 23.4752 22.5504 23.4245C22.2189 23.2436 21.912 23.0208 21.6374 22.7615C20.3418 23.1882 19.9647 22.4008 20.063 21.8434C20.1613 21.2861 21.047 21.5314 21.047 21.5314C20.228 18.4426 22.4467 17.7165 23.5699 17.5121C23.6241 17.502 23.6752 17.4938 23.7259 17.486L23.8694 17.4645H23.8803C23.4872 16.7799 22.8687 16.2528 22.1304 15.9732Z" fill="#1D1D1B"/>
<path d="M63.1481 17.5079C63.1313 15.4701 63.1091 13.4308 63.0229 11.3946C63.0151 11.2074 63.0066 11.0201 62.9975 10.8326C62.9967 10.7945 62.9812 10.7582 62.9542 10.7313C62.9273 10.7044 62.8909 10.689 62.8528 10.6883C62.5221 10.6829 62.1913 10.6778 61.8603 10.6731C60.9375 10.6591 60.0146 10.6461 59.0913 10.6341C57.699 10.6154 56.3064 10.5977 54.9136 10.5811C53.1612 10.5605 51.4088 10.5416 49.6564 10.5241C47.6573 10.5041 45.6581 10.487 43.659 10.4727C41.5161 10.4571 39.3732 10.4451 37.2302 10.4368C35.0767 10.4285 32.9231 10.4251 30.7695 10.4266C28.7087 10.4287 26.648 10.4372 24.5872 10.452C22.7324 10.4663 20.8775 10.4897 19.0227 10.5222C17.4802 10.5514 15.9378 10.5885 14.3961 10.6485C14.0841 10.6605 13.7721 10.6735 13.4601 10.6875C13.422 10.6882 13.3857 10.7035 13.3588 10.7305C13.3318 10.7574 13.3164 10.7938 13.3158 10.8318V39.2628C13.3158 39.6431 13.2952 40.0296 13.3158 40.4091V40.4613C13.3153 40.4789 13.3183 40.4965 13.3246 40.513C13.3308 40.5294 13.3403 40.5445 13.3525 40.5573C13.3685 40.5781 13.391 40.5929 13.4164 40.5994C13.4306 40.6037 13.4453 40.6059 13.4601 40.606H13.4652L14.5065 40.5994L17.396 40.5822C18.8491 40.5739 20.3024 40.5662 21.7558 40.5592C23.5743 40.5504 25.3928 40.542 27.2115 40.5342C29.271 40.5257 31.3306 40.5183 33.3903 40.512C35.5662 40.5055 37.742 40.5003 39.9177 40.4964C42.0856 40.493 44.2534 40.4916 46.421 40.4921C48.456 40.4921 50.491 40.4958 52.526 40.503C54.3042 40.5093 56.0821 40.5196 57.8597 40.5339C59.2559 40.5459 60.6521 40.5612 62.0479 40.5885C62.3113 40.5937 62.5744 40.5994 62.8372 40.6056H62.8521C62.8635 40.6058 62.8749 40.6043 62.886 40.6013C62.902 40.5975 62.9172 40.5909 62.9308 40.5818C62.9506 40.5683 62.9669 40.5503 62.9783 40.5293C62.9898 40.5083 62.9961 40.4849 62.9967 40.4609C63.0092 39.7116 63.0207 38.9623 63.0311 38.213C63.0571 36.3189 63.0805 34.4244 63.1013 32.5295C63.1273 30.0496 63.1457 27.5696 63.1567 25.0895C63.1676 22.5627 63.1687 20.0351 63.1481 17.5079ZM62.7507 37.6553C62.7421 38.2839 62.7329 38.9126 62.723 39.5413L62.714 40.1236C62.714 40.1797 62.7039 40.2488 62.7019 40.3143C61.4681 40.2871 60.2341 40.2677 59 40.2562C57.3035 40.2382 55.6072 40.2261 53.9109 40.2199C51.9269 40.2111 49.9429 40.2059 47.9591 40.2043C45.8123 40.2025 43.6655 40.2025 41.5187 40.2043C39.3331 40.2072 37.1477 40.2116 34.9624 40.2176C32.8629 40.2235 30.7635 40.2306 28.6643 40.2386C26.7754 40.2459 24.8867 40.2541 22.9984 40.2632L18.3371 40.2874L15.0552 40.3061C14.5724 40.3092 14.0884 40.3022 13.6056 40.3143V37.1007L14.5506 37.1054C15.5562 37.1108 16.5621 37.1158 17.568 37.1202C19.0734 37.1272 20.5789 37.1338 22.0846 37.1401C23.9675 37.1479 25.8503 37.155 27.733 37.1615C29.8429 37.1691 31.9529 37.1756 34.063 37.181C36.273 37.1865 38.483 37.1909 40.693 37.1943C42.87 37.1974 45.0471 37.1987 47.2244 37.1982C49.242 37.1982 51.2594 37.1949 53.2768 37.1884C54.9839 37.1832 56.691 37.1744 58.3979 37.1619C59.6693 37.1518 60.9407 37.1397 62.2117 37.1151C62.3937 37.1117 62.5757 37.1077 62.7577 37.103L62.7507 37.6553ZM62.8716 24.139C62.864 26.654 62.8474 29.169 62.8216 31.684C62.805 33.3943 62.785 35.1043 62.7616 36.814C61.6657 36.8398 60.5698 36.853 59.4739 36.8636C57.8538 36.8794 56.2339 36.8898 54.6141 36.8948C52.6659 36.9026 50.7179 36.907 48.7699 36.908C46.6119 36.9101 44.4539 36.9101 42.2959 36.908C40.081 36.9057 37.8662 36.9019 35.6515 36.8967C33.505 36.8915 31.3584 36.8854 29.2118 36.8784C27.2673 36.8721 25.3228 36.8651 23.3782 36.8573L18.5348 36.8367L15.125 36.8203C14.618 36.8175 14.111 36.8039 13.604 36.8113V11.2807C13.604 11.1848 13.6173 11.0729 13.6126 10.9687C15.0006 10.9056 16.3894 10.8658 17.7782 10.8346C19.5722 10.794 21.3674 10.7662 23.1637 10.7511C25.185 10.7314 27.2061 10.7197 29.227 10.716C31.3687 10.7111 33.51 10.7119 35.6511 10.7184C37.8 10.7243 39.9488 10.7345 42.0974 10.7488C44.1491 10.762 46.2009 10.7782 48.2528 10.7971C50.0757 10.8143 51.8984 10.8333 53.721 10.8541C55.2116 10.871 56.7022 10.8892 58.1927 10.9087C59.2374 10.9227 60.2825 10.9373 61.3279 10.9524L62.2951 10.9668C62.4281 10.9668 62.5763 10.9867 62.7136 10.9797C62.8033 12.8591 62.8306 14.7416 62.8489 16.6226C62.877 19.1291 62.879 21.6345 62.8716 24.141V24.139Z" fill="#1D1D1B"/>
<path d="M38.9513 38.0426C38.8264 37.9711 38.6827 37.9395 38.5393 37.952C38.3959 37.9645 38.2598 38.0204 38.1491 38.1123C38.0384 38.2043 37.9584 38.3278 37.9198 38.4664C37.8812 38.605 37.8858 38.7522 37.933 38.8881C37.9738 39.0401 38.0625 39.175 38.186 39.2726C38.3096 39.3702 38.4613 39.4253 38.6187 39.4298C38.8146 39.427 39.0018 39.3477 39.1402 39.2089C39.2786 39.0702 39.3573 38.8828 39.3597 38.6868C39.3576 38.5523 39.3183 38.4209 39.2463 38.3072C39.1742 38.1935 39.0722 38.1019 38.9513 38.0426ZM39.0383 38.8616C39.034 38.8744 39.036 38.8674 39.0383 38.8616V38.8616ZM39.0703 38.7329V38.7465L39.0676 38.7617C39.0613 38.7931 39.0528 38.824 39.0422 38.8541L39.0399 38.8608C39.0305 38.8804 39.0206 38.8998 39.0102 38.9189C39.0028 38.9321 38.9923 38.947 38.9825 38.961L38.9763 38.9692L38.965 38.9825C38.9449 39.0045 38.9234 39.0252 38.9006 39.0445L38.8811 39.0589C38.8671 39.0683 38.8527 39.0772 38.8382 39.0854C38.8238 39.0936 38.8113 39.0995 38.7973 39.1061L38.7731 39.1151C38.742 39.1258 38.7101 39.1336 38.6776 39.1385L38.6503 39.1404H38.5613L38.5352 39.1349C38.5221 39.1321 38.5091 39.1287 38.4962 39.1248L38.4712 39.1162L38.4654 39.1139L38.4408 39.1018C38.418 39.0894 38.396 39.0756 38.3749 39.0605L38.355 39.0433C38.3336 39.0233 38.3136 39.002 38.295 38.9793L38.2856 38.9661C38.2774 38.9536 38.2692 38.9411 38.2614 38.9271L38.2431 38.8931L38.2345 38.8756L38.2291 38.8627L38.2181 38.8315C38.2142 38.8194 38.2103 38.807 38.2072 38.7925C38.2041 38.7781 38.201 38.7672 38.1986 38.7535L38.1943 38.7309V38.727C38.1921 38.7011 38.1912 38.675 38.1916 38.649C38.1916 38.6338 38.1916 38.6186 38.1943 38.603L38.1979 38.5827C38.2039 38.5544 38.2117 38.5265 38.2213 38.4992L38.2267 38.4848C38.2397 38.4575 38.2546 38.431 38.2712 38.4056C38.2712 38.4025 38.2817 38.3912 38.2852 38.3858L38.3039 38.3647C38.3133 38.3549 38.3227 38.3456 38.3328 38.3366L38.3484 38.323L38.3698 38.3081C38.3893 38.2957 38.4088 38.2855 38.4307 38.275L38.4424 38.2707C38.4525 38.2672 38.4627 38.2637 38.4732 38.261C38.4837 38.2582 38.4939 38.2551 38.5044 38.2528L38.5294 38.2485C38.5684 38.2457 38.6074 38.2485 38.6491 38.2485L38.6694 38.2508C38.6799 38.2528 38.6908 38.2551 38.7013 38.2578C38.7262 38.2637 38.7507 38.271 38.7747 38.2797C38.7868 38.284 38.8137 38.2964 38.786 38.284C38.7977 38.2894 38.8094 38.2945 38.8207 38.3007C38.8451 38.3134 38.8687 38.3276 38.8913 38.3432L38.9045 38.3526L38.9334 38.378C38.9514 38.3953 38.9685 38.4137 38.9845 38.4329L38.9966 38.4493C39.0046 38.4615 39.0124 38.4745 39.02 38.4883C39.0266 38.5 39.0321 38.5117 39.0379 38.523L39.0403 38.5273L39.043 38.5355C39.0525 38.5627 39.0603 38.5904 39.0664 38.6186L39.0691 38.6357V38.6393C39.0691 38.6556 39.0711 38.672 39.0715 38.6884C39.0718 38.7048 39.0711 38.7176 39.0703 38.7329ZM1.97739 53.5014C1.87794 53.5883 2.06631 54.0388 2.16303 54.251C2.19384 54.3184 2.21529 54.3621 2.21529 54.3621L2.3241 54.2806L2.44656 54.1889L2.61621 54.0618L2.74881 53.962L2.87127 53.8703L2.80887 53.8313C2.62479 53.7198 2.08581 53.4066 1.97739 53.5014Z" fill="#1D1D1B"/>
</svg>
