<svg width="78" height="78" viewBox="0 0 78 78" fill="none" xmlns="http://www.w3.org/2000/svg">
<path d="M49.6016 60.8402C49.5984 60.6789 49.6113 60.7027 49.5625 60.7027C49.5728 60.7493 49.5859 60.7952 49.6016 60.8402Z" fill="#FFE497"/>
<path d="M45.2291 54.5423C45.2524 54.5609 45.2699 54.5857 45.2795 54.6139C45.2891 54.6421 45.2904 54.6725 45.2833 54.7014C45.1843 55.0879 45.0817 55.692 45.4947 55.9377C45.8558 56.1534 46.5278 55.9194 46.846 55.6238C46.8677 55.604 46.8949 55.5912 46.924 55.5871C47.1181 54.9636 47.4307 54.3834 47.8448 53.8785C47.8519 53.6055 47.8807 53.3817 47.8807 53.3817C47.6147 53.5014 47.3221 53.5496 47.0317 53.5217C46.334 53.3454 45.8508 52.377 46.3418 51.3299C46.4593 51.0228 46.6383 50.7429 46.8677 50.5073C47.0971 50.2718 47.3721 50.0855 47.676 49.9598C47.8063 49.9165 47.9445 49.9018 48.081 49.917C48.2176 49.9321 48.3492 49.9767 48.4669 50.0476C49.1268 50.4504 48.7235 51.5498 48.7235 51.5498C49.1084 51.3396 49.3249 51.3065 49.4255 51.3759L49.3838 49.1275C49.3658 49.1146 49.3511 49.0977 49.3408 49.078C49.3306 49.0584 49.3251 49.0366 49.3249 49.0144C49.1338 44.0821 49.1931 43.9643 48.9166 43.508C48.7894 43.3008 48.6151 43.1265 48.4079 42.9993C48.2006 42.8721 47.9663 42.7956 47.7239 42.776C47.681 42.7854 40.8966 44.0915 39.814 44.6188L39.4357 44.8305C38.8628 45.1885 38.3941 45.6908 38.0767 46.2871C37.7593 46.8834 37.6043 47.5527 37.6272 48.2278V67.6471C41.7976 67.0832 45.8568 65.8832 49.6634 64.0887L49.6147 61.4781C49.4301 61.2556 49.3063 60.9892 49.2551 60.7047L46.8488 60.7191C46.7014 60.7191 46.6881 60.5284 46.6971 60.5674C46.6276 59.9383 46.5691 59.3077 46.5481 58.6751C44.7151 59.2286 42.0802 57.2021 42.8677 54.517C42.9281 54.3114 43.0849 53.8352 43.2791 53.737C43.4796 53.632 43.6473 53.7787 45.2291 54.5423Z" fill="#FFE497"/>
<path d="M48.8671 52.3556C49.4189 53.8306 49.1814 53.5587 49.4673 53.6562L49.4334 51.8365C49.393 51.9652 49.3194 52.0809 49.2199 52.1721C49.1205 52.2632 48.9988 52.3265 48.8671 52.3556Z" fill="#FFE497"/>
<path d="M49.4242 51.3759C49.3216 51.3065 49.1051 51.3397 48.7222 51.5499C49.3875 49.7364 47.381 49.1093 46.3404 51.3299C45.8502 52.3767 46.3319 53.3454 47.0303 53.5217C47.3207 53.5498 47.6134 53.5016 47.8794 53.3817C47.8794 53.3817 47.8505 53.6059 47.8435 53.8786C47.8361 54.1722 47.8435 54.7986 48.136 54.8477C48.5755 54.921 49.4183 54.4811 49.4183 54.1512C49.2852 53.539 49.1014 52.9389 48.8688 52.3572C49.329 52.3096 49.6504 51.5284 49.4242 51.3759Z" fill="#CC6666"/>
<path d="M38.4532 5.49517C37.8986 5.13613 37.2483 4.9534 36.5879 4.97101C35.9275 4.98862 35.2879 5.20576 34.7532 5.59384C30.1321 8.95447 26.7883 14.8095 24.834 20.2715C26.3117 20.7871 35.2501 23.5405 48.6731 20.0277C46.6467 14.4176 43.5025 8.56993 38.4532 5.49517Z" fill="#F76559"/>
<path d="M21.1902 47.463C21.1189 51.0307 20.9753 60.5721 22.6391 63.733C24.4225 67.1221 32.3637 68.9707 37.3237 67.867V50.3771C36.02 50.5081 27.8974 51.1411 21.1902 47.463Z" fill="#FF8684"/>
<path d="M40.4274 24.4034C40.4384 24.4235 40.445 24.4457 40.4468 24.4685C40.4485 24.4913 40.4453 24.5142 40.4375 24.5357C40.4297 24.5571 40.4174 24.5767 40.4014 24.5931C40.3854 24.6094 40.3661 24.6221 40.3448 24.6304C35.4335 26.4665 35.5419 33.7439 40.4512 35.4635C40.4762 35.4715 40.4985 35.4863 40.5158 35.506C40.533 35.5258 40.5445 35.5499 40.5491 35.5758C44.1894 36.775 47.8948 33.9378 47.8948 29.9684C47.8948 25.935 44.0814 23.102 40.4274 24.4034ZM44.9573 26.2247C44.9116 26.3121 44.8394 26.3827 44.7512 26.4266C44.6629 26.4705 44.563 26.4854 44.4658 26.4692C44.3686 26.453 44.279 26.4065 44.2097 26.3364C44.1405 26.2662 44.0951 26.176 44.0802 26.0786C44.0652 25.9811 44.0814 25.8815 44.1264 25.7938C44.1714 25.7061 44.243 25.6349 44.3309 25.5903C44.4188 25.5456 44.5185 25.5299 44.6159 25.5453C44.7132 25.5607 44.8032 25.6064 44.8731 25.676C44.9549 25.7391 45.0094 25.8313 45.0251 25.9335C45.0408 26.0357 45.0165 26.14 44.9573 26.2247ZM46.0555 33.2986C45.8683 33.5415 45.6265 33.1184 45.6839 33.0462C46.7942 31.6064 46.9541 28.6392 45.5727 26.7563C45.4557 26.5984 45.8812 26.3624 45.9959 26.5184C47.3675 28.3892 47.5262 31.3868 46.0555 33.2986Z" fill="#9CF0F0"/>
<path d="M74.5589 51.0229C73.7286 50.3486 72.6688 50.023 71.6031 50.115C71.1799 49.0819 70.487 48.1814 69.5969 47.5076C68.7068 46.8337 67.6521 46.4111 66.5429 46.284C66.4314 45.5464 66.1127 44.8556 65.624 44.292C65.1352 43.7284 64.4965 43.3152 63.7821 43.1005C63.8772 37.4131 56.1221 35.7728 53.8269 40.8642C53.7489 41.0409 54.0087 41.1953 54.089 41.0175C56.3186 36.0692 63.683 37.8558 63.4783 43.2124C63.4785 43.2455 63.4895 43.2777 63.5095 43.304C63.5295 43.3304 63.5576 43.3496 63.5894 43.3586C64.2865 43.5492 64.9118 43.9413 65.3869 44.4857C65.862 45.0302 66.1658 45.7029 66.2601 46.4194C66.2618 46.4591 66.2783 46.4968 66.3065 46.525C66.3347 46.5531 66.3725 46.5695 66.4122 46.5711C67.5016 46.6783 68.5403 47.0845 69.4134 47.7448C70.2865 48.405 70.9602 49.2937 71.3602 50.3127C71.3696 50.3445 71.3889 50.3724 71.4153 50.3925C71.4416 50.4125 71.4737 50.4237 71.5068 50.4243C75.5063 49.9851 77.324 55.1101 74.1175 57.3113C73.3429 57.8403 72.4016 58.0679 71.4709 57.9513C71.2759 57.9275 71.2794 58.2309 71.4709 58.2543C75.5456 58.75 77.6992 53.5802 74.5589 51.0229Z" fill="#AC47F5"/>
<path d="M68.1257 59.0296C68.3944 58.6099 68.5392 58.123 68.5436 57.6246C68.548 57.1263 68.4118 56.6369 68.1506 56.2125C67.8894 55.7882 67.5137 55.4461 67.0669 55.2255C66.62 55.005 66.12 54.915 65.6243 54.9658C66.281 51.5705 63.443 49.7043 61.4649 50.723C61.2914 50.8123 61.445 51.074 61.6182 50.9851C63.4239 50.0545 66.0478 51.8938 65.2896 55.0972C65.2838 55.1229 65.2845 55.1497 65.2918 55.175C65.2991 55.2003 65.3127 55.2234 65.3313 55.2421C65.3499 55.2607 65.373 55.2744 65.3983 55.2817C65.4236 55.289 65.4503 55.2898 65.4761 55.2841C65.954 55.2025 66.4456 55.2699 66.8839 55.4772C67.3223 55.6845 67.6863 56.0217 67.9265 56.4429C68.1667 56.8641 68.2716 57.349 68.2269 57.8318C68.1821 58.3146 67.99 58.772 67.6764 59.1419C67.584 59.2496 67.6694 59.4442 67.8239 59.3954C68.1302 59.2957 68.4589 59.2869 68.7702 59.3702C69.0814 59.4534 69.3618 59.6252 69.5775 59.8645C69.7931 60.1039 69.9347 60.4007 69.9852 60.7189C70.0356 61.0371 69.9927 61.3631 69.8616 61.6574C69.7836 61.8341 70.0433 61.9889 70.1233 61.8111C70.2724 61.4952 70.3343 61.1452 70.3026 60.7973C70.2709 60.4494 70.1467 60.1163 69.9429 59.8326C69.7392 59.5488 69.4632 59.3248 69.1437 59.1836C68.8242 59.0424 68.4727 58.9892 68.1257 59.0296Z" fill="#AC47F5"/>
<path d="M66.0746 56.2747C66.0343 56.2747 65.9958 56.2907 65.9673 56.3191C65.9389 56.3476 65.9229 56.3862 65.9229 56.4264C65.9229 56.4666 65.9389 56.5052 65.9673 56.5337C65.9958 56.5621 66.0343 56.5781 66.0746 56.5781C66.6986 56.5282 66.8823 57.2325 66.9599 57.8491C66.9619 57.8881 66.9787 57.9248 67.007 57.9516C67.0353 57.9785 67.0728 57.9935 67.1118 57.9935C67.1508 57.9935 67.1883 57.9785 67.2166 57.9516C67.2449 57.9248 67.2617 57.8881 67.2637 57.8491C67.2468 57.4623 67.1378 57.0851 66.9458 56.7489C66.8542 56.6011 66.7257 56.4797 66.5729 56.3966C66.4202 56.3134 66.2485 56.2714 66.0746 56.2747ZM74.396 54.6901C74.5503 54.091 74.4713 53.4557 74.175 52.9127C73.8786 52.3696 73.3871 51.9594 72.7997 51.7651C72.7615 51.7563 72.7214 51.7626 72.6877 51.7826C72.654 51.8027 72.6294 51.8349 72.6189 51.8727C72.6085 51.9105 72.613 51.9509 72.6316 51.9854C72.6501 52.0199 72.6813 52.0459 72.7186 52.058C73.2292 52.2294 73.6559 52.5878 73.9128 53.0611C74.1698 53.5344 74.2379 54.0875 74.1035 54.609C74.0928 54.6478 74.0978 54.6892 74.1177 54.7243C74.1375 54.7593 74.1704 54.785 74.2092 54.7958C74.248 54.8066 74.2895 54.8015 74.3245 54.7816C74.3595 54.7618 74.3852 54.7289 74.396 54.6901ZM59.0327 39.5819C58.8377 39.5913 58.8377 39.8939 59.0327 39.8853C59.51 39.8744 59.9744 40.0406 60.3362 40.352C60.6981 40.6633 60.9318 41.0977 60.9921 41.5713C61.0096 41.764 61.3131 41.7663 61.2951 41.5713C61.2338 41.0174 60.9678 40.5064 60.5493 40.1384C60.1308 39.7704 59.5899 39.5719 59.0327 39.5819ZM54.8531 35.8044C55.6066 34.6605 56.6585 33.7445 57.8951 33.1555C58.0714 33.0716 57.9177 32.8099 57.7422 32.8938C56.4594 33.5082 55.3691 34.4617 54.5891 35.6511C54.4822 35.8149 54.7462 35.967 54.8531 35.8044ZM57.1213 35.7057C57.7369 35.1705 58.4556 34.7672 59.2332 34.5209C59.4188 34.4624 59.3397 34.1699 59.1529 34.2284C58.3256 34.4904 57.561 34.9198 56.9068 35.49C56.7594 35.6195 56.9743 35.8336 57.1213 35.7057ZM19.9871 44.4448C19.0305 44.1553 18.0151 44.1188 17.0402 44.3391C16.0653 44.5594 15.1642 45.0288 14.425 45.7015C13.6857 46.3742 13.1337 47.2271 12.8227 48.177C12.5117 49.1269 12.4525 50.1412 12.6508 51.1208C11.9425 51.4813 11.3443 52.026 10.9192 52.6976C4.08642 50.5939 -1.0062 58.9579 3.86958 64.0829C3.48985 64.7625 3.28859 65.5273 3.28458 66.3059C3.28458 66.3461 3.30057 66.3847 3.32902 66.4131C3.35747 66.4416 3.39606 66.4576 3.43629 66.4576C3.47653 66.4576 3.51512 66.4416 3.54357 66.4131C3.57202 66.3847 3.588 66.3461 3.588 66.3059C3.59088 65.5425 3.79726 64.7937 4.18587 64.1367C4.20205 64.1075 4.20847 64.074 4.20419 64.0409C4.19991 64.0079 4.18515 63.9771 4.16208 63.953C-0.663388 59.0445 4.31808 50.8615 10.945 53.0201C10.9772 53.0287 11.0114 53.0265 11.0422 53.0139C11.0731 53.0013 11.0991 52.979 11.1162 52.9503C11.5366 52.2474 12.1558 51.6847 12.8957 51.3334C12.9241 51.316 12.9462 51.29 12.9587 51.2592C12.9713 51.2284 12.9737 51.1944 12.9656 51.1622C12.7594 50.2284 12.8013 49.2569 13.0869 48.3443C13.3725 47.4316 13.892 46.6097 14.5936 45.96C15.2953 45.3103 16.1548 44.8555 17.0867 44.6409C18.0186 44.4263 18.9904 44.4592 19.9056 44.7365C19.9434 44.7447 19.9829 44.7382 20.0161 44.7182C20.0492 44.6982 20.0735 44.6664 20.0839 44.6291C20.0943 44.5918 20.0901 44.552 20.0721 44.5177C20.0541 44.4835 20.0237 44.4574 19.9871 44.4448ZM18.4981 54.2958C15.414 53.65 13.464 55.4128 13.5502 57.5769C13.0272 57.537 12.5021 57.6173 12.0148 57.8114C11.5276 58.0055 11.0912 58.3085 10.739 58.6971C10.3867 59.0857 10.128 59.5496 9.98245 60.0535C9.83694 60.5574 9.80852 61.0879 9.89937 61.6044C9.93135 61.7963 10.2239 61.7152 10.1919 61.5237C10.1134 61.0508 10.1442 60.5662 10.2819 60.1071C10.4197 59.6479 10.6607 59.2264 10.9865 58.8748C11.3123 58.5232 11.7143 58.2508 12.1617 58.0786C12.609 57.9063 13.0898 57.8388 13.5673 57.8811C13.6063 57.8764 13.5541 58.0067 13.712 58.4801C13.7732 58.6646 14.0665 58.5854 14.0045 58.3994C13.819 57.8457 13.8019 57.2493 13.9553 56.6859C14.1087 56.1224 14.4258 55.6171 14.8664 55.2338C16.2279 54.0583 19.0106 54.3551 19.5008 55.2677C19.5932 55.4397 19.8553 55.2868 19.7629 55.1148C19.6248 54.8941 19.44 54.7063 19.2215 54.5648C19.0029 54.4233 18.756 54.3315 18.4981 54.2958Z" fill="#AC47F5"/>
<path d="M5.71862 55.1779C5.19469 55.4119 4.75362 55.7987 4.45314 56.2875C4.15267 56.7764 4.00679 57.3446 4.0346 57.9177C4.04708 58.1127 4.35011 58.1127 4.33802 57.9177C4.31112 57.3977 4.44357 56.8818 4.71766 56.4391C4.99175 55.9964 5.39443 55.6478 5.87189 55.44C6.0509 55.364 5.89646 55.1023 5.71862 55.1779ZM14.9858 53.0731C15.0248 53.2642 15.3181 53.1835 15.2783 52.9924C15.2358 52.7961 15.2477 52.592 15.3126 52.402C15.3776 52.2119 15.4931 52.0432 15.6468 51.914C15.8005 51.7847 15.9865 51.6998 16.1848 51.6684C16.3832 51.637 16.5863 51.6603 16.7724 51.7358C16.9085 51.7865 16.9939 51.6188 16.9436 51.5131C15.9046 49.2971 17.7345 47.3042 19.4841 47.8534C19.6705 47.9122 19.7508 47.6194 19.5648 47.5609C17.7318 46.9856 15.6589 48.9075 16.5618 51.3731C16.3358 51.3387 16.1047 51.3601 15.8889 51.4355C15.673 51.5109 15.4789 51.6379 15.3234 51.8056C15.168 51.9733 15.056 52.1765 14.9971 52.3974C14.9382 52.6183 14.9344 52.8503 14.9858 53.0731ZM14.1473 41.4145C15.6514 41.0567 17.2212 41.0812 18.7134 41.4858C18.7518 41.4954 18.7925 41.4896 18.8267 41.4696C18.8609 41.4496 18.8859 41.417 18.8964 41.3788C18.9069 41.3406 18.902 41.2998 18.8828 41.2652C18.8637 41.2305 18.8317 41.2047 18.7938 41.1933C17.2487 40.7752 15.6235 40.7507 14.0666 41.122C13.8766 41.1672 13.9574 41.4597 14.1473 41.4145ZM12.4687 43.7014C13.4612 43.1352 14.5935 42.8612 15.735 42.9109C15.93 42.9195 15.93 42.616 15.735 42.6075C14.5396 42.5577 13.3544 42.846 12.3155 43.4393C12.2807 43.4597 12.2555 43.493 12.2453 43.5319C12.2351 43.5709 12.2407 43.6123 12.2611 43.647C12.2814 43.6818 12.3147 43.707 12.3536 43.7172C12.3926 43.7274 12.434 43.7217 12.4687 43.7014ZM29.2329 68.3549C26.9522 67.2886 24.3516 68.6704 23.9145 70.746C22.7097 70.3146 21.1583 71.1063 20.72 73.1546C20.681 73.3449 20.9715 73.4276 21.0125 73.2353C21.4173 71.3446 22.7893 70.6411 23.8649 71.0474C23.7979 71.5262 23.9115 72.0128 24.1836 72.4124C24.297 72.5684 24.5603 72.4179 24.4456 72.2596C23.1777 70.5124 26.052 67.1978 29.08 68.615C29.2559 68.6989 29.4099 68.4376 29.2329 68.3549ZM31.9598 68.7831C31.6334 68.7011 31.2887 68.7363 30.9857 68.8827C30.6827 69.029 30.4408 69.2772 30.3022 69.5837C30.1636 69.8903 30.1371 70.2359 30.2273 70.56C30.3176 70.8842 30.5189 71.1663 30.796 71.3571C30.9559 71.4698 31.108 71.2073 30.9489 71.095C30.7333 70.9425 30.5779 70.7194 30.5095 70.4643C30.4412 70.2092 30.4643 69.9383 30.5748 69.6984C30.6853 69.4586 30.8762 69.2649 31.1145 69.1511C31.3528 69.0373 31.6234 69.0104 31.8794 69.0752C32.069 69.122 32.1497 68.8295 31.9598 68.7831Z" fill="#AC47F5"/>
<path d="M26.2411 69.3658C25.9832 69.5428 25.7682 69.7753 25.6119 70.0463C25.4556 70.3173 25.362 70.6198 25.3379 70.9317C25.3379 70.9719 25.3539 71.0105 25.3823 71.0389C25.4108 71.0674 25.4494 71.0834 25.4896 71.0834C25.5298 71.0834 25.5684 71.0674 25.5969 71.0389C25.6253 71.0105 25.6413 70.9719 25.6413 70.9317C25.6632 70.6723 25.7419 70.421 25.872 70.1955C26.0022 69.9701 26.1804 69.7762 26.394 69.6275C26.4279 69.6065 26.4525 69.5732 26.4626 69.5346C26.4728 69.4961 26.4678 69.455 26.4486 69.42C26.4281 69.3855 26.3949 69.3604 26.356 69.3503C26.3172 69.3401 26.2759 69.3457 26.2411 69.3658Z" fill="#AC47F5"/>
<path d="M25.7784 58.8776L18.9315 59.0406L20.5785 59.8007C20.8386 59.8264 20.043 59.8561 27.5525 59.4282L25.7784 58.8776ZM18.3649 59.1123C18.0919 59.8826 14.975 68.7528 14.9609 68.7918L17.2027 70.4727C17.377 69.961 16.6469 72.2507 20.4716 60.087C20.4467 60.0772 20.6725 60.177 18.3649 59.1123Z" fill="#F76559"/>
<path d="M60.3046 42.8645C59.8174 42.565 59.9352 42.645 53.2327 42.3965C52.7791 30.7433 48.7024 10.8299 38.3565 5.08483C37.7961 4.77889 37.163 4.63123 36.5251 4.65768C35.8872 4.68414 35.2685 4.8837 34.7354 5.23498C34.0142 5.73808 33.3365 6.30074 32.7093 6.91705C26.4019 12.87 23.2323 22.2043 21.9317 30.8143C20.8908 37.7056 20.6341 51.5311 21.053 57.3433C21.067 57.5383 21.3705 57.5383 21.3564 57.3433C20.9547 51.8478 21.2589 40.1915 21.7004 35.2814C22.6547 24.6601 26.2755 11.7589 34.7521 5.59378C35.2869 5.20553 35.9266 4.9883 36.5872 4.97069C37.2478 4.95308 37.8982 5.13591 38.4529 5.49511C48.6927 11.7304 52.2682 30.4586 52.9304 42.3864L51.2675 42.3248C51.0725 42.3177 51.0725 42.6212 51.2675 42.6282C59.9602 42.9468 59.7539 42.8879 60.138 43.118C60.3332 43.2364 60.4941 43.4037 60.6048 43.6032C60.7156 43.8028 60.7725 44.0278 60.7698 44.256C60.7698 44.3504 60.5393 62.6418 60.5389 62.664C60.5368 62.852 60.4941 63.0372 60.4137 63.2071C60.3334 63.377 60.2174 63.5276 60.0735 63.6486C59.9297 63.7695 59.7615 63.858 59.5803 63.908C59.3991 63.958 59.2093 63.9683 59.0238 63.9382L52.6999 63.3699C52.5049 63.3524 52.5049 63.6562 52.6999 63.6734L59.0569 64.2447C59.2801 64.27 59.5061 64.2483 59.7203 64.1808C59.9346 64.1134 60.1323 64.0018 60.3007 63.8532C60.4692 63.7046 60.6046 63.5224 60.6982 63.3182C60.7918 63.114 60.8416 62.8925 60.8443 62.6679C60.8443 62.6289 61.0752 44.2904 61.0756 44.251C61.0763 43.9732 61.0058 43.6999 60.8708 43.4572C60.7359 43.2145 60.5409 43.0104 60.3046 42.8645Z" fill="#1D1D1B"/>
<path d="M49.1614 43.3263C49.0049 43.0802 48.7928 42.8743 48.5421 42.7253C48.2915 42.5762 48.0093 42.4882 47.7183 42.4683C47.4863 42.4614 47.2545 42.4887 47.0304 42.5494C40.3735 44.0751 39.9651 44.0333 39.0143 44.7447C38.5309 45.1059 38.1306 45.5666 37.8404 46.0958C37.5503 46.6249 37.3772 47.2102 37.3326 47.812C37.3128 48.0975 37.3229 68.0893 37.3229 68.0893C37.3229 68.1295 37.3389 68.1681 37.3673 68.1966C37.3958 68.225 37.4344 68.241 37.4746 68.241C37.5148 68.241 37.5534 68.225 37.5819 68.1966C37.6103 68.1681 37.6263 68.1295 37.6263 68.0893V48.2266C37.6043 47.5516 37.7597 46.8827 38.0771 46.2866C38.3944 45.6904 38.8625 45.188 39.4347 44.8293C40.2077 44.3399 40.0977 44.451 47.044 42.8575C47.1915 42.8174 47.3418 42.7888 47.4937 42.7721C47.7751 42.7536 48.0563 42.8122 48.3069 42.9417C48.5574 43.0712 48.7679 43.2666 48.9157 43.5068C49.3474 44.2201 49.1828 48.9797 49.3837 49.1263C49.4052 49.1448 49.4316 49.1566 49.4597 49.1605C49.4878 49.1644 49.5164 49.1601 49.5422 49.1482C49.5679 49.1363 49.5897 49.1173 49.605 49.0933C49.6202 49.0694 49.6283 49.0416 49.6282 49.0132C49.4277 43.9467 49.501 43.8629 49.1614 43.3263ZM50.4343 43.0139C50.4222 42.8189 50.1192 42.8189 50.1313 43.0139L50.4893 48.835C50.501 49.03 50.8048 49.03 50.7927 48.835C50.7693 48.4567 50.4663 43.524 50.4343 43.0139Z" fill="#1D1D1B"/>
<path d="M62.5071 61.9027L60.6292 59.4656C60.5511 59.3846 60.4459 59.3353 60.3338 59.327C60.2216 59.3187 60.1103 59.3521 60.0212 59.4208L59.0953 60.1348C58.5924 59.5834 57.9559 59.1708 57.2471 58.9368C57.4265 59.0569 57.6172 59.2238 57.6215 59.3931C58.0779 59.6365 58.4935 59.9498 58.8532 60.3217L57.0354 61.7233C56.7351 61.297 56.0506 60.2893 56.0471 59.7679C55.9379 59.7043 55.8642 59.6567 55.8642 59.6567C55.8642 59.6567 56.0841 60.2027 55.8696 60.3197C56.1132 60.8845 56.4229 61.4184 56.7924 61.9101L56.0334 62.4951C55.9452 62.563 55.8849 62.6607 55.8638 62.77C55.8426 62.8793 55.8622 62.9925 55.9188 63.0883L57.7428 65.3936C57.7737 65.4458 57.8147 65.4914 57.8634 65.5276C57.912 65.5638 57.9675 65.5899 58.0264 65.6044C58.0853 65.6189 58.1465 65.6216 58.2064 65.6122C58.2663 65.6028 58.3238 65.5815 58.3754 65.5496L62.4177 62.6063C62.4755 62.5704 62.5245 62.5222 62.5612 62.465C62.5979 62.4078 62.6214 62.3432 62.63 62.2758C62.6385 62.2084 62.6319 62.1399 62.6107 62.0754C62.5894 62.0108 62.554 61.9518 62.5071 61.9027Z" fill="#D1A9FF"/>
<path d="M57.6852 58.8807C57.7866 58.6923 57.5183 58.1814 55.9692 58.1397C55.8347 58.7409 55.4795 59.2697 54.974 59.6217C55.7025 60.7433 56.172 60.4271 55.8624 59.6607C56.7383 60.2266 56.9793 60.1053 57.0265 60.0339C57.2059 59.7652 56.8475 59.362 56.8475 59.362C56.8475 59.362 57.3693 59.7348 57.5191 59.601C57.8377 59.3171 57.3307 58.9564 56.9481 58.7703C57.0324 58.8058 57.5885 59.0601 57.6852 58.8807ZM45.2918 53.3088C45.6011 53.5342 45.3698 54.0954 45.1323 54.4156C45.0804 54.4866 45.0243 54.4413 45.2138 54.5303C45.2193 54.5337 45.2244 54.5378 45.229 54.5423C45.3917 54.3158 46.1412 53.2464 45.8835 53.1044C45.6888 52.9968 45.435 53.1789 45.2918 53.3088ZM45.0594 53.5506C44.8802 53.618 44.7157 53.7191 44.5746 53.8485C44.4186 53.9733 44.2306 53.7534 44.3691 53.6282C44.5789 53.4371 44.958 53.1645 45.2212 53.2682C45.5075 52.1762 44.933 52.23 44.3909 53.1122C44.5493 52.3322 44.1179 51.7936 43.3769 53.6894L43.4116 53.7062C43.6267 53.7553 43.8314 53.8418 44.0165 53.9616L44.8546 54.3579C44.8508 54.3414 44.8503 54.3243 44.8532 54.3076C44.856 54.2909 44.8622 54.275 44.8714 54.2608C45.0555 54.008 45.2598 53.5194 45.0594 53.5506Z" fill="#CC6666"/>
<path d="M51.5843 60.567H51.5028C51.2325 60.7355 51.0293 60.6953 49.5626 60.7023C49.619 60.981 49.7638 61.2339 49.9755 61.4236C50.1872 61.6134 50.4545 61.7297 50.7376 61.7553C50.7764 61.7661 50.8094 61.7917 50.8292 61.8267C50.8491 61.8617 50.8542 61.9032 50.8435 61.942C50.8328 61.9807 50.8071 62.0137 50.7721 62.0336C50.7371 62.0534 50.6957 62.0586 50.6569 62.0478C50.3095 62.0043 49.9854 61.85 49.7325 61.6079C49.4797 61.3658 49.3115 61.0487 49.2529 60.7035L46.8466 60.7179C46.8076 60.7166 46.7705 60.7008 46.7427 60.6735C46.7148 60.6462 46.6982 60.6095 46.6961 60.5705C46.1216 60.6009 44.044 60.8435 43.225 62.7545C42.2695 64.9838 45.8919 67.9688 45.8919 67.9688C45.8919 67.9688 47.6828 67.9298 48.2003 67.5706C48.2003 67.5706 45.7721 64.4265 46.4886 63.2323C47.0568 62.2857 47.8122 62.1294 48.6359 62.54C48.3341 62.2113 48.026 61.8864 47.6952 61.588C47.5498 61.457 47.765 61.2433 47.9093 61.3735C50.4814 63.6933 53.826 68.9395 53.8026 69.1369C54.2188 69.1696 55.395 69.2125 55.8825 68.725L51.5843 60.567Z" fill="#AC47F5"/>
<path d="M46.5486 58.6751C46.5821 59.6805 46.7081 60.6111 46.6988 60.5717C46.7009 60.6106 46.7175 60.6474 46.7454 60.6746C46.7732 60.7019 46.8103 60.7178 46.8493 60.7191L49.2556 60.7047C49.3133 61.0502 49.4812 61.3678 49.7343 61.6101C49.9873 61.8524 50.3119 62.0063 50.6596 62.049C50.6984 62.0597 50.7398 62.0546 50.7748 62.0347C50.8098 62.0149 50.8355 61.9819 50.8462 61.9431C50.8569 61.9043 50.8518 61.8629 50.8319 61.8279C50.8121 61.7929 50.7791 61.7672 50.7403 61.7565C50.4573 61.7306 50.1902 61.6142 49.9785 61.4245C49.7668 61.2348 49.6219 60.982 49.5653 60.7035L51.0172 60.6945C51.1687 60.7063 51.3203 60.6728 51.4527 60.5983C51.5851 60.5238 51.6924 60.4117 51.761 60.2761C51.8978 59.9711 51.846 59.9602 51.1139 57.2836C52.2746 58.1234 53.4767 58.9043 54.7156 59.6236C54.7545 59.6497 54.8005 59.6632 54.8474 59.6624C54.8942 59.6616 54.9397 59.6464 54.9777 59.6189C55.4936 59.259 55.8529 58.7159 55.9823 58.1003C55.9895 58.0744 55.9896 58.047 55.9828 58.0211C55.9759 57.9951 55.9623 57.9714 55.9433 57.9524C54.6633 56.892 50.9022 53.9982 49.2969 53.6055C49.366 53.8372 49.3991 53.9955 49.3905 53.9565C49.442 53.983 51.4392 54.6437 55.6645 58.1147C55.544 58.6093 55.2524 59.0454 54.8412 59.3455C53.5862 58.7001 50.3172 56.3636 49.1959 55.5399C49.038 55.4229 48.8867 55.6877 49.0427 55.802C49.0817 55.8305 50.3636 56.7528 50.7239 57.0075C50.759 57.135 51.4805 59.7503 51.5098 59.8787C51.5342 59.9788 51.5204 60.0844 51.4711 60.175C51.4219 60.2655 51.3407 60.3345 51.2434 60.3685C51.149 60.4009 51.3363 60.3864 46.9858 60.4145C46.7647 58.3666 46.6602 56.2922 47.7408 54.536C47.9401 54.2139 47.8262 54.5399 47.8446 53.8781C47.8157 53.9011 47.7896 53.9273 47.7666 53.9561C47.3968 54.4486 47.1113 54.9991 46.9218 55.5851C46.7039 55.7517 46.4595 55.8804 46.1988 55.9658C45.4823 56.1608 44.9925 55.8332 45.2831 54.6995C45.2908 54.6672 45.2883 54.6334 45.2758 54.6027C45.2634 54.572 45.2416 54.546 45.2136 54.5282C45.0233 54.4389 45.0783 54.4892 45.1321 54.4136C45.7803 53.5373 45.331 52.7518 44.3689 53.6262C44.3424 53.654 44.3275 53.691 44.3273 53.7295C44.3271 53.7679 44.3416 53.805 44.3679 53.8332C44.3941 53.8613 44.4301 53.8784 44.4685 53.8808C44.5069 53.8833 44.5448 53.871 44.5744 53.8465C44.7 53.7389 44.8377 53.6462 44.9847 53.5704C45.0896 53.5345 45.1774 53.4994 45.1134 53.7919C45.0659 53.945 44.9932 54.0892 44.8985 54.2186C44.8595 54.2716 44.8428 54.2966 44.8533 54.3578C43.6026 53.7666 43.4707 53.6336 43.2789 53.7338C43.087 53.834 42.9279 54.3134 42.8674 54.5138C42.0788 57.2072 44.7304 59.2234 46.5486 58.6751ZM43.5729 57.1873C43.2525 56.7241 43.0681 56.1805 43.0405 55.6179C43.0129 55.0554 43.1433 54.4964 43.4169 54.0041C43.4017 54.0131 43.4286 54.0107 43.4559 54.0212C43.5803 54.0704 43.6981 54.1472 43.8194 54.2045L44.9629 54.7451C44.8509 55.2591 44.8365 55.9007 45.3423 56.1998C45.5763 56.3021 45.8329 56.3415 46.0867 56.3141C46.3406 56.2867 46.5829 56.1936 46.7896 56.0438C46.6069 56.8024 46.5234 57.5815 46.5412 58.3615C45.5104 58.7118 44.1996 58.071 43.5729 57.1873ZM40.4513 35.4635C35.5253 33.7385 35.4461 26.4623 40.3449 24.6305C40.5254 24.5634 40.4432 24.2713 40.2645 24.338C35.0385 26.2907 35.1844 33.9394 40.371 35.756C40.5574 35.8211 40.628 35.5251 40.4513 35.4635ZM28.4362 59.3853C26.0217 58.6357 25.8657 58.585 25.8162 58.5768C25.7667 58.5686 22.1611 58.6611 18.2756 58.7527C18.2433 58.7563 18.2127 58.7685 18.1869 58.7882C18.1612 58.8078 18.1412 58.8341 18.1293 58.8643C18.1157 58.9033 14.6856 68.6634 14.6369 68.8054C14.5881 68.9473 14.5663 68.8728 17.214 70.8575C17.2717 70.9004 16.996 70.9285 20.3757 70.3353C20.4011 70.3284 20.4243 70.315 20.4429 70.2964C20.4615 70.2778 20.4749 70.2546 20.4818 70.2292C20.5598 69.9851 23.0269 62.0915 23.0499 62.0155L28.4854 62.191C28.5255 62.1906 28.5638 62.1744 28.5922 62.1461C28.6206 62.1177 28.6367 62.0794 28.6371 62.0392C28.5415 59.381 28.5899 59.4329 28.4362 59.3853ZM25.7776 58.8783L27.5517 59.429C19.2716 59.9013 21.2337 59.8014 20.5777 59.8014L18.9308 59.0413L25.7776 58.8783ZM17.2038 70.473L14.9621 68.7921C14.9765 68.7511 18.0934 59.8767 18.366 59.1127C21.3507 60.4902 20.2029 59.9797 20.472 60.0877C17.1871 70.5358 17.4078 69.8751 17.2038 70.473ZM20.2107 70.058L17.5116 70.5342C21.0995 59.1072 20.6705 60.4679 20.7758 60.1626L22.7602 61.9086C19.99 70.8104 20.3277 69.6665 20.2107 70.0576V70.058ZM22.9918 61.712L21.1608 60.099C21.1998 60.0967 28.1102 59.7024 28.2498 59.6922C28.274 60.3697 28.3278 61.8298 28.3278 61.8825L22.9918 61.712ZM53.805 69.1388C53.8291 68.9352 50.4899 63.7034 47.9117 61.3755C47.7674 61.2452 47.5517 61.4589 47.6976 61.59C48.93 62.7015 51.3441 65.5329 53.5249 69.2016C53.5419 69.2279 53.5665 69.2483 53.5955 69.2602C53.6244 69.2721 53.6563 69.2747 53.6868 69.2679C53.7174 69.261 53.7451 69.245 53.7662 69.2219C53.7873 69.1988 53.8008 69.1698 53.805 69.1388ZM55.5915 69.3307C54.9586 69.4887 54.3084 69.5673 53.656 69.5647C53.656 69.5647 52.1432 69.4056 51.984 69.6037C51.8249 69.8018 52.1432 70.7577 55.6859 70.3599C56.7225 70.2425 56.2951 69.1493 55.5915 69.3307ZM47.8298 68.016C47.1968 68.1742 46.5466 68.2528 45.8942 68.25C45.8942 68.25 44.3814 68.0913 44.2223 68.289C44.0631 68.4867 44.3814 69.4434 47.9241 69.0448C48.9608 68.9286 48.5325 67.8358 47.8298 68.016ZM48.4655 50.0475C49.1253 50.4504 48.7221 51.5498 48.7221 51.5498C49.5282 51.1103 49.6015 51.4398 49.4182 51.8794C49.3764 51.9999 49.3037 52.1074 49.2072 52.191C49.1108 52.2746 48.994 52.3313 48.8687 52.3555C48.8687 52.3555 48.9038 52.4492 48.9561 52.5938C50.9693 52.7822 51.1522 51.7 51.1877 51.4125C51.2267 51.0939 50.3121 51.074 50.3121 51.074C51.5601 50.3962 51.3612 49.6166 50.2731 49.9797C50.2731 49.9797 51.2286 49.5019 50.97 49.1634C50.7115 48.8249 49.2384 48.9247 48.4619 49.2024C48.2817 49.26 48.1171 49.3581 47.9807 49.4893C47.8443 49.6205 47.7399 49.7811 47.6753 49.959C47.8056 49.916 47.9437 49.9016 48.0801 49.9169C48.2164 49.9322 48.3479 49.9767 48.4655 50.0475ZM47.5704 50.7878C47.7459 50.8755 47.6535 50.9921 47.7736 51.0608C47.8084 51.0808 47.8496 51.0864 47.8885 51.0763C47.9273 51.0661 47.9606 51.0411 47.9811 51.0065C48.0571 50.8611 47.8734 50.5354 47.6507 50.4941C47.6118 50.4834 47.5702 50.4887 47.5352 50.5087C47.5001 50.5287 47.4744 50.5618 47.4637 50.6007C47.4531 50.6397 47.4583 50.6813 47.4783 50.7163C47.4984 50.7514 47.5315 50.7771 47.5704 50.7878ZM47.1402 51.6278C47.3676 51.6278 47.3676 51.2086 47.1402 51.2086C46.9129 51.2086 46.9133 51.6278 47.1402 51.6278ZM46.2717 52.6087C46.8072 52.7998 47.7315 52.3232 47.4807 52.0716C47.3091 51.8993 47.0193 52.4452 46.4667 52.3446C46.3657 52.3259 46.2116 52.2623 46.1672 52.4226C46.1577 52.4611 46.1633 52.5018 46.1827 52.5363C46.2021 52.5709 46.2339 52.5967 46.2717 52.6087ZM60.1526 59.9403L59.9896 62.8153L56.4484 62.7494C56.4095 62.7514 56.3729 62.7682 56.3461 62.7964C56.3193 62.8246 56.3043 62.862 56.3043 62.901C56.3043 62.9399 56.3193 62.9773 56.3461 63.0055C56.3729 63.0337 56.4095 63.0505 56.4484 63.0525L60.1323 63.1215C60.1722 63.1204 60.2102 63.1041 60.2384 63.0759C60.2666 63.0476 60.2829 63.0097 60.284 62.9698L60.456 59.9403C60.4669 59.7476 60.1639 59.7457 60.1526 59.9403Z" fill="#1D1D1B"/>
</svg>
