<svg width="24" height="24" viewBox="0 0 24 24" fill="none" xmlns="http://www.w3.org/2000/svg">
<path d="M3.74999 12.7498L18.7121 12.7498L12.9829 18.2068C12.6829 18.4926 12.6712 18.9673 12.957 19.2673C13.2424 19.5669 13.7171 19.5789 14.0175 19.2932L20.5605 13.0607C20.8436 12.7772 21 12.4007 21 11.9998C21 11.5993 20.8436 11.2224 20.5474 10.9266L14.0171 4.70681C13.872 4.56844 13.686 4.49981 13.5 4.49981C13.302 4.49981 13.104 4.57781 12.9566 4.73268C12.6709 5.03268 12.6825 5.50706 12.9825 5.79281L18.7357 11.2498L3.74999 11.2498C3.336 11.2498 2.99999 11.5858 2.99999 11.9998C2.99999 12.4138 3.336 12.7498 3.74999 12.7498Z" fill="#004EA3"/>
</svg>
