<svg width="75" height="55" viewBox="0 0 75 55" fill="none" xmlns="http://www.w3.org/2000/svg">
<path d="M73.6443 21.6552L39.2422 0.967875C38.0294 0.239875 36.5135 0.239875 35.3209 0.967875L0.898562 21.6552C0.453881 21.9181 0.312392 22.4843 0.575158 22.9292C0.676221 23.091 0.797498 23.2123 0.9592 23.2932L14.0571 29.6834V28.7128C14.0571 26.8523 14.9869 25.1334 16.5635 24.1628C29.2166 16.2154 45.306 16.2154 57.9592 24.1628C59.5156 25.1537 60.4656 26.8725 60.4656 28.7128V29.6834L65.8018 27.0748V33.647C64.9124 33.9705 64.4475 34.9614 64.7709 35.8512C64.8315 36.0332 64.9326 36.195 65.0337 36.3365C65.0337 36.3568 65.0135 36.3972 65.0135 36.4174L64.306 40.5023C64.1847 41.2505 64.69 41.9785 65.4379 42.0999C65.5188 42.1201 65.5996 42.1201 65.6805 42.1201H67.0751C67.8432 42.1201 68.4496 41.5134 68.4698 40.745C68.4698 40.6641 68.4698 40.5832 68.4496 40.5023L67.7422 36.4174C67.7422 36.3972 67.722 36.3568 67.722 36.3365C68.3081 35.5883 68.1869 34.5165 67.4592 33.9301C67.3177 33.8088 67.156 33.7279 66.9741 33.6672V26.5288L73.5635 23.3134C74.0283 23.091 74.2103 22.5248 73.9879 22.0799C73.9273 21.8777 73.806 21.7563 73.6443 21.6552Z" fill="#004EA3"/>
<path d="M56.9477 25.7802C44.9211 18.2373 29.6402 18.2373 17.5934 25.7802C16.5828 26.4071 15.9764 27.5193 15.9966 28.7124V37.1653C15.9966 37.8529 16.5423 38.3989 17.2296 38.3989C17.4519 38.3989 17.6742 38.3382 17.8764 38.2169C29.7817 30.8964 44.7796 30.8964 56.6647 38.2169C57.2508 38.5809 58.0189 38.3989 58.3625 37.8124C58.4838 37.6102 58.5445 37.3878 58.5445 37.1653V28.7124C58.5647 27.5193 57.9583 26.4273 56.9477 25.7802Z" fill="#004EA3"/>
<path d="M37.2827 44.0815C37.4242 44.1017 37.6061 44.1422 37.8486 44.1826C39.3039 44.4859 39.2029 47.0137 40.1731 49.6831C41.1433 52.3524 43.0029 54.9206 48.7635 54.4757C54.5242 54.0308 55.2316 48.8742 55.4135 47.7822C55.555 47.0542 55.7571 46.3464 56.0401 45.6588L56.6061 45.0926C56.7273 44.9713 56.788 44.8095 56.788 44.6477V41.9986C56.788 41.7155 56.5859 41.4526 56.3029 41.3919C55.3529 41.1695 53.1295 40.6842 50.2391 40.2797C46.3986 39.7135 42.4571 40.4617 41.6486 41.0279C41.1837 41.3515 40.6784 41.5942 40.1529 41.7762H34.3922C33.8667 41.5942 33.3614 41.3515 32.8965 41.0279C32.0678 40.4617 28.1465 39.7135 24.3061 40.2797C21.4156 40.7044 19.1922 41.1897 18.2625 41.3919C17.9795 41.4526 17.7773 41.7155 17.7773 41.9986V44.6477C17.7773 44.8095 17.838 44.9713 17.9593 45.0926L18.5252 45.6588C18.8082 46.3464 19.0305 47.0542 19.1518 47.7822C19.3337 48.8742 20.0412 54.0308 25.8018 54.4757C31.5625 54.9206 33.422 52.3524 34.3922 49.6831C35.3625 47.0137 35.2412 44.4859 36.7167 44.1826C36.939 44.1422 37.1412 44.1017 37.2827 44.0815ZM51.2901 52.858C49.4305 54.0511 45.3678 53.9904 42.9625 52.4737C40.6784 51.0582 39.4454 44.4859 41.5476 42.5244C43.6497 40.5831 48.1976 41.0279 48.1976 41.0279C48.6422 41.0684 54.1401 41.1291 54.322 45.4364C54.5039 49.7437 53.1497 51.6648 51.2901 52.858ZM20.2433 45.4566C20.4252 41.1493 25.9231 41.0886 26.3678 41.0482C26.3678 41.0482 30.9156 40.6033 33.0178 42.5446C35.1199 44.4859 33.8667 51.0582 31.6029 52.494C29.1976 53.9904 25.1348 54.0713 23.2752 52.8782C21.4156 51.6851 20.0614 49.7437 20.2433 45.4566Z" fill="#EA0723"/>
</svg>
