<svg width="78" height="78" viewBox="0 0 78 78" fill="none" xmlns="http://www.w3.org/2000/svg">
<path d="M45.1372 3.30712C44.9594 3.33712 44.7936 3.41646 44.6586 3.53609C44.5237 3.65571 44.4251 3.81083 44.374 3.98377C44.1556 4.82929 45.2507 5.54377 46.012 4.9888C46.902 4.33633 46.1758 3.13201 45.1372 3.30712ZM45.8645 4.65379C45.4121 5.07382 44.6165 4.66627 44.7066 4.1191C44.7307 4.00699 44.7867 3.90423 44.8678 3.82315C44.9488 3.74207 45.0516 3.68612 45.1637 3.66202C45.7538 3.50992 46.3817 4.17292 45.8638 4.65379H45.8645Z" fill="#1D1D1B"/>
<path d="M45.3476 3.99945C45.3059 3.99945 45.2651 4.01182 45.2304 4.03499C45.1958 4.05817 45.1687 4.09111 45.1528 4.12964C45.1368 4.16818 45.1326 4.21059 45.1408 4.2515C45.1489 4.29241 45.169 4.32999 45.1985 4.35948C45.228 4.38898 45.2656 4.40906 45.3065 4.4172C45.3474 4.42534 45.3898 4.42116 45.4283 4.4052C45.4669 4.38924 45.4998 4.36221 45.523 4.32752C45.5462 4.29284 45.5585 4.25207 45.5585 4.21035C45.5586 4.18264 45.5532 4.15519 45.5426 4.12958C45.532 4.10397 45.5165 4.0807 45.4969 4.06111C45.4773 4.04151 45.454 4.02598 45.4284 4.0154C45.4028 4.00482 45.3753 3.9994 45.3476 3.99945Z" fill="#1D1D1B"/>
<path d="M42.1369 20.8092C41.908 20.7789 41.6754 20.8194 41.4702 20.9251C41.265 21.0309 41.0971 21.1969 40.9891 21.4009C40.881 21.6048 40.8379 21.837 40.8656 22.0662C40.8933 22.2953 40.9904 22.5105 41.144 22.6829C41.2976 22.8552 41.5002 22.9764 41.7247 23.0303C41.9491 23.0841 42.1847 23.0679 42.3997 22.984C42.6147 22.9001 42.7989 22.7523 42.9276 22.5607C43.0562 22.369 43.1231 22.1426 43.1193 21.9118C43.132 21.6361 43.0363 21.3664 42.8527 21.1603C42.6691 20.9543 42.4122 20.8283 42.1369 20.8092Z" fill="#86F2AA"/>
<path d="M63.1827 21.9959C63.2409 22.2549 63.1098 22.265 62.799 22.444C62.09 22.8512 62.0775 22.8863 61.994 22.8301C61.9106 22.774 61.8252 22.717 61.7409 22.6612V23.0785C61.7409 23.1138 61.7269 23.1476 61.702 23.1726C61.677 23.1975 61.6432 23.2115 61.6079 23.2115C61.5727 23.2115 61.5388 23.1975 61.5139 23.1726C61.4889 23.1476 61.4749 23.1138 61.4749 23.0785V22.4156C61.4751 22.3923 61.4813 22.3694 61.493 22.3492C61.5046 22.3291 61.5213 22.3123 61.5414 22.3005C61.5614 22.2887 61.5843 22.2823 61.6075 22.282C61.6308 22.2816 61.6538 22.2873 61.6742 22.2985C61.8053 22.3851 61.9336 22.4717 62.0642 22.5583C62.3478 22.3941 62.6297 22.2322 62.9136 22.0681C62.888 21.9435 62.8261 21.8293 62.7358 21.7397C62.6781 21.6796 62.6159 21.6239 62.5498 21.5731C62.5202 21.5536 62.4995 21.5231 62.4922 21.4883C62.4849 21.4536 62.4915 21.4174 62.5108 21.3875C62.337 21.5755 62.1253 21.7246 61.8897 21.8248C61.6541 21.925 61.3999 21.9742 61.1439 21.969C60.888 21.9638 60.636 21.9044 60.4046 21.7947C60.1733 21.685 59.9678 21.5274 59.8018 21.3325C59.7854 21.345 59.7695 21.358 59.7539 21.3715C59.7574 21.3959 59.7539 21.4208 59.7437 21.4432C59.7334 21.4656 59.7169 21.4846 59.6961 21.4979C59.5178 21.611 59.3882 21.7867 59.3327 21.9904L60.1825 22.4807L60.5725 22.2209C60.5929 22.2092 60.616 22.203 60.6395 22.2031C60.6631 22.2031 60.6862 22.2094 60.7065 22.2213C60.7268 22.2332 60.7436 22.2502 60.7552 22.2707C60.7668 22.2912 60.7728 22.3144 60.7725 22.3379V23.0009C60.7707 23.035 60.7559 23.0671 60.7311 23.0906C60.7063 23.114 60.6735 23.1271 60.6394 23.1271C60.6052 23.1271 60.5724 23.114 60.5476 23.0906C60.5229 23.0671 60.508 23.035 60.5062 23.0009V22.5836C60.264 22.7432 60.218 22.8083 60.1162 22.7525C59.1435 22.1968 59.1045 22.1983 59.069 22.1133C58.9529 22.2833 58.8476 22.4604 58.7539 22.6437C59.0557 22.9846 59.4264 23.2576 59.8415 23.4447C60.2566 23.6318 60.7067 23.7287 61.162 23.7291C61.6173 23.7296 62.0675 23.6334 62.4829 23.447C62.8983 23.2607 63.2695 22.9883 63.572 22.648C63.475 22.4127 63.3438 22.193 63.1827 21.9959Z" fill="#FEE253"/>
<path d="M45.3274 41.6224L57.3284 41.7764C57.4455 41.7775 57.5614 41.7526 57.6676 41.7035C57.7739 41.6544 57.868 41.5823 57.9431 41.4925L61.4277 37.291C61.5194 37.1791 61.5784 37.0441 61.5982 36.9008C61.6181 36.7575 61.598 36.6115 61.5401 36.4789C61.4823 36.3463 61.389 36.2322 61.2705 36.1493C61.152 36.0663 61.0129 36.0177 60.8685 36.0087L48.4212 35.2287L45.3274 41.6224ZM31.6895 34.5856C32.9941 36.0524 34.1386 37.6543 35.1035 39.3639C35.3003 39.6604 35.4548 39.9829 35.5625 40.3221C35.5889 40.3096 35.6185 40.3058 35.6472 40.3112C37.7103 38.6342 40.5951 35.9639 43.3134 35.9213C43.2963 35.8961 43.2873 35.8661 43.2877 35.8356C43.2882 35.805 43.2979 35.7753 43.3157 35.7505C43.5061 35.4577 43.7326 35.1901 43.9901 34.9541L32.393 34.2276C32.2547 34.2206 32.1169 34.2499 31.9935 34.3128C31.87 34.3756 31.7652 34.4696 31.6895 34.5856Z" fill="#FDE992"/>
<path d="M46.8059 22.0326C46.8194 21.7566 46.724 21.4864 46.5402 21.2801C46.3563 21.0739 46.0988 20.9482 45.8231 20.9301C45.5942 20.8999 45.3616 20.9404 45.1565 21.0462C44.9514 21.152 44.7835 21.3181 44.6755 21.5221C44.5675 21.726 44.5245 21.9582 44.5522 22.1873C44.58 22.4165 44.6772 22.6316 44.8307 22.8039C44.9843 22.9762 45.187 23.0974 45.4114 23.1512C45.6359 23.205 45.8714 23.1888 46.0864 23.1049C46.3014 23.0209 46.4856 22.8732 46.6142 22.6815C46.7428 22.4898 46.8097 22.2634 46.8059 22.0326ZM23.7569 29.0799C22.2164 27.417 18.0925 26.3639 14.1406 27.7734C14.2754 28.1832 14.4212 28.5894 14.5778 28.9914C16.8234 27.5577 21.2051 28.1888 23.7569 29.0799Z" fill="#FEE253"/>
<path d="M44.4969 36.461C41.7879 35.4548 38.1886 38.6782 36.1119 40.3899C36.3272 40.4636 36.5242 40.5825 36.6899 40.7386C36.8555 40.8946 36.9859 41.0842 37.0724 41.2947C37.0939 41.3351 37.0988 41.3823 37.0862 41.4263C37.0735 41.4703 37.0444 41.5077 37.0048 41.5307C36.9651 41.5537 36.9182 41.5604 36.8737 41.5495C36.8293 41.5385 36.7908 41.5108 36.7663 41.4721C36.7016 41.3867 36.6789 41.3707 36.684 41.2904C36.6672 41.2547 36.6472 41.2207 36.6243 41.1886C36.5339 41.0564 36.4181 40.9435 36.2836 40.8565C36.1492 40.7695 35.9988 40.71 35.8412 40.6816C36.2702 41.0872 36.3837 41.7654 36.4157 42.3524C36.4289 42.5805 36.074 42.5782 36.0608 42.3524C36.0862 41.8032 35.8932 41.2664 35.5241 40.859C35.4949 40.8804 35.4597 40.8923 35.4235 40.8931C35.3872 40.8939 35.3516 40.8836 35.3214 40.8635C35.2912 40.8435 35.2679 40.8146 35.2546 40.7809C35.2412 40.7472 35.2385 40.7102 35.2469 40.675C35.2469 40.675 35.2535 40.6157 35.2535 40.5732C35.2391 40.5524 35.2299 40.5285 35.2268 40.5034C35.2237 40.4784 35.2267 40.4529 35.2355 40.4293C35.1673 40.2035 35.0664 39.9889 34.936 39.7924C32.3511 35.1448 28.501 31.0408 23.3101 29.3111C21.0376 28.5736 17.3603 28.0117 15.1404 29.0803C14.338 29.4591 13.688 30.0992 13.2969 30.8957C16.2692 31.3975 19.0765 32.6096 21.4799 34.4291C26.6372 38.2714 27.0479 44.9525 28.2058 50.7245C28.8688 54.0317 29.4062 60.347 32.0609 62.9163C32.7633 62.7623 33.3904 62.3695 33.8354 61.8048C33.7091 61.7759 33.6159 61.6207 33.7426 61.5166C34.2925 61.0493 34.6933 60.4309 34.8951 59.7381C35.097 59.0453 35.0912 58.3084 34.8783 57.6189C34.8073 57.4017 35.1513 57.3069 35.2199 57.5234C35.3338 57.8838 35.3936 58.2592 35.3974 58.6372C35.5314 58.0057 35.5532 57.3555 35.4617 56.7164C34.5164 54.6159 35.9489 52.9869 38.0326 52.031C37.851 51.2356 37.4279 50.5158 36.8213 49.9702C34.789 50.611 32.5968 50.5216 30.6234 49.7175C30.2443 49.5781 29.8778 49.4067 29.5279 49.205C29.4882 49.1808 29.4596 49.142 29.4483 49.0969C29.437 49.0518 29.4438 49.004 29.4673 48.9639C29.4908 48.9238 29.5291 48.8945 29.574 48.8823C29.6189 48.8702 29.6668 48.8761 29.7073 48.8989C29.8773 48.9971 30.0521 49.0866 30.2311 49.1672C32.197 50.1034 34.4372 50.2897 36.5307 49.691C39.8134 48.6512 45.5195 44.9236 46.4488 41.439C47.0873 38.8568 46.0077 37.0218 44.4969 36.461Z" fill="#FEE253"/>
<path d="M62.9803 19.3385C62.9797 19.3114 62.9729 19.2847 62.9604 19.2605C62.7932 18.938 62.5416 18.6667 62.2326 18.4757C61.9235 18.2846 61.5684 18.1808 61.2051 18.1754C60.8418 18.17 60.4838 18.263 60.1691 18.4448C59.8545 18.6265 59.5949 18.8901 59.4181 19.2075C59.0476 19.3986 58.9337 20.5265 59.2714 20.585C59.5425 20.6365 59.8104 19.8892 59.6961 19.4216C59.9052 19.0623 60.2285 18.7835 60.6146 18.6295C60.9954 18.499 61.4104 18.5088 61.7846 18.6573C62.1588 18.8057 62.4677 19.083 62.6555 19.4392C62.6614 19.4485 62.6681 19.4573 62.6753 19.4657C62.6174 19.6679 62.6104 19.8814 62.6547 20.087C62.6991 20.2927 62.7935 20.4842 62.9296 20.6446C63.345 20.9543 63.3992 19.686 62.9803 19.3385Z" fill="#AC47F5"/>
<path d="M55.8224 9.8124C55.8047 9.82223 55.785 9.82795 55.7648 9.82915C55.7446 9.83034 55.7244 9.82697 55.7056 9.81929C55.6869 9.81162 55.6702 9.79983 55.6566 9.78479C55.6431 9.76976 55.6331 9.75187 55.6274 9.73245C55.5535 9.2951 55.3279 8.89775 54.9902 8.61021C54.6525 8.32266 54.2243 8.16331 53.7807 8.16014C53.3372 8.15698 52.9067 8.3102 52.5649 8.59289C52.2232 8.87559 51.9919 9.26968 51.9118 9.70593C51.902 9.7398 51.8793 9.76849 51.8487 9.7859C51.818 9.80331 51.7818 9.80806 51.7476 9.79914C51.7051 9.78603 51.6601 9.78265 51.6161 9.78925C51.5721 9.79585 51.5301 9.81226 51.4932 9.83727C51.4564 9.86228 51.4256 9.89525 51.4032 9.93375C51.3809 9.97224 51.3674 10.0153 51.3639 10.0597C51.3608 10.1067 51.3693 10.1538 51.3886 10.1969C51.4079 10.2399 51.4374 10.2776 51.4746 10.3067C51.5117 10.3357 51.5554 10.3553 51.6019 10.3636C51.6483 10.372 51.6961 10.3688 51.741 10.3545C51.7751 10.3457 51.8113 10.3505 51.842 10.3679C51.8726 10.3853 51.8953 10.4139 51.9052 10.4477C52.3436 12.4589 55.2077 12.3416 55.6254 10.4235C55.6301 10.4066 55.638 10.3908 55.6488 10.377C55.6595 10.3631 55.6729 10.3515 55.6882 10.3429C55.7034 10.3342 55.7202 10.3287 55.7376 10.3265C55.755 10.3243 55.7727 10.3256 55.7896 10.3303C55.8264 10.3499 55.8666 10.362 55.9081 10.3661C55.9496 10.3701 55.9914 10.3659 56.0313 10.3537C56.0711 10.3415 56.1082 10.3216 56.1403 10.2951C56.1724 10.2686 56.1991 10.2361 56.2186 10.1993C56.2418 10.1442 56.2479 10.0834 56.236 10.0249C56.2242 9.9663 56.195 9.91265 56.1522 9.87091C56.1095 9.82917 56.0551 9.80126 55.9963 9.79083C55.9375 9.78039 55.8769 9.78791 55.8224 9.8124Z" fill="#9B6868"/>
<path d="M50.2462 22.0326C50.2598 21.7566 50.1644 21.4864 49.9805 21.2801C49.7967 21.0739 49.5391 20.9482 49.2634 20.9301C49.0346 20.8999 48.802 20.9404 48.5969 21.0462C48.3917 21.152 48.2239 21.3181 48.1159 21.5221C48.0079 21.726 47.9648 21.9582 47.9926 22.1873C48.0203 22.4165 48.1175 22.6316 48.2711 22.8039C48.4247 22.9762 48.6273 23.0974 48.8518 23.1512C49.0762 23.205 49.3118 23.1888 49.5268 23.1049C49.7418 23.0209 49.926 22.8732 50.0546 22.6815C50.1832 22.4898 50.25 22.2634 50.2462 22.0326Z" fill="#F76559"/>
<path d="M14.8708 25.3344C14.8045 25.5703 14.7928 25.2092 14.9016 27.1674C15.2389 27.0767 15.5801 27.0012 15.9242 26.9412C15.3852 26.5555 15.0095 25.9825 14.8708 25.3344ZM24.9948 13.4601C24.7813 13.2032 24.554 12.9582 24.3138 12.7261C23.6306 13.8937 22.3315 14.2553 22.2153 15.4744C22.2277 15.5134 22.4781 16.3219 22.5237 16.5348C24.8466 17.3905 25.2966 20.8467 23.4176 22.2822C22.8989 22.6705 22.2714 22.8861 21.6236 22.8988C22.0054 23.1816 21.9984 23.6539 21.8654 24.1121C21.7769 24.4715 21.6145 24.8084 21.3884 25.1014C21.1622 25.3944 20.8775 25.637 20.5523 25.8137C20.222 25.9806 19.8451 26.0318 19.4823 25.9589C19.1194 25.8861 18.7915 25.6935 18.5512 25.412C18.6131 25.6522 18.6087 25.9047 18.5384 26.1426C18.4682 26.3805 18.3347 26.5949 18.1522 26.763C19.956 26.7582 21.7254 27.2568 23.2612 28.2028C23.2012 27.6104 23.1442 27.0204 23.0838 26.4279C23.1193 26.7899 26.1184 25.0239 26.3598 24.7798C27.1843 23.9133 27.7231 22.8146 27.9034 21.6321C28.3932 18.681 26.8395 15.6729 24.9948 13.4601ZM46.9163 40.9157C47.7579 40.2812 48.3499 39.3713 48.589 38.3448C48.5977 38.3151 48.6138 38.2882 48.636 38.2667C48.6581 38.2451 48.6855 38.2297 48.7153 38.2218C48.7452 38.214 48.7766 38.214 48.8065 38.2219C48.8364 38.2297 48.8637 38.2452 48.8858 38.2668C49.0513 38.4499 49.2743 38.5711 49.518 38.6104C49.608 38.6056 49.6943 38.573 49.7651 38.5172C49.8358 38.4613 49.8875 38.3848 49.9131 38.2984C50.0882 37.846 49.7379 37.4064 49.4739 37.0738C49.1333 36.8525 48.726 36.7576 48.3226 36.8055C48.278 36.8161 48.2309 36.809 48.1914 36.7857C48.1519 36.7624 48.1229 36.7247 48.1106 36.6804C48.0983 36.6362 48.1036 36.589 48.1254 36.5486C48.1472 36.5082 48.1838 36.4778 48.2275 36.4638C48.7399 36.3842 49.2634 36.5032 49.6911 36.7965C49.9883 36.9135 50.4169 37.0449 50.5628 36.6612C50.5981 36.4904 50.5874 36.3133 50.5316 36.1481C50.4759 35.9828 50.3772 35.8354 50.2457 35.7209C50.1061 35.557 49.9541 35.4042 49.791 35.2638C49.5196 35.1468 49.2274 35.0861 48.9319 35.0854C48.6364 35.0846 48.3438 35.1439 48.0719 35.2595C48.0312 35.2816 47.9837 35.2874 47.9389 35.2758C47.8941 35.2642 47.8553 35.2361 47.8305 35.1971C47.8064 35.1566 47.7994 35.1082 47.811 35.0625C47.8225 35.0168 47.8517 34.9776 47.8921 34.9533C48.2592 34.7921 48.659 34.7192 49.0593 34.7404C48.1741 34.201 47.1151 34.0236 46.1024 34.245C45.0897 34.4664 44.2014 35.0696 43.622 35.9291C45.7549 36.0621 47.3539 38.0613 46.9163 40.9157Z" fill="#FFCEB6"/>
<path d="M46.7355 65.4361C45.9438 65.4361 45.693 66.4364 45.5577 67.0464C45.4446 67.5664 45.3514 68.0899 45.278 68.6169C46.3315 68.0383 47.3314 67.3674 48.2662 66.6119C47.9269 66.0936 47.356 65.4361 46.7355 65.4361ZM30.4148 68.4762C30.2882 68.2717 30.113 68.1017 29.9046 67.9816C29.7905 67.9282 29.6658 67.9012 29.5397 67.9028C29.4137 67.9043 29.2897 67.9344 29.1769 67.9906C28.724 68.2435 28.3594 68.6289 28.1321 69.0951C27.5719 70.2256 27.251 71.4596 27.1895 72.7197C28.7083 72.8332 30.2334 72.8344 31.7525 72.7233C31.6786 72.2275 31.5792 71.7358 31.4549 71.2502C31.2143 70.3006 30.9865 69.2909 30.4148 68.4762Z" fill="#FF8684"/>
<path d="M50.9042 61.0085C50.3941 60.2336 49.469 60.1637 48.5506 60.3209C44.7594 60.9668 41.4167 63.4109 37.5436 64.0809C35.8643 64.3714 33.9923 64.405 32.6167 63.398C29.4648 61.1021 28.9422 54.3945 28.207 50.7292C27.051 44.9572 26.6384 38.2758 21.4811 34.4339C18.1224 31.9332 13.6573 30.2535 9.44722 30.8712C7.7788 31.1177 6.11545 31.7682 4.96417 33.001C1.06417 37.174 2.45296 45.988 3.65728 50.9999C4.98601 56.5254 7.49488 62.0225 11.5302 66.1038C11.9705 65.2716 12.7143 65.0356 13.2314 65.2189C13.7329 65.3964 13.9303 65.9041 14.1101 66.3589C14.4378 67.1945 14.7114 68.0504 14.9291 68.9212C16.3202 69.8491 17.8253 70.5935 19.407 71.136C21.8131 71.9539 24.3096 72.4764 26.8416 72.6921C27.184 68.3908 29.3517 66.2747 30.7568 68.351C31.3492 69.2297 31.5821 70.3076 31.8438 71.3189C31.9567 71.7731 32.0437 72.2334 32.1043 72.6976C34.7144 72.4775 37.2852 71.9213 39.753 71.0428C41.52 70.432 43.2394 69.6913 44.8971 68.8268C44.9415 68.4723 44.9926 68.1194 45.0531 67.7687C45.197 66.9704 45.3651 65.8538 45.9957 65.3507C46.1581 65.2215 46.3511 65.1364 46.556 65.1034C46.7609 65.0704 46.9709 65.0907 47.1657 65.1624C47.7382 65.418 48.2172 65.8451 48.5365 66.3846C49.3684 65.6304 50.6706 64.0754 51.052 62.6796C51.0543 62.1192 51.0048 61.5598 50.9042 61.0085Z" fill="#FF8684"/>
<path d="M12.8947 65.5137C12.6496 65.5356 12.4159 65.6277 12.2216 65.7787C12.0273 65.9298 11.8805 66.1336 11.7988 66.3658C12.6292 67.1878 13.527 67.9388 14.4828 68.6107C14.2849 67.8778 14.0465 67.1565 13.7687 66.4501C13.6108 66.046 13.4158 65.5199 12.8947 65.5137Z" fill="#FF8684"/>
<path d="M62.6752 19.4637C62.596 19.3257 62.5015 19.197 62.3937 19.08C62.1759 18.8359 61.8902 18.6624 61.5732 18.5818C61.2562 18.5012 60.9224 18.5171 60.6145 18.6276C60.2258 18.7772 59.9012 19.0572 59.696 19.4197C59.7386 19.6154 59.735 19.8183 59.6854 20.0124C59.6357 20.2064 59.5415 20.3862 59.4102 20.5374C59.4945 20.9341 59.7097 21.2909 60.0212 21.5506C60.3327 21.8103 60.7224 21.9578 61.1278 21.9694C61.5332 21.9811 61.9307 21.8562 62.2566 21.6148C62.5825 21.3734 62.8178 21.0296 62.9248 20.6384C62.7904 20.4779 62.6973 20.2869 62.6538 20.0821C62.6103 19.8774 62.6177 19.665 62.6752 19.4637Z" fill="#FFCEB6"/>
<path d="M37.1976 12.2436C37.0378 12.2998 36.8626 12.2934 36.7074 12.2256C35.8338 13.559 35.8837 13.3976 35.9707 13.5544C36.2643 14.0696 36.5751 14.575 36.9024 15.0695C37.1957 14.4545 37.7896 13.5232 37.7896 13.4436C37.7881 13.4042 37.8306 13.5294 37.1976 12.2436ZM36.9679 11.9242C37.037 11.9243 37.1052 11.9088 37.1674 11.8788C37.2296 11.8488 37.2842 11.8051 37.3271 11.751C37.1088 11.7773 36.888 11.7735 36.6707 11.7397C36.703 11.791 36.7465 11.8343 36.798 11.8663C36.8495 11.8983 36.9076 11.9181 36.9679 11.9242Z" fill="#F76559"/>
<path d="M35.031 9.8623C35.0763 9.85042 35.1243 9.85675 35.165 9.87994C35.2056 9.90313 35.2355 9.94132 35.2482 9.98632C35.673 11.9301 38.472 11.8583 38.8838 9.96292C38.8966 9.91784 38.9265 9.87957 38.9673 9.85637C39.008 9.83318 39.0562 9.8269 39.1014 9.8389C39.1653 9.87411 39.2406 9.88267 39.3107 9.86274C39.3809 9.8428 39.4404 9.79597 39.4762 9.73243C39.4959 9.6859 39.5012 9.63456 39.4915 9.58498C39.4819 9.5354 39.4576 9.48984 39.4219 9.45412C39.3862 9.4184 39.3406 9.39414 39.291 9.38446C39.2414 9.37478 39.1901 9.38011 39.1436 9.39976C39.12 9.41307 39.0938 9.42087 39.0668 9.42257C39.0399 9.42427 39.0129 9.41983 38.9878 9.40958C38.9628 9.39933 38.9405 9.38354 38.9225 9.36339C38.9044 9.34325 38.8912 9.31928 38.8838 9.29329C38.3624 7.20679 35.7139 7.28089 35.2592 9.25117C35.2592 9.25546 35.2592 9.25975 35.2549 9.26638C35.2422 9.31145 35.2123 9.34974 35.1717 9.37301C35.1311 9.39627 35.0829 9.40266 35.0376 9.39079C35.001 9.37929 34.9622 9.37629 34.9242 9.38202C34.8862 9.38775 34.85 9.40206 34.8183 9.42386C34.7867 9.44566 34.7604 9.47438 34.7415 9.50784C34.7226 9.54131 34.7116 9.57863 34.7093 9.61699C34.7074 9.65675 34.7151 9.69638 34.7319 9.73246C34.7487 9.76855 34.7741 9.80001 34.8057 9.82415C34.8374 9.84828 34.8744 9.86436 34.9137 9.87101C34.9529 9.87766 34.9932 9.87467 35.031 9.8623Z" fill="#FFCEB6"/>
<path d="M25.9465 17.3241C26.205 17.3241 26.4145 17.1146 26.4145 16.8561C26.4145 16.5977 26.205 16.3881 25.9465 16.3881C25.688 16.3881 25.4785 16.5977 25.4785 16.8561C25.4785 17.1146 25.688 17.3241 25.9465 17.3241Z" fill="#1D1D1B"/>
<path d="M24.6721 14.5559C24.7041 14.522 24.722 14.4771 24.722 14.4305C24.722 14.3839 24.7041 14.339 24.6721 14.3051C24.6387 14.2722 24.5936 14.2537 24.5467 14.2537C24.4998 14.2537 24.4547 14.2722 24.4213 14.3051C24.0607 14.7168 23.8566 15.2423 23.8449 15.7895C23.8322 15.8809 23.8436 15.9741 23.878 16.0597C23.8909 16.0816 23.908 16.1007 23.9284 16.1159C23.9488 16.131 23.972 16.1419 23.9967 16.148C24.0213 16.154 24.047 16.155 24.072 16.151C24.0971 16.1469 24.1211 16.1379 24.1426 16.1244C24.1641 16.1109 24.1827 16.0933 24.1973 16.0725C24.2119 16.0517 24.2221 16.0282 24.2275 16.0033C24.2328 15.9785 24.2331 15.9529 24.2283 15.9279C24.2236 15.903 24.2139 15.8792 24.1998 15.8581C24.1917 15.3807 24.3598 14.9171 24.6721 14.5559ZM24.2041 15.9209C24.2041 15.9451 24.2017 15.9408 24.2017 15.9162L24.2041 15.9209ZM25.89 20.5053C26.1097 20.7249 26.3931 20.8695 26.6997 20.9185C27.0064 20.9675 27.3207 20.9185 27.5979 20.7783C27.6189 20.7672 27.6375 20.7519 27.6525 20.7334C27.6675 20.7149 27.6786 20.6936 27.6852 20.6707C27.6918 20.6478 27.6937 20.6238 27.6907 20.6001C27.6878 20.5765 27.6801 20.5537 27.6682 20.5331C27.6562 20.5125 27.6403 20.4945 27.6212 20.4802C27.6021 20.4659 27.5804 20.4556 27.5573 20.4499C27.5341 20.4442 27.5101 20.4433 27.4866 20.4471C27.463 20.4509 27.4405 20.4595 27.4204 20.4722C27.2114 20.5745 26.9754 20.6084 26.7461 20.5689C26.5167 20.5295 26.3056 20.4189 26.1428 20.2526C26.1093 20.2191 26.0638 20.2003 26.0164 20.2003C25.969 20.2003 25.9236 20.2191 25.89 20.2526C25.8565 20.2861 25.8377 20.3316 25.8377 20.379C25.8377 20.4264 25.8565 20.4718 25.89 20.5053Z" fill="#1D1D1B"/>
<path d="M69.9271 47.8877C69.6677 47.8768 43.3528 46.6432 42.7803 46.6163C43.4243 46.118 44.0327 45.5755 44.6012 44.9927C44.7865 45.0005 69.4665 46.1549 69.8362 46.1627C69.8832 46.1627 69.9284 46.144 69.9617 46.1107C69.9949 46.0775 70.0136 46.0323 70.0136 45.9853C70.0136 45.9382 69.9949 45.8931 69.9617 45.8598C69.9284 45.8265 69.8832 45.8078 69.8362 45.8078C69.608 45.7969 45.0895 44.6589 44.9253 44.6499C45.8656 43.6098 46.5267 42.6839 46.8266 41.3848C47.0305 41.3848 48.3702 40.3615 48.8585 38.7005C49.0383 38.8524 49.2605 38.9454 49.495 38.9668C49.6317 38.9586 49.7646 38.9186 49.8833 38.8502C50.002 38.7818 50.1031 38.6867 50.1787 38.5725C50.2544 38.4583 50.3024 38.328 50.3191 38.1921C50.3358 38.0561 50.3207 37.9181 50.275 37.789C50.8496 37.8644 51.4256 37.9309 52.003 37.9883C51.3822 38.5863 50.756 39.1801 50.1244 39.7698C49.6092 39.7386 49.0925 39.6989 48.5781 39.6528C48.3519 39.6329 48.3519 39.9878 48.5781 40.0077C48.9751 40.0432 49.3744 40.0721 49.7738 40.099C49.5987 40.2608 49.4251 40.427 49.25 40.5892C49.0816 40.7452 49.3319 40.9948 49.5008 40.8396C49.7559 40.6056 50.0043 40.3673 50.2551 40.1321C51.1731 40.1875 52.092 40.214 53.01 40.2207C52.8903 40.3494 52.7663 40.4757 52.6485 40.6044C52.4925 40.7733 52.7437 41.0237 52.8993 40.8552C53.0943 40.6423 53.2939 40.4336 53.4936 40.2253C54.0084 40.2253 54.5239 40.2179 55.04 40.2031C55.087 40.2031 55.1322 40.1844 55.1655 40.1511C55.1987 40.1179 55.2174 40.0727 55.2174 40.0257C55.2174 39.9786 55.1987 39.9335 55.1655 39.9002C55.1322 39.8669 55.087 39.8482 55.04 39.8482C54.6383 39.8591 54.237 39.8638 53.8333 39.8658C54.3712 39.3067 54.9198 38.758 55.4787 38.22C55.781 38.2309 57.1873 38.2531 57.1873 38.2531C57.1932 38.2911 57.2136 38.3253 57.2443 38.3485C57.2749 38.3717 57.3133 38.3821 57.3515 38.3775C57.3944 38.3767 57.436 38.3629 57.471 38.338C57.5059 38.3131 57.5325 38.2782 57.5474 38.238C57.5622 38.1977 57.5645 38.1539 57.5541 38.1123C57.5436 38.0707 57.5209 38.0332 57.4888 38.0047C57.3359 37.8386 57.0563 37.8963 56.8543 37.8939C56.5173 37.8893 56.1799 37.8783 55.843 37.8694C56.3068 37.4274 56.777 36.9934 57.2536 36.5675C57.4244 36.4143 57.1756 36.1658 57.0032 36.3168C56.4398 36.8204 55.8867 37.3343 55.3438 37.8584C55.2974 37.8561 54.5845 37.8483 52.8037 37.7024C53.0923 37.4209 53.3852 37.1412 53.6711 36.8573C53.7023 36.8236 53.7192 36.7792 53.7183 36.7333C53.7175 36.6874 53.6988 36.6437 53.6664 36.6112C53.6339 36.5788 53.5902 36.5602 53.5443 36.5593C53.4984 36.5584 53.454 36.5753 53.4203 36.6065C53.0635 36.9614 52.6972 37.3085 52.3357 37.6627C52.2967 37.6584 51.4925 37.6026 50.1244 37.4162C50.0964 37.3642 50.0666 37.3132 50.0351 37.2633C50.1711 37.2868 50.3109 37.2746 50.4407 37.2277C50.5705 37.1808 50.6859 37.101 50.7754 36.996C50.865 36.891 50.9257 36.7645 50.9515 36.6289C50.9773 36.4933 50.9674 36.3534 50.9227 36.2228C50.7508 35.4681 49.4017 34.1647 47.6857 33.8762V33.4007C48.9657 33.46 68.4575 34.3757 68.4774 34.3757C68.5245 34.3757 68.5696 34.357 68.6029 34.3238C68.6362 34.2905 68.6549 34.2454 68.6549 34.1983C68.6549 34.1512 68.6362 34.1061 68.6029 34.0728C68.5696 34.0395 68.5245 34.0208 68.4774 34.0208C68.1334 34.0052 48.8308 33.1012 47.6857 33.0478C47.6857 31.6703 47.6857 29.1938 47.6834 28.5881C49.429 28.6548 66.7934 29.0429 67.0243 29.0386C67.0709 29.0372 67.1153 29.0181 67.1482 28.9851C67.1812 28.9521 67.2004 28.9078 67.2017 28.8611C67.582 24.2201 68.7801 8.17905 68.4727 3.4932C68.4719 3.44639 68.453 3.40172 68.4199 3.36861C68.3868 3.33551 68.3421 3.31655 68.2953 3.31575C67.9579 3.30249 24.7931 1.95075 24.6289 1.95816C24.5822 1.95916 24.5376 1.97817 24.5046 2.01124C24.4715 2.0443 24.4525 2.08886 24.4515 2.13561C24.4515 2.49987 24.4378 5.94513 24.4238 9.82524C23.7975 8.8674 22.3065 8.49105 21.4598 9.26715C21.3935 8.86794 21.2065 8.49862 20.924 8.20885C20.6415 7.91908 20.2771 7.72276 19.8797 7.64631C19.4823 7.56986 19.071 7.61693 18.7012 7.7812C18.3313 7.94546 18.0207 8.21905 17.811 8.56515C17.3673 8.30169 16.8566 8.17271 16.3411 8.19387C16.2004 8.20313 16.065 8.25058 15.9493 8.33113C15.8336 8.41167 15.7421 8.52225 15.6847 8.65095C12.6037 8.88924 9.76877 11.8189 10.1077 16.9607C10.3191 20.1977 11.562 20.8115 12.0967 22.6215C12.2567 23.1774 12.3041 23.7596 12.2359 24.3341C12.1678 24.9085 11.9856 25.4635 11.7001 25.9666C11.5487 26.2306 11.3608 26.5344 11.4692 26.8183C11.7812 27.6283 14.3131 27.2567 14.8743 25.3344C15.0126 25.9829 15.3882 26.5565 15.9273 26.9427C15.2282 27.0672 14.5409 27.2505 13.8727 27.4907C13.8281 27.504 13.7904 27.5341 13.7673 27.5745C13.7442 27.6149 13.7376 27.6627 13.7487 27.7079C13.904 28.2079 14.0869 28.6989 14.2967 29.1786C13.704 29.6053 13.2334 30.1797 12.9317 30.8447C12.9941 30.8536 13.2437 30.8868 13.3069 30.8958C14.5209 28.436 17.5235 28.2882 20.2434 28.6287C26.7923 29.4438 31.7269 34.0029 34.9464 39.7932C35.0244 39.9364 35.3282 40.4644 35.2584 40.6758C35.2501 40.7111 35.2528 40.7481 35.2661 40.7818C35.2794 40.8155 35.3028 40.8443 35.333 40.8644C35.3632 40.8844 35.3988 40.8947 35.435 40.8939C35.4713 40.8931 35.5064 40.8812 35.5357 40.8599C35.9062 41.2669 36.1001 41.8042 36.0751 42.354C36.0883 42.5806 36.4432 42.5825 36.43 42.354C36.3952 41.7807 36.2923 41.0911 35.8551 40.6836C36.6195 40.8287 36.687 41.6843 37.0025 41.5467C37.0421 41.5305 37.0744 41.5002 37.0932 41.4618C37.1119 41.4233 37.1159 41.3792 37.1043 41.338C37.0202 41.1184 36.8891 40.9198 36.7201 40.7562C36.5511 40.5926 36.3484 40.468 36.1261 40.3911C38.2321 38.649 41.7913 35.4572 44.5111 36.4622C46.7006 37.2812 47.5921 40.6715 45.3524 43.6164C43.6715 45.8203 40.6334 47.8978 38.1982 49.0401C37.0651 49.638 35.8155 49.9824 34.5361 50.0494C32.8568 50.1087 31.1926 49.7148 29.7181 48.9091C29.6776 48.8879 29.6306 48.8831 29.5867 48.8957C29.5429 48.9082 29.5055 48.9371 29.4824 48.9765C29.4592 49.0158 29.4521 49.0625 29.4624 49.1069C29.4727 49.1514 29.4998 49.1902 29.5379 49.2152C30.7352 49.8629 32.0528 50.2578 33.409 50.3755C34.5652 50.4911 35.7326 50.3563 36.832 49.9804C38.8075 49.2397 40.6668 48.2201 42.3533 46.9525C42.8497 46.9747 69.9239 48.2434 69.9391 48.2438C70.1572 48.2469 70.1572 47.8966 69.9271 47.8877ZM52.471 38.0273C53.301 38.1034 53.9753 38.1533 54.9928 38.1981C54.433 38.7446 53.8836 39.3015 53.3447 39.8685C52.4375 39.8662 51.528 39.8373 50.6205 39.7905C51.2422 39.2097 51.859 38.6219 52.471 38.0273ZM19.2567 28.1782C17.591 28.0589 15.9417 28.1673 14.5767 28.9914C14.4207 28.5897 14.2772 28.1837 14.1395 27.7734C14.8982 27.5066 15.6823 27.3186 16.4795 27.2122C19.8674 26.7555 22.6957 27.9306 23.7577 29.0799C22.3031 28.5842 20.7899 28.2811 19.2567 28.1782ZM43.3162 35.7505C43.2984 35.7753 43.2887 35.805 43.2883 35.8355C43.2879 35.8661 43.2968 35.896 43.3138 35.9213C40.7375 35.9603 37.9533 38.4013 35.967 40.0495C35.5174 40.4239 35.7225 40.2698 35.563 40.3225C35.4539 39.9838 35.2995 39.6615 35.104 39.3642C32.6119 34.99 29.0071 31.1547 24.3676 29.31C24.363 29.2882 24.3548 29.2673 24.3435 29.248C23.1809 27.5355 20.2485 26.7953 18.1588 26.7633C18.3413 26.5953 18.4748 26.3809 18.5451 26.143C18.6154 25.9051 18.6199 25.6526 18.5582 25.4124C18.7984 25.6939 19.1262 25.8865 19.4891 25.9594C19.8519 26.0322 20.2287 25.981 20.5589 25.8141C20.8838 25.6373 21.1681 25.3946 21.3938 25.1016C21.6196 24.8086 21.7816 24.4717 21.8697 24.1125C22.0046 23.6445 22.0093 23.1925 21.6283 22.8992C24.3162 22.8251 25.3333 19.8276 24.0506 17.7949C23.702 17.2138 23.1654 16.7694 22.5296 16.5352C22.3533 15.9174 22.4091 16.0816 22.2215 15.4748C22.3385 14.2564 23.6185 13.9191 24.3197 12.7264C24.4788 12.8899 24.5798 12.9862 24.7732 13.2023L24.8146 2.31384C28.6916 2.21946 66.8312 3.71784 68.128 3.67884C68.3889 7.92009 67.4533 20.9699 67.1296 25.238C66.8215 25.2287 35.7911 24.2404 27.0165 23.9647C26.9385 24.0833 26.8564 24.1989 26.77 24.3118C35.1644 24.5801 66.6331 25.5847 67.1054 25.5886C66.8266 29.1224 66.8554 28.6112 66.8546 28.6853C61.5939 28.7753 29.0398 27.3366 24.7214 27.2422C24.7214 26.9041 24.7245 26.3398 24.7264 25.7899C24.6383 25.8386 24.5502 25.8862 24.4632 25.9322C24.4016 26.4072 24.3685 26.8854 24.3641 27.3643C24.3735 27.4033 24.3431 27.573 24.5416 27.5862C24.8411 27.6018 39.7056 28.2715 41.367 28.3405L41.7811 32.7615C40.2449 32.6905 30.0909 32.2183 30.0718 32.2179C30.0281 32.2217 29.9873 32.2417 29.9576 32.274C29.9278 32.3062 29.9112 32.3484 29.9109 32.3923C29.9106 32.4362 29.9267 32.4786 29.956 32.5113C29.9853 32.5439 30.0258 32.5645 30.0694 32.5689C30.4029 32.5829 40.0761 33.0369 41.8147 33.1168L41.904 34.0684C41.9045 34.1072 41.9174 34.1447 41.941 34.1755C41.9645 34.2063 41.9974 34.2286 42.0346 34.2392C42.8555 34.3692 43.6804 34.4712 44.5096 34.545C44.0355 34.8634 43.6298 35.2732 43.3162 35.7505ZM41.7258 28.353C43.5954 28.4284 45.4661 28.5023 47.3379 28.5749C47.3453 29.7691 47.3379 32.9039 47.3379 33.8313C46.553 33.7587 45.7631 33.8986 45.0509 34.2361C44.1123 34.1679 43.1769 34.0604 42.2472 33.914C42.2226 33.657 41.863 29.8287 41.7258 28.353ZM43.629 35.9283C44.2084 35.0689 45.0966 34.4658 46.1092 34.2443C47.1217 34.0229 48.1807 34.2001 49.066 34.7392C48.6657 34.7182 48.2661 34.7911 47.8991 34.9522C47.8594 34.9764 47.8308 35.0152 47.8195 35.0603C47.8081 35.1054 47.815 35.1532 47.8385 35.1933C47.862 35.2334 47.9003 35.2627 47.9452 35.2749C47.9901 35.287 48.0379 35.2811 48.0785 35.2583C48.3504 35.1427 48.643 35.0835 48.9385 35.0842C49.234 35.0849 49.5262 35.1456 49.7976 35.2626C50.1907 35.6136 50.7566 36.1697 50.5698 36.6604C50.4235 37.0441 49.9953 36.9131 49.6981 36.7957C49.2703 36.5025 48.7467 36.3834 48.2341 36.4626C48.1904 36.4766 48.1538 36.507 48.132 36.5474C48.1102 36.5878 48.1049 36.635 48.1172 36.6793C48.1295 36.7235 48.1585 36.7612 48.198 36.7845C48.2376 36.8078 48.2846 36.8149 48.3292 36.8043C48.7276 36.7608 49.1292 36.8497 49.4719 37.0574C49.7449 37.3304 50.0815 37.8791 49.9201 38.2972C49.8948 38.3838 49.8432 38.4604 49.7724 38.5163C49.7016 38.5722 49.6151 38.6047 49.525 38.6092C49.2808 38.5711 49.0574 38.4495 48.8928 38.2652C48.8705 38.244 48.8431 38.2288 48.8132 38.2212C48.7834 38.2135 48.7521 38.2136 48.7223 38.2214C48.6925 38.2292 48.6652 38.2445 48.643 38.2658C48.6207 38.2871 48.6043 38.3138 48.5952 38.3432C48.3547 39.369 47.7631 40.2784 46.9229 40.9141C47.311 38.376 46.0123 36.075 43.629 35.9268V35.9283Z" fill="#1D1D1B"/>
<path d="M42.1048 23.4089C42.4765 23.3708 42.8213 23.1974 43.0736 22.9219C43.326 22.6463 43.4683 22.2877 43.4738 21.9141C43.4858 21.5912 43.3864 21.2739 43.192 21.0157C42.9977 20.7575 42.7204 20.5742 42.4067 20.4964C42.1266 20.4175 41.8295 20.4219 41.5518 20.5092C41.2741 20.5965 41.0279 20.7629 40.8433 20.9879C40.6588 21.213 40.5438 21.487 40.5125 21.7764C40.4813 22.0657 40.5351 22.358 40.6673 22.6172C40.8074 22.8717 41.0169 23.0812 41.2714 23.2214C41.5258 23.3615 41.8149 23.4266 42.1048 23.4089ZM42.1384 20.8092C42.414 20.8274 42.6715 20.9532 42.8553 21.1594C43.039 21.3656 43.1344 21.6358 43.1208 21.9117C43.1246 22.1425 43.0577 22.369 42.9291 22.5606C42.8005 22.7523 42.6163 22.9 42.4012 22.984C42.1862 23.0679 41.9507 23.0841 41.7262 23.0302C41.5017 22.9764 41.2991 22.8552 41.1455 22.6828C40.992 22.5105 40.8948 22.2953 40.8671 22.0661C40.8394 21.837 40.8825 21.6048 40.9906 21.4009C41.0987 21.1969 41.2666 21.0309 41.4718 20.9251C41.6769 20.8194 41.9096 20.7789 42.1384 20.8092ZM45.7896 23.5287C46.1612 23.4905 46.5059 23.3171 46.7582 23.0416C47.0105 22.766 47.1528 22.4074 47.1581 22.0338C47.1706 21.7108 47.0713 21.3933 46.8769 21.1351C46.6825 20.8768 46.4049 20.6935 46.091 20.6162C45.8109 20.5375 45.514 20.5421 45.2365 20.6295C44.959 20.7169 44.7129 20.8833 44.5285 21.1083C44.344 21.3333 44.2291 21.6071 44.1977 21.8964C44.1664 22.1856 44.22 22.4777 44.352 22.737C44.4921 22.9915 44.7016 23.201 44.956 23.3412C45.2105 23.4813 45.4996 23.5464 45.7896 23.5287ZM45.8227 20.9301C46.0984 20.9482 46.356 21.0739 46.5398 21.2802C46.7237 21.4864 46.8191 21.7567 46.8055 22.0326C46.8093 22.2634 46.7425 22.4898 46.6139 22.6815C46.4853 22.8732 46.3011 23.0209 46.0861 23.1049C45.8711 23.1889 45.6355 23.205 45.4111 23.1512C45.1866 23.0974 44.984 22.9763 44.8304 22.804C44.6768 22.6317 44.5796 22.4165 44.5519 22.1873C44.5241 21.9582 44.5672 21.7261 44.6752 21.5221C44.7832 21.3181 44.951 21.1521 45.1562 21.0462C45.3613 20.9404 45.5939 20.8999 45.8227 20.9301ZM49.2321 23.5287C49.6038 23.4906 49.9486 23.3173 50.201 23.0417C50.4533 22.7661 50.5957 22.4074 50.601 22.0338C50.6131 21.7109 50.5136 21.3937 50.3193 21.1355C50.1249 20.8773 49.8476 20.6939 49.534 20.6162C49.2538 20.5371 48.9567 20.5415 48.679 20.6288C48.4013 20.7161 48.1551 20.8824 47.9705 21.1075C47.7859 21.3326 47.671 21.6067 47.6398 21.8961C47.6086 22.1855 47.6626 22.4777 47.795 22.737C47.9348 22.9916 48.1442 23.2012 48.3987 23.3413C48.6531 23.4815 48.9421 23.5465 49.2321 23.5287ZM49.2641 20.9301C49.5398 20.9482 49.7973 21.0739 49.9812 21.2802C50.165 21.4864 50.2605 21.7567 50.2469 22.0326C50.2507 22.2634 50.1838 22.4898 50.0552 22.6815C49.9266 22.8732 49.7425 23.0209 49.5275 23.1049C49.3125 23.1889 49.0769 23.205 48.8524 23.1512C48.628 23.0974 48.4254 22.9763 48.2718 22.804C48.1182 22.6317 48.021 22.4165 47.9932 22.1873C47.9655 21.9582 48.0085 21.7261 48.1165 21.5221C48.2245 21.3181 48.3924 21.1521 48.5975 21.0462C48.8027 20.9404 49.0353 20.8999 49.2641 20.9301ZM39.6092 36.4412C39.6603 36.4736 39.6872 36.4689 39.8666 36.4544C39.9137 36.4544 39.9588 36.4358 39.9921 36.4025C40.0254 36.3692 40.0441 36.3241 40.0441 36.277C40.0441 36.2299 40.0254 36.1848 39.9921 36.1515C39.9588 36.1182 39.9137 36.0995 39.8666 36.0995C39.2458 36.0687 38.6245 36.0352 38.0032 36.0044C38.1253 35.8847 38.2431 35.7602 38.3671 35.6429C38.3983 35.6092 38.4152 35.5648 38.4143 35.5189C38.4135 35.473 38.3949 35.4292 38.3624 35.3968C38.3299 35.3643 38.2862 35.3457 38.2403 35.3448C38.1944 35.344 38.15 35.3609 38.1163 35.3921C38.0609 35.4475 38.0032 35.5028 37.9478 35.5586L37.9455 35.5629C37.8035 35.7006 37.6663 35.8425 37.5263 35.9822C36.3394 35.9221 35.1534 35.8615 33.9683 35.8004C33.7397 35.7891 33.7397 36.144 33.9683 36.1553C35.0418 36.2107 36.1155 36.2654 37.1893 36.3195C36.7733 36.7407 36.3637 37.168 35.9604 37.6014C35.6585 37.5838 35.3576 37.5653 35.0575 37.5461C34.829 37.5328 34.8313 37.8877 35.0575 37.901C35.2525 37.9119 35.4476 37.9255 35.6453 37.9364C35.632 37.952 35.6164 37.9653 35.6032 37.9809C35.4503 38.1494 35.6987 38.4002 35.8539 38.2313C35.9358 38.1404 36.0224 38.0538 36.1067 37.963L37.6573 38.0562C37.8858 38.0694 37.8835 37.7145 37.6573 37.7013L36.4261 37.628C36.8356 37.1927 37.2516 36.7637 37.6741 36.341C38.3117 36.3749 38.9611 36.408 39.6092 36.4412ZM58.0032 62.57C57.8741 54.965 54.5322 49.8307 46.9939 50.1879C44.7709 50.2901 41.3584 50.8057 39.1303 51.5985C37.8297 52.0615 36.4674 52.7112 35.6854 53.8414C35.333 54.3639 35.1568 54.9854 35.1827 55.6152C35.2086 56.2449 35.4352 56.8499 35.8294 57.3417C35.9713 57.5191 36.2135 57.275 36.0801 57.0909C35.0119 55.6163 35.3048 53.7034 38.1986 52.3575C40.1876 51.4277 42.9769 50.9562 45.166 50.707C47.2868 50.4675 49.4427 50.3985 51.4816 51.136C55.7962 52.6898 57.3757 57.1225 57.6105 61.744C57.6983 63.5158 57.6076 65.292 57.3398 67.0457C57.3008 67.2695 57.6417 67.3651 57.6815 67.1408C57.9198 65.6293 58.0275 64.1 58.0032 62.57Z" fill="#1D1D1B"/>
<path d="M51.0315 60.1579C51.0675 59.8968 51.157 59.6459 51.2944 59.421C51.4319 59.1961 51.6143 59.002 51.8303 58.851C51.8504 58.8393 51.868 58.8239 51.8821 58.8054C51.8962 58.787 51.9066 58.766 51.9126 58.7435C51.9186 58.7211 51.9201 58.6977 51.917 58.6747C51.914 58.6517 51.9064 58.6295 51.8948 58.6094C51.8832 58.5893 51.8677 58.5716 51.8493 58.5575C51.8308 58.5434 51.8098 58.533 51.7874 58.527C51.7649 58.5211 51.7415 58.5195 51.7185 58.5226C51.6955 58.5256 51.6733 58.5332 51.6532 58.5448C51.1624 58.8807 50.8236 59.3963 50.7102 59.98L50.7035 59.9843C50.6857 59.7918 50.6955 59.5977 50.7324 59.4079C50.7986 59.0183 50.9477 58.6475 51.1696 58.3206C51.2983 58.1302 50.9898 57.9524 50.8634 58.1412C50.582 58.5603 50.409 59.0427 50.36 59.5452C50.321 59.9086 50.321 60.5362 50.8034 60.5872C51.3443 62.4121 50.6704 64.6374 51.753 69.0389C51.767 69.0826 51.7974 69.1192 51.8378 69.141C51.8782 69.1628 51.9255 69.1681 51.9697 69.1558C52.0139 69.1435 52.0516 69.1145 52.0749 69.075C52.0982 69.0355 52.1053 68.9884 52.0947 68.9438C50.9602 64.3344 51.7967 62.1952 51.0315 60.1579ZM34.8793 57.6236C35.093 58.313 35.0994 59.0501 34.8974 59.743C34.6955 60.436 34.2942 61.0543 33.7436 61.5209C33.5681 61.6683 33.8216 61.9132 33.9944 61.7717C34.5884 61.2595 35.0209 60.5858 35.239 59.8324C35.4572 59.079 35.4517 58.2784 35.2233 57.5281C35.1523 57.3128 34.8087 57.408 34.8793 57.6236ZM48.539 66.378C48.2199 65.8382 47.7409 65.4111 47.1682 65.1557C46.9734 65.0841 46.7634 65.0638 46.5585 65.0969C46.3536 65.13 46.1606 65.2152 45.9982 65.3445C45.706 65.6067 45.4931 65.9455 45.3836 66.3226C45.0361 67.3327 44.5591 70.3193 44.7935 73.2236C44.795 73.2657 44.8114 73.3058 44.8397 73.3369C44.868 73.368 44.9064 73.3881 44.9481 73.3937C44.9897 73.3993 45.032 73.3899 45.0675 73.3673C45.1029 73.3446 45.1292 73.3102 45.1418 73.27C45.2006 73.1207 45.2642 73.0025 45.1312 72.9265C44.9961 70.9543 45.1405 68.973 45.5602 67.0414C45.6936 66.4314 45.9444 65.431 46.7384 65.431C47.3562 65.431 47.9287 66.0874 48.2688 66.6065C48.8733 67.5957 49.1984 68.7303 49.2095 69.8895C49.2184 70.1181 49.5733 70.1181 49.5644 69.8895C49.5522 68.6469 49.1975 67.4318 48.539 66.378ZM31.8435 71.3177C31.5822 70.3084 31.351 69.2285 30.7566 68.3498C29.9626 67.174 28.9696 67.3635 28.1569 68.4142C26.7455 70.2335 26.7224 73.609 26.8359 75.871C26.8469 76.0972 27.2018 76.0995 27.1908 75.871C27.0824 73.7345 27.0645 70.9839 28.1323 69.0951C28.3597 68.6289 28.7243 68.2435 29.1771 67.9906C29.7095 67.7476 30.0866 68.0078 30.415 68.4762C30.9875 69.2905 31.2168 70.3006 31.4609 71.2479C31.888 72.8964 31.8416 73.9256 32.131 75.3819C32.175 75.6058 32.5167 75.5102 32.4726 75.2863C32.209 73.9642 32.1879 72.6476 31.8435 71.3177ZM14.1098 66.3589C13.9297 65.9041 13.7327 65.3963 13.2312 65.2189C12.997 65.1534 12.7493 65.1533 12.5151 65.2186C12.2809 65.284 12.069 65.4122 11.9024 65.5894C11.5501 66 11.2993 66.4878 11.1704 67.0133C10.5706 68.8853 10.4797 70.9488 10.3986 72.8894C10.3896 73.1179 10.7445 73.1179 10.7535 72.8894C10.8315 71.0174 11.0285 65.495 12.8919 65.5204C13.4086 65.527 13.604 66.0508 13.7659 66.4587C14.6538 68.7175 15.1422 71.1134 15.2093 73.5395C15.2093 73.5866 15.228 73.6317 15.2612 73.665C15.2945 73.6983 15.3396 73.717 15.3867 73.717C15.4338 73.717 15.4789 73.6983 15.5122 73.665C15.5455 73.6317 15.5642 73.5866 15.5642 73.5395C15.4966 71.0801 15.0046 68.6508 14.1098 66.3589ZM61.9008 18.3136C62.3378 18.4949 62.7028 18.8155 62.939 19.2254C63.0109 19.1404 63.0593 19.0381 63.0793 18.9286C63.0994 18.8192 63.0904 18.7063 63.0533 18.6014C62.9979 18.4701 62.896 18.3639 62.767 18.3033C62.6381 18.2427 62.4912 18.2319 62.3548 18.273C62.3601 18.1669 62.3329 18.0618 62.2768 17.9716C62.175 17.8386 61.9418 17.7797 61.6314 18.0246C61.6472 17.9651 61.6492 17.9028 61.6373 17.8424C61.6253 17.7821 61.5997 17.7252 61.5623 17.6763C61.3724 17.5036 60.8884 17.7153 60.6821 17.9205C60.6888 17.9035 60.6918 17.8853 60.6908 17.867C60.6899 17.8488 60.685 17.831 60.6766 17.8148C60.6682 17.7986 60.6563 17.7844 60.642 17.7732C60.6276 17.7619 60.6109 17.7539 60.5932 17.7496C60.3174 17.6716 59.4743 18.305 59.4676 19.1248C59.7176 18.7299 60.0963 18.4335 60.5397 18.2857C60.9831 18.1379 61.4639 18.1477 61.9008 18.3136ZM60.0542 19.8798C60.0542 19.9136 60.0642 19.9466 60.083 19.9747C60.1017 20.0028 60.1284 20.0247 60.1596 20.0376C60.1909 20.0506 60.2252 20.054 60.2583 20.0474C60.2915 20.0408 60.3219 20.0245 60.3458 20.0006C60.3697 19.9767 60.386 19.9463 60.3926 19.9131C60.3991 19.88 60.3958 19.8457 60.3828 19.8145C60.3699 19.7832 60.348 19.7566 60.3199 19.7378C60.2918 19.719 60.2588 19.709 60.225 19.709C60.1797 19.709 60.1363 19.727 60.1042 19.759C60.0722 19.7911 60.0542 19.8345 60.0542 19.8798ZM62.1173 19.982C62.1173 19.9367 62.0993 19.8933 62.0673 19.8612C62.0352 19.8292 61.9918 19.8112 61.9465 19.8112C61.9127 19.8112 61.8797 19.8212 61.8516 19.84C61.8235 19.8587 61.8016 19.8854 61.7887 19.9166C61.7757 19.9478 61.7723 19.9822 61.7789 20.0153C61.7855 20.0485 61.8018 20.0789 61.8257 20.1028C61.8496 20.1267 61.88 20.143 61.9132 20.1495C61.9463 20.1561 61.9806 20.1527 62.0118 20.1398C62.0431 20.1269 62.0697 20.105 62.0885 20.0769C62.1073 20.0488 62.1173 20.0158 62.1173 19.982ZM61.4539 20.5186C61.4142 20.4965 61.3675 20.4904 61.3234 20.5016C61.2793 20.5127 61.2412 20.5403 61.2168 20.5787C61.2184 20.5766 61.2198 20.5744 61.2211 20.5721C61.2015 20.5964 61.1738 20.6129 61.1431 20.6185L61.1341 20.6208C61.0801 20.6248 61.0259 20.6232 60.9723 20.6161C60.9204 20.6102 60.8696 20.597 60.8213 20.5771C60.8147 20.5748 60.8104 20.5705 60.8034 20.5682C60.7833 20.5565 60.7611 20.549 60.7381 20.5459C60.715 20.5429 60.6917 20.5444 60.6692 20.5504C60.6468 20.5564 60.6257 20.5668 60.6073 20.5809C60.5889 20.595 60.5734 20.6126 60.5618 20.6327C60.5502 20.6528 60.5426 20.675 60.5396 20.698C60.5365 20.7211 60.538 20.7445 60.544 20.7669C60.55 20.7893 60.5604 20.8104 60.5745 20.8288C60.5886 20.8472 60.6062 20.8627 60.6263 20.8743C60.6957 20.9101 60.7695 20.9363 60.8459 20.9523C61.4707 21.0787 61.6821 20.6388 61.4539 20.5186ZM59.1291 22.18C59.3343 22.3169 59.4064 22.3431 60.1228 22.7526C60.2223 22.8076 60.2656 22.7455 60.5128 22.5837V23.001C60.5128 23.0363 60.5268 23.0701 60.5518 23.095C60.5767 23.12 60.6105 23.134 60.6458 23.134C60.6811 23.134 60.7149 23.12 60.7399 23.095C60.7648 23.0701 60.7788 23.0363 60.7788 23.001V22.338C60.7786 22.3147 60.7724 22.2919 60.7608 22.2717C60.7492 22.2515 60.7325 22.2347 60.7124 22.2229C60.6923 22.2111 60.6695 22.2047 60.6462 22.2044C60.6229 22.2041 60.5999 22.2098 60.5795 22.221C60.4485 22.3076 60.3198 22.3942 60.1895 22.4807L59.3401 21.9905C59.396 21.7868 59.5257 21.6112 59.704 21.4979C59.8409 21.4047 59.7149 21.1719 59.5686 21.2671C59.348 21.4104 59.1799 21.6214 59.0893 21.8684C59.0542 21.9776 59.0363 22.1258 59.1291 22.18ZM62.6875 21.3462C62.5451 21.2507 62.4125 21.4839 62.5541 21.5767C62.7314 21.6921 62.8607 21.868 62.918 22.0716L62.0685 22.5619C61.9375 22.4753 61.8088 22.3887 61.6785 22.3021C61.6582 22.2903 61.6351 22.2841 61.6115 22.2842C61.588 22.2842 61.5649 22.2905 61.5446 22.3024C61.5243 22.3143 61.5075 22.3314 61.496 22.3519C61.4844 22.3724 61.4785 22.3956 61.4789 22.4191V23.0821C61.4789 23.1174 61.4929 23.1512 61.5178 23.1762C61.5428 23.2011 61.5766 23.2151 61.6119 23.2151C61.6471 23.2151 61.681 23.2011 61.7059 23.1762C61.7308 23.1512 61.7448 23.1174 61.7448 23.0821V22.6648C61.9886 22.8251 62.0331 22.8891 62.1348 22.8337C62.3587 22.705 63.0155 22.3298 63.1173 22.2678C63.1571 22.2372 63.1856 22.1943 63.1984 22.1457C63.2113 22.0972 63.2077 22.0458 63.1882 21.9995C63.1037 21.7294 62.9263 21.498 62.6875 21.3462Z" fill="#1D1D1B"/>
<path d="M60.0346 16.818C60.1875 14.7014 60.2479 8.25747 60.2479 6.15342C60.2538 5.89134 60.7249 5.91591 46.6077 5.64642C46.5609 5.64742 46.5164 5.66643 46.4833 5.6995C46.4502 5.73256 46.4312 5.77712 46.4302 5.82387L46.0312 17.2345C46.0317 17.2814 46.0505 17.3263 46.0837 17.3595C46.1169 17.3927 46.1618 17.4115 46.2087 17.4119C46.5815 17.4283 56.4524 17.8487 58.342 17.9291C56.2387 20.4114 58.2761 24.368 61.501 24.0712C62.4194 23.9579 63.2668 23.5196 63.8901 22.8357C64.5134 22.1517 64.8713 21.2673 64.8991 20.3424C64.9416 17.956 62.4272 16.1164 60.0346 16.818ZM56.7414 17.5032L50.411 17.2283C50.3357 15.5934 50.6059 13.4234 51.8208 12.3267C51.7833 12.4029 51.7636 12.4867 51.7632 12.5716C51.7628 12.6565 51.7817 12.7404 51.8185 12.817C51.9869 13.129 52.3465 13.012 52.6238 12.8478C52.7712 13.4928 53.24 13.5166 53.4779 13.2097C53.5745 13.0596 53.6245 12.8843 53.6218 12.7058C53.6229 12.6818 53.6192 12.6579 53.6108 12.6354C53.6024 12.6129 53.5895 12.5924 53.5729 12.575C53.5564 12.5576 53.5365 12.5438 53.5144 12.5344C53.4923 12.5249 53.4686 12.52 53.4446 12.52C53.4206 12.52 53.3968 12.5249 53.3747 12.5344C53.3527 12.5438 53.3328 12.5576 53.3162 12.575C53.2996 12.5924 53.2867 12.6129 53.2783 12.6354C53.2699 12.6579 53.2662 12.6818 53.2673 12.7058C53.2693 12.8001 53.2494 12.8935 53.2092 12.9788C53.1995 12.9974 53.1853 13.0132 53.168 13.0248C53.1506 13.0365 53.1306 13.0436 53.1097 13.0455C53.051 12.9957 53.0092 12.929 52.99 12.8544C52.9548 12.7527 52.9415 12.6446 52.951 12.5373C52.9508 12.5063 52.9424 12.4758 52.9267 12.449C52.9111 12.4222 52.8887 12.3999 52.8617 12.3844C52.8348 12.369 52.8042 12.3608 52.7732 12.3608C52.7421 12.3609 52.7116 12.369 52.6847 12.3845C52.5261 12.5162 52.3392 12.6096 52.1386 12.6575C52.0673 12.6547 52.1387 12.4667 52.1964 12.3845C52.2701 12.2721 52.4179 12.0725 52.4023 11.9317C52.46 11.9028 52.5193 11.8763 52.5821 11.8537C52.9301 12.0647 53.3288 12.1775 53.7357 12.1802C54.1427 12.1829 54.5428 12.0753 54.8936 11.8689C54.9901 11.9134 55.0834 11.9646 55.1728 12.0221C55.1376 12.0207 55.1026 12.0298 55.0725 12.0483C55.0424 12.0667 55.0184 12.0937 55.0037 12.1258C54.9889 12.1579 54.9841 12.1936 54.9897 12.2285C54.9953 12.2634 55.0111 12.2958 55.0352 12.3217C55.0896 12.3964 55.1232 12.4842 55.1326 12.5761C55.1421 12.668 55.127 12.7608 55.089 12.845C54.9528 12.783 54.8351 12.6866 54.7474 12.5654C54.722 12.5414 54.6903 12.5252 54.656 12.5189C54.6216 12.5126 54.5862 12.5163 54.554 12.5298C54.5218 12.5432 54.4941 12.5657 54.4745 12.5945C54.4548 12.6233 54.4439 12.6573 54.4432 12.6922C54.451 12.7904 54.4685 13.0042 54.3698 13.0182C54.3004 13.0268 54.1581 12.7514 54.1304 12.6855C54.1172 12.6412 54.0872 12.6038 54.0468 12.5813C54.0064 12.5587 53.9588 12.5529 53.9142 12.565C53.8696 12.5772 53.8315 12.6063 53.808 12.6461C53.7846 12.686 53.7777 12.7335 53.7887 12.7784C53.8886 13.0202 54.075 13.393 54.3897 13.3684C54.463 13.3614 54.5334 13.3359 54.5942 13.2945C54.6551 13.253 54.7046 13.1969 54.738 13.1313C54.7883 13.0311 54.7201 13.0478 54.8913 13.1379C55.4474 13.4219 55.6689 12.572 55.3437 12.1395C56.3155 12.8926 56.6307 14.2526 56.7414 15.4713C56.7852 16.1479 56.7852 16.8266 56.7414 17.5032ZM51.3629 10.064C51.3663 10.0194 51.3796 9.97618 51.4018 9.93743C51.424 9.89867 51.4546 9.86539 51.4914 9.84C51.5281 9.81461 51.5701 9.79776 51.6142 9.79069C51.6583 9.78362 51.7035 9.78651 51.7463 9.79914C51.7804 9.80806 51.8167 9.80331 51.8473 9.7859C51.878 9.76849 51.9007 9.7398 51.9105 9.70593C51.991 9.27005 52.2225 8.87644 52.5642 8.59413C52.9059 8.31182 53.3361 8.15883 53.7794 8.16199C54.2226 8.16516 54.6506 8.32427 54.9883 8.61143C55.3259 8.89859 55.5517 9.29547 55.626 9.73245C55.6317 9.75192 55.6416 9.76985 55.6552 9.78493C55.6687 9.8 55.6855 9.81183 55.7042 9.81951C55.723 9.8272 55.7432 9.83055 55.7634 9.82932C55.7837 9.82809 55.8033 9.82231 55.821 9.8124C55.8758 9.78873 55.9363 9.78197 55.995 9.79297C56.0536 9.80398 56.1076 9.83227 56.15 9.87419C56.1924 9.91611 56.2214 9.96976 56.2331 10.0282C56.2448 10.0867 56.2387 10.1474 56.2157 10.2024C56.1961 10.2392 56.1695 10.2717 56.1373 10.2981C56.1052 10.3246 56.0681 10.3445 56.0283 10.3566C55.9884 10.3687 55.9466 10.3729 55.9051 10.3689C55.8637 10.3648 55.8235 10.3526 55.7867 10.3331C55.7525 10.3236 55.716 10.3281 55.6851 10.3456C55.6543 10.3631 55.6316 10.3921 55.6221 10.4263C55.199 12.3763 52.3352 12.4313 51.9023 10.4508C51.8926 10.4169 51.8701 10.3882 51.8395 10.3708C51.8088 10.3533 51.7726 10.3486 51.7385 10.3576C51.6938 10.3716 51.6463 10.3745 51.6002 10.3661C51.554 10.3576 51.5106 10.3382 51.4737 10.3093C51.4368 10.2804 51.4074 10.243 51.3881 10.2003C51.3688 10.1575 51.3602 10.1108 51.3629 10.064ZM57.1123 15.7318C56.9528 13.2647 56.1638 12.6216 56.2543 12.6216C56.4248 12.5861 56.7102 11.9106 56.3674 11.3736C56.4253 11.4215 56.4936 11.4554 56.5668 11.4725C56.6401 11.4895 56.7163 11.4893 56.7894 11.4719C56.8626 11.4545 56.9307 11.4203 56.9883 11.372C57.046 11.3237 57.0916 11.2627 57.1217 11.1938C57.1706 11.1298 57.204 11.0553 57.2191 10.9762C57.2342 10.8971 57.2307 10.8156 57.2087 10.7381C57.1868 10.6606 57.1471 10.5892 57.0928 10.5298C57.0385 10.4703 56.9711 10.4243 56.8959 10.3955C57.0044 10.2267 57.0717 10.0349 57.0926 9.83542C57.1135 9.63592 57.0872 9.43431 57.016 9.2468C56.9447 9.05929 56.8305 8.89111 56.6824 8.75579C56.5344 8.62048 56.3566 8.52179 56.1634 8.46768C56.1876 8.22178 56.1369 7.9743 56.018 7.75772C55.899 7.54114 55.7174 7.36556 55.4969 7.254C55.2059 7.10139 54.888 7.00644 54.5609 6.97437C54.1975 6.97614 53.8343 6.95321 53.474 6.90573C53.1619 6.81916 52.8297 6.84188 52.5323 6.97014C52.2349 7.09839 51.9903 7.32447 51.8391 7.61085C51.7416 7.79298 51.7436 8.21457 51.5396 8.27658C51.2032 8.35054 50.897 8.52456 50.6613 8.77578C50.5485 8.90457 50.4886 9.07123 50.4935 9.24236C50.4984 9.41348 50.5678 9.57642 50.6878 9.69852C50.4777 9.86862 50.3231 10.0975 50.2437 10.3559C50.1643 10.6144 50.1637 10.8906 50.2421 11.1493C50.4547 11.655 50.809 12.0884 51.2623 12.3973C50.2292 13.6293 49.9866 15.6082 50.0533 17.2146L46.3897 17.0559C46.7999 5.343 46.7847 6.02394 46.7855 6.006C47.0975 6.01029 59.893 6.318 59.893 6.318C59.886 7.78401 59.8279 14.8138 59.6703 16.9471C59.3026 17.1008 58.9643 17.3174 58.6708 17.5871L57.0979 17.5192C57.1507 16.9248 57.1559 16.3271 57.1135 15.7318H57.1123ZM64.5457 20.3412C64.516 21.0874 64.2533 21.8055 63.7946 22.3947C63.3359 22.9839 62.7041 23.4147 61.9881 23.6266C59.3825 24.3173 57.1131 21.5857 58.0549 19.0948C58.3022 18.46 58.7424 17.9188 59.3136 17.5475C59.8847 17.1762 60.558 16.9935 61.2385 17.0251C62.935 17.1007 64.5839 18.4595 64.5469 20.3412H64.5457Z" fill="#1D1D1B"/>
<path d="M52.8773 9.88993C52.911 9.88993 52.9441 9.87991 52.9722 9.86114C53.0002 9.84237 53.0221 9.8157 53.0351 9.78448C53.048 9.75327 53.0514 9.71892 53.0448 9.68579C53.0382 9.65265 53.0219 9.62221 52.998 9.59832C52.9741 9.57443 52.9437 9.55817 52.9106 9.55157C52.8774 9.54498 52.8431 9.54837 52.8119 9.56129C52.7807 9.57422 52.754 9.59612 52.7352 9.62421C52.7165 9.6523 52.7064 9.68533 52.7064 9.71911C52.7064 9.76442 52.7244 9.80787 52.7565 9.8399C52.7885 9.87193 52.8319 9.88993 52.8773 9.88993ZM54.6287 9.73354C54.6287 9.77885 54.6467 9.8223 54.6788 9.85433C54.7108 9.88637 54.7543 9.90436 54.7996 9.90436C54.8449 9.90436 54.8883 9.88637 54.9203 9.85433C54.9524 9.8223 54.9704 9.77885 54.9704 9.73354C54.9655 9.69168 54.9454 9.65308 54.9139 9.62507C54.8824 9.59705 54.8417 9.58158 54.7996 9.58158C54.7574 9.58158 54.7167 9.59705 54.6852 9.62507C54.6538 9.65308 54.6336 9.69168 54.6287 9.73354ZM30.7292 5.25244C30.6826 5.254 30.6383 5.27319 30.6054 5.30614C30.5725 5.33909 30.5533 5.38332 30.5517 5.42989C30.5451 5.80741 30.1523 16.8409 30.1523 16.8409C30.1529 16.8878 30.1718 16.9326 30.205 16.9657C30.2381 16.9989 30.2829 17.0177 30.3298 17.0184C32.5095 17.1065 43.802 17.5956 43.8413 17.5928C44.2013 17.5683 44.2313 17.2005 44.369 5.7649C44.3749 5.49346 44.8323 5.5231 30.7292 5.25244ZM35.8335 11.4172C35.9429 11.4897 36.0586 11.5521 36.1794 11.6036C36.239 11.7498 36.323 11.8848 36.4278 12.003C36.2328 12.2978 36.0417 12.595 35.8487 12.8902C35.5589 13.3325 35.4556 13.3582 35.6646 13.733C36.013 14.3453 36.3835 14.9433 36.7761 15.527C36.7943 15.5562 36.8205 15.5795 36.8516 15.5942C36.8827 15.609 36.9174 15.6144 36.9515 15.61C36.9856 15.6055 37.0177 15.5914 37.044 15.5692C37.0703 15.547 37.0897 15.5178 37.0998 15.4849C37.3734 14.903 37.6786 14.3366 38.014 13.788C38.2261 13.391 38.1551 13.3836 37.9383 12.9429C37.7944 12.65 37.6501 12.3579 37.5058 12.0665C37.6337 11.9627 37.7215 11.8177 37.7542 11.6562C37.9245 11.6029 38.0876 11.5292 38.2402 11.4367C39.5034 12.0552 39.9137 13.6101 40.0412 15.0169C40.0844 15.6989 40.0834 16.3829 40.0381 17.0648L33.7123 16.7918C33.6194 14.8375 34.0266 12.1804 35.8335 11.4172ZM36.7063 12.2256C36.8615 12.2935 37.0367 12.2999 37.1965 12.2436C37.3252 12.4986 37.6567 13.1741 37.6946 13.2517C37.7187 13.3028 37.7878 13.3878 37.7885 13.4436C37.7885 13.5216 37.1961 14.451 36.9013 15.0695C36.574 14.5749 36.2633 14.0696 35.9696 13.5544C35.8846 13.4058 35.8183 13.5809 36.7063 12.2256ZM36.6696 11.7389C36.8867 11.7748 37.1078 11.7786 37.326 11.7502C37.2846 11.806 37.2303 11.8509 37.1677 11.8811C37.1052 11.9112 37.0362 11.9258 36.9668 11.9234C36.9063 11.9179 36.848 11.8984 36.7964 11.8663C36.7448 11.8343 36.7014 11.7907 36.6696 11.7389ZM35.2477 9.98392C35.2348 9.93898 35.2049 9.90085 35.1643 9.87767C35.1237 9.8545 35.0757 9.84812 35.0305 9.8599C34.9929 9.87222 34.9528 9.87525 34.9138 9.86873C34.8748 9.8622 34.8379 9.84632 34.8064 9.82244C34.7748 9.79856 34.7495 9.76739 34.7327 9.7316C34.7158 9.69581 34.7078 9.65647 34.7095 9.61693C34.7123 9.57875 34.7236 9.54167 34.7426 9.50845C34.7616 9.47522 34.7878 9.4467 34.8194 9.42498C34.8509 9.40326 34.8869 9.38891 34.9247 9.38298C34.9625 9.37705 35.0012 9.3797 35.0379 9.39073C35.0832 9.4026 35.1313 9.39622 35.1719 9.37295C35.2126 9.34968 35.2424 9.31139 35.2551 9.26632C35.257 9.2614 35.2585 9.25631 35.2594 9.25111C35.3399 8.82628 35.5674 8.44335 35.9021 8.16948C36.2367 7.8956 36.657 7.74826 37.0894 7.75328C37.5217 7.75831 37.9385 7.91538 38.2667 8.19695C38.5949 8.47853 38.8134 8.86664 38.8841 9.29323C38.8916 9.31913 38.9049 9.343 38.9229 9.36306C38.941 9.38312 38.9633 9.39885 38.9883 9.40908C39.0132 9.41931 39.0402 9.42378 39.0671 9.42216C39.094 9.42053 39.1202 9.41286 39.1438 9.3997C39.1903 9.38005 39.2417 9.37472 39.2912 9.3844C39.3408 9.39409 39.3864 9.41834 39.4221 9.45406C39.4578 9.48978 39.4821 9.53534 39.4918 9.58492C39.5014 9.6345 39.4961 9.68584 39.4765 9.73237C39.4406 9.79591 39.3811 9.84274 39.311 9.86268C39.2408 9.88261 39.1656 9.87405 39.1017 9.83884C39.0564 9.82652 39.008 9.83266 38.9672 9.8559C38.9265 9.87915 38.8965 9.91761 38.8841 9.96286C38.4726 11.8559 35.6634 11.9503 35.2477 9.98626V9.98392ZM43.7185 17.2247L40.3957 17.0819C40.4487 16.4827 40.4549 15.8803 40.414 15.2801C40.3134 13.7385 39.907 11.9846 38.5596 11.2054C38.8556 10.9411 39.0718 10.5991 39.1836 10.2183C39.3253 10.2335 39.4679 10.1985 39.5866 10.1195C39.7053 10.0405 39.7926 9.92243 39.8333 9.7858C39.8554 9.6908 39.8548 9.59191 39.8314 9.49721C39.808 9.40251 39.7625 9.31469 39.6987 9.24091C39.6349 9.16714 39.5545 9.1095 39.4642 9.0727C39.3739 9.03591 39.2761 9.021 39.1789 9.0292C39.1703 8.998 39.1637 8.96485 39.1524 8.93404C39.3797 8.10061 39.0521 7.18879 37.9769 6.658C37.8691 6.59264 37.7425 6.56519 37.6173 6.58C37.4953 6.60652 37.3935 6.74848 37.4512 6.85924C36.6505 6.57493 35.7262 6.32767 35.0133 6.86821C34.9598 6.90277 34.9174 6.95207 34.8912 7.01017C34.8779 7.06107 34.8803 7.11481 34.8981 7.16432C34.9159 7.21383 34.9483 7.25676 34.9911 7.28746C35.078 7.34661 35.1761 7.38736 35.2793 7.40719C35.022 7.39744 34.7682 7.46895 34.5539 7.61155C34.2677 7.72411 34.0011 7.88127 33.7641 8.07721C33.689 8.14592 33.6346 8.23426 33.607 8.33225C33.5795 8.43025 33.5799 8.534 33.6081 8.63179C33.7325 8.96017 34.2005 9.10642 34.5621 9.17779C34.4684 9.25527 34.4011 9.35987 34.3694 9.47719C34.3377 9.59452 34.3431 9.71879 34.3849 9.8329C34.4267 9.94701 34.5029 10.0454 34.603 10.1144C34.703 10.1834 34.822 10.2197 34.9435 10.2183C35.0471 10.5827 35.2463 10.9127 35.5203 11.1742C33.6873 12.0966 33.2603 14.7314 33.3531 16.7777C31.7217 16.7075 30.5505 16.6568 30.5139 16.6557C30.5248 16.3386 30.9039 6.01255 30.9066 5.60422C31.2186 5.60851 44.0165 5.91622 44.0165 5.91622C43.9326 12.5634 43.887 16.3866 43.7185 17.2247Z" fill="#1D1D1B"/>
<path d="M35.9459 9.52731C35.9816 9.52772 36.0164 9.51681 36.0455 9.49615C36.0746 9.47548 36.0963 9.44612 36.1077 9.4123C36.119 9.37848 36.1193 9.34194 36.1085 9.30794C36.0977 9.27394 36.0764 9.24423 36.0477 9.22311C36.0155 9.19675 35.9746 9.18351 35.9331 9.18604C35.8916 9.18857 35.8526 9.20668 35.8238 9.23676C35.8004 9.26085 35.7846 9.29129 35.7784 9.32431C35.7721 9.35732 35.7757 9.39144 35.7888 9.42241C35.8018 9.45339 35.8236 9.47985 35.8516 9.4985C35.8795 9.51715 35.9123 9.52717 35.9459 9.52731ZM37.9489 9.41733C37.9489 9.46263 37.9669 9.50608 37.999 9.53811C38.031 9.57015 38.0745 9.58815 38.1198 9.58815C38.1651 9.58815 38.2085 9.57015 38.2406 9.53811C38.2726 9.50608 38.2906 9.46263 38.2906 9.41733C38.285 9.37599 38.2646 9.33809 38.2332 9.31065C38.2018 9.28321 38.1615 9.26808 38.1198 9.26808C38.0781 9.26808 38.0378 9.28321 38.0064 9.31065C37.9749 9.33809 37.9545 9.37599 37.9489 9.41733ZM53.6032 13.611C53.5529 14.4049 53.5399 15.2007 53.5642 15.9958C53.5642 16.0429 53.5829 16.088 53.6161 16.1213C53.6494 16.1546 53.6945 16.1733 53.7416 16.1733C53.7887 16.1733 53.8338 16.1546 53.8671 16.1213C53.9004 16.088 53.9191 16.0429 53.9191 15.9958C53.895 15.2007 53.908 14.4049 53.9581 13.611C53.9748 13.3825 53.618 13.3825 53.6032 13.611ZM54.3465 14.3676C54.5224 14.5025 54.758 14.2369 54.5922 14.088C54.4038 13.9199 54.0965 14.1761 54.3465 14.3676ZM54.2131 14.8687C54.1316 15.0415 54.382 15.2018 54.5325 15.0618C54.7346 14.8742 54.3449 14.5891 54.2131 14.8687ZM54.5567 9.01485C54.6325 9.00771 54.7083 9.0276 54.7708 9.07099C54.8334 9.11438 54.8785 9.17849 54.8984 9.25197C54.9014 9.26321 54.9066 9.27374 54.9137 9.28296C54.9209 9.29218 54.9297 9.29991 54.9398 9.3057C54.9499 9.3115 54.9611 9.31524 54.9726 9.31673C54.9842 9.31822 54.9959 9.31741 55.0072 9.31437C55.0184 9.31132 55.0289 9.30609 55.0382 9.29897C55.0474 9.29185 55.0551 9.28299 55.0609 9.27288C55.0667 9.26278 55.0704 9.25163 55.0719 9.24008C55.0734 9.22853 55.0726 9.2168 55.0696 9.20556C55.0298 9.10164 54.9608 9.01151 54.8708 8.94615C54.7807 8.88078 54.6737 8.843 54.5626 8.8374C54.5399 8.83795 54.5182 8.84717 54.5021 8.86315C54.486 8.87913 54.4766 8.90067 54.4759 8.92336C54.4751 8.94605 54.4831 8.96816 54.4981 8.98517C54.5131 9.00218 54.5341 9.0128 54.5567 9.01485ZM52.4663 9.26757C52.4868 9.2789 52.5108 9.28202 52.5334 9.2763C52.5561 9.27057 52.5758 9.25644 52.5884 9.23676C52.6392 9.17081 52.7057 9.11848 52.7817 9.08445C52.8577 9.05043 52.9409 9.03576 53.024 9.04176C53.0786 9.03786 53.0864 8.89122 53.0018 8.87991C52.6122 8.82921 52.3099 9.18333 52.4663 9.26757ZM53.01 10.3646C52.9963 10.3551 52.9833 10.3447 52.971 10.3334C52.8025 10.1806 52.5494 10.4313 52.7202 10.5842C52.94 10.7933 53.2169 10.9325 53.5158 10.9842C53.8147 11.0359 54.1223 10.9978 54.3995 10.8748C54.314 10.9805 54.1978 11.0572 54.0669 11.0943C53.8329 11.1637 53.9752 11.5296 54.171 11.4317C54.3849 11.3612 54.5714 11.2255 54.7043 11.0436C54.8372 10.8618 54.9098 10.6429 54.912 10.4177C54.9109 10.383 54.8999 10.3493 54.8802 10.3207C54.8605 10.2921 54.8329 10.2698 54.8009 10.2565C54.7688 10.2432 54.7336 10.2393 54.6994 10.2455C54.6652 10.2517 54.6336 10.2676 54.6082 10.2913C54.5101 10.4013 54.3912 10.4909 54.2584 10.5548C54.1256 10.6188 53.9815 10.6558 53.8343 10.6639C53.6871 10.6719 53.5398 10.6508 53.4008 10.6017C53.2618 10.5526 53.1339 10.4766 53.0244 10.3779C53.0208 10.3723 53.0158 10.3678 53.01 10.3646ZM35.8617 8.78943C35.8923 8.80656 35.9285 8.81106 35.9624 8.80195C35.9964 8.79285 36.0254 8.77087 36.0434 8.74068C36.1241 8.57922 36.2774 8.6814 36.3652 8.63226C36.3875 8.61878 36.4054 8.5991 36.4167 8.57563C36.4281 8.55215 36.4324 8.52589 36.4291 8.50003C36.4258 8.47416 36.415 8.44982 36.3981 8.42995C36.3812 8.41008 36.3589 8.39555 36.334 8.38812C35.9607 8.307 35.6581 8.68257 35.8617 8.78943ZM37.8491 8.60223C37.906 8.59722 37.9633 8.6066 38.0156 8.62949C38.0679 8.65239 38.1137 8.68807 38.1486 8.73327C38.2453 8.85027 38.4626 8.69778 38.3347 8.54685C38.2753 8.4765 38.2002 8.42115 38.1154 8.3853C38.0306 8.34946 37.9386 8.33412 37.8468 8.34054C37.829 8.33974 37.8112 8.34257 37.7946 8.34886C37.7779 8.35515 37.7627 8.36477 37.7499 8.37713C37.7371 8.38949 37.7269 8.40433 37.7201 8.42075C37.7132 8.43717 37.7097 8.45481 37.7099 8.47262C37.71 8.49042 37.7138 8.508 37.721 8.52429C37.7282 8.54058 37.7386 8.55524 37.7516 8.56736C37.7646 8.57949 37.78 8.58884 37.7968 8.59483C37.8135 8.60083 37.8313 8.60334 37.8491 8.60223ZM36.263 10.0452C36.2641 10.0857 36.2787 10.1247 36.3044 10.1561C36.3301 10.1874 36.3654 10.2093 36.4049 10.2184C36.4176 10.3079 36.4481 10.394 36.4946 10.4715C36.5411 10.549 36.6027 10.6164 36.6757 10.6698C36.7487 10.7231 36.8317 10.7613 36.9197 10.782C37.0077 10.8027 37.0989 10.8056 37.1881 10.7905C37.6334 10.7125 37.5948 9.99375 37.3499 9.89352C37.2766 9.86076 37.2871 9.87129 36.4404 9.86349C36.3931 9.86509 36.3483 9.88488 36.3152 9.91874C36.2822 9.9526 36.2635 9.99791 36.263 10.0452ZM65.6725 37.8834C63.804 36.9268 61.8528 38.6634 60.879 40.1501C60.5085 40.716 60.099 41.4254 60.1337 42.1247C60.1856 43.1777 61.3595 44.1063 63.2927 43.6195C65.0906 43.1718 66.5831 41.5631 66.6978 39.7511C66.7481 39.3712 66.6758 38.9851 66.4914 38.6492C66.3069 38.3132 66.02 38.0449 65.6725 37.8834ZM62.5073 38.8705C63.0345 38.4415 64.0673 37.7372 64.708 37.9677C64.6944 38.1451 64.4483 38.3027 64.3418 38.4423C64.2765 38.5705 64.2015 38.6936 64.1176 38.8105C63.9272 38.9969 63.4889 39.0074 63.3832 39.3783C62.9686 39.3295 62.5541 39.2363 62.1325 39.2032C62.1945 39.2055 62.4495 38.9173 62.5073 38.8705ZM61.7553 43.3446C61.4626 43.3066 61.1877 43.1829 60.9651 42.9891C60.7425 42.7953 60.5821 42.54 60.5042 42.2553C60.3482 41.4082 61.2511 40.1446 61.8131 39.5253C62.3338 39.5527 62.8516 39.6217 63.3614 39.7316C63.3917 39.8533 63.4537 39.9649 63.541 40.0549C63.6284 40.1449 63.7379 40.2102 63.8587 40.2442C63.9794 40.2783 64.107 40.2797 64.2285 40.2486C64.35 40.2174 64.461 40.1546 64.5505 40.0666C65.7879 40.5054 65.9517 40.7686 66.1206 40.7386C65.4186 42.535 63.3836 43.671 61.7553 43.3446ZM66.3491 39.6006C66.3459 39.89 66.3019 40.1775 66.2185 40.4547C66.2075 40.442 66.1943 40.4315 66.1795 40.4235C65.7105 40.1626 65.2209 39.9409 64.7154 39.7605C64.7453 39.6608 64.7518 39.5555 64.7345 39.4529C64.7172 39.3502 64.6765 39.2529 64.6156 39.1685C64.4912 39.0019 64.3937 39.0441 64.4939 38.8444C64.6757 38.5428 64.9091 38.2755 65.1834 38.0546C66.0605 38.3826 66.3546 38.8943 66.3491 39.6002V39.6006Z" fill="#1D1D1B"/>
<path d="M71.4707 31.244C71.9184 31.0947 72.5319 31.2409 73.5826 30.636C73.9219 30.4387 74.4429 30.129 74.3743 29.6669C74.299 29.1677 73.7354 29.0456 73.3213 29.1454C72.6242 29.3452 71.9857 29.7105 71.4602 30.2101C71.4558 30.1238 71.4491 30.0374 71.4403 29.9508C71.7429 29.1801 72.7616 28.6899 73.2436 27.5106C73.4324 27.0472 73.6496 26.1846 72.9823 25.9822C72.2803 25.7692 71.8822 26.5547 71.6267 27.0582C71.4335 27.4386 71.261 27.8291 71.11 28.2282C71.0542 28.0464 70.993 27.8666 70.9259 27.6892C70.5211 26.6319 69.6861 25.965 69.3085 26.2228C68.993 26.4408 69.1689 27.2477 69.3374 27.6428C69.693 28.3516 70.1905 28.9798 70.7991 29.4882C70.8291 29.5157 70.8673 29.5326 70.9079 29.5362C70.9484 29.5398 70.989 29.5299 71.0234 29.5081C71.0967 30.0225 71.078 29.888 71.0366 30.0693C70.435 29.6777 69.7866 29.3633 69.1065 29.1333C68.9949 29.073 68.8711 29.0387 68.7443 29.0329C68.6176 29.027 68.4912 29.0499 68.3745 29.0998C68.2868 29.16 68.2164 29.242 68.1701 29.3378C68.1239 29.4335 68.1035 29.5397 68.1109 29.6458C68.1713 30.5717 70.009 31.5049 71.1232 30.95C71.1232 30.9788 71.1232 31.0077 71.1209 31.0365C71.0078 31.1156 70.9213 31.2269 70.8724 31.356C70.8171 31.4956 70.9458 31.5822 71.0632 31.5666C71.0791 31.6326 71.0844 31.7008 71.0788 31.7686C71.1958 31.7643 71.3128 31.7573 71.4298 31.753C71.4508 31.579 71.4641 31.4125 71.4707 31.244Z" fill="#86F2AA"/>
<path d="M75.5503 32.5326C75.5332 32.2562 75.4977 31.9813 75.4442 31.7097C75.4338 31.6722 75.4114 31.6391 75.3805 31.6155C75.3496 31.5918 75.3119 31.5789 75.273 31.5786C74.328 31.6211 67.2811 31.9269 66.9394 31.9425C66.8462 31.9425 66.7834 31.9776 66.7682 32.0712C66.3595 34.4046 66.622 36.8725 68.703 38.0429C70.1178 38.7399 71.7458 38.8684 73.2524 38.4021C75.3962 37.5495 75.7655 34.8386 75.5503 32.5326Z" fill="#FF9F48"/>
<path d="M20.805 16.5524C21.2297 16.401 21.6858 16.359 22.131 16.4303C21.7443 14.9907 21.2254 13.59 20.5808 12.246C19.6974 10.452 18.7754 9.19698 17.0825 8.63928C16.9329 8.57224 16.7708 8.53739 16.6069 8.53699C16.443 8.53659 16.2808 8.57064 16.1309 8.63694C17.1422 9.12914 18.0352 9.83425 18.7485 10.7039C20.0321 12.3886 20.7517 14.4351 20.805 16.5524Z" fill="#AC47F5"/>
<path d="M18.9318 19.188C18.7837 19.7941 18.8468 20.4327 19.1105 20.9981C19.3743 21.5636 19.823 22.0222 20.3826 22.2983C20.9017 22.536 21.4815 22.6077 22.0429 22.5037C22.6042 22.3997 23.1199 22.125 23.5194 21.7172C24.4374 20.7231 24.4421 19.0796 23.7432 17.9732C22.2679 15.7034 19.4946 16.8687 18.9318 19.188Z" fill="#AC47F5"/>
</svg>
